%TF.GenerationSoftware,KiCad,Pcbnew,10.0.1*%
%TF.CreationDate,2026-08-22T23:10:47+03:00*%
%TF.ProjectId,handheld,68616e64-6865-46c6-942e-6b696361645f,rev?*%
%TF.SameCoordinates,Original*%
%TF.FileFunction,Soldermask,Bot*%
%TF.FilePolarity,Negative*%
%FSLAX46Y46*%
G04 Gerber Fmt 4.6, Leading zero omitted, Abs format (unit mm)*
G04 Created by KiCad (PCBNEW 10.0.1) date 2026-08-22 23:10:47*
%MOMM*%
%LPD*%
G01*
G04 APERTURE LIST*
%ADD10R,1.700000X1.700000*%
%ADD11C,1.700000*%
%ADD12C,2.000000*%
%ADD13C,2.200000*%
G04 APERTURE END LIST*
D10*
%TO.C,J4*%
X23078001Y-93190000D03*
D11*
X23078001Y-95730000D03*
X23078001Y-98270000D03*
X23078001Y-100810000D03*
X23078001Y-103350000D03*
X23078001Y-105890000D03*
%TD*%
D12*
%TO.C,SW6*%
X96178001Y-99650000D03*
X89678001Y-99650000D03*
X96178001Y-95150000D03*
X89678001Y-95150000D03*
%TD*%
%TO.C,SW5*%
X106578001Y-89857763D03*
X100078001Y-89857763D03*
X106578001Y-85357763D03*
X100078001Y-85357763D03*
%TD*%
%TO.C,SW10*%
X85828001Y-86707763D03*
X79328001Y-86707763D03*
X85828001Y-82207763D03*
X79328001Y-82207763D03*
%TD*%
%TO.C,SW1*%
X45978001Y-89757763D03*
X39478001Y-89757763D03*
X45978001Y-85257763D03*
X39478001Y-85257763D03*
%TD*%
%TO.C,SW7*%
X117650000Y-99650000D03*
X111150000Y-99650000D03*
X117650000Y-95150000D03*
X111150000Y-95150000D03*
%TD*%
%TO.C,SW8*%
X106428001Y-109707763D03*
X99928001Y-109707763D03*
X106428001Y-105207763D03*
X99928001Y-105207763D03*
%TD*%
%TO.C,SW2*%
X36028001Y-99707763D03*
X29528001Y-99707763D03*
X36028001Y-95207763D03*
X29528001Y-95207763D03*
%TD*%
%TO.C,SW3*%
X56028001Y-99707763D03*
X49528001Y-99707763D03*
X56028001Y-95207763D03*
X49528001Y-95207763D03*
%TD*%
%TO.C,SW9*%
X66978001Y-86757763D03*
X60478001Y-86757763D03*
X66978001Y-82257763D03*
X60478001Y-82257763D03*
%TD*%
%TO.C,SW4*%
X46028001Y-109907763D03*
X39528001Y-109907763D03*
X46028001Y-105407763D03*
X39528001Y-105407763D03*
%TD*%
D13*
%TO.C,SW12*%
X107850000Y-77542237D03*
X114850000Y-77542237D03*
D11*
X109100000Y-75042237D03*
X113600000Y-75042237D03*
%TD*%
D10*
%TO.C,J2*%
X91000000Y-60820000D03*
D11*
X91000000Y-58280000D03*
X91000000Y-55740000D03*
X91000000Y-53200000D03*
X91000000Y-50660000D03*
X91000000Y-48120000D03*
X91000000Y-45580000D03*
X91000000Y-43040000D03*
X91000000Y-40500000D03*
X91000000Y-37960000D03*
X91000000Y-35420000D03*
X91000000Y-32880000D03*
X91000000Y-30340000D03*
X91000000Y-27800000D03*
X91000000Y-25260000D03*
%TD*%
D10*
%TO.C,J1*%
X116400000Y-60820000D03*
D11*
X116400000Y-58280000D03*
X116400000Y-55740000D03*
X116400000Y-53200000D03*
X116400000Y-50660000D03*
X116400000Y-48120000D03*
X116400000Y-45580000D03*
X116400000Y-43040000D03*
X116400000Y-40500000D03*
X116400000Y-37960000D03*
X116400000Y-35420000D03*
X116400000Y-32880000D03*
X116400000Y-30340000D03*
X116400000Y-27800000D03*
X116400000Y-25260000D03*
%TD*%
D13*
%TO.C,SW11*%
X26350000Y-78117237D03*
X33350000Y-78117237D03*
D11*
X27600000Y-75617237D03*
X32100000Y-75617237D03*
%TD*%
D10*
%TO.C,J3*%
X24460000Y-26140000D03*
D11*
X24460000Y-23600000D03*
X27000000Y-26140000D03*
X27000000Y-23600000D03*
X29540000Y-26140000D03*
X29540000Y-23600000D03*
X32080000Y-26140000D03*
X32080000Y-23600000D03*
X34620000Y-26140000D03*
X34620000Y-23600000D03*
X37160000Y-26140000D03*
X37160000Y-23600000D03*
X39700000Y-26140000D03*
X39700000Y-23600000D03*
X42240000Y-26140000D03*
X42240000Y-23600000D03*
X44780000Y-26140000D03*
X44780000Y-23600000D03*
X47320000Y-26140000D03*
X47320000Y-23600000D03*
X49860000Y-26140000D03*
X49860000Y-23600000D03*
X52400000Y-26140000D03*
X52400000Y-23600000D03*
X54940000Y-26140000D03*
X54940000Y-23600000D03*
%TD*%
M02*
