%TF.GenerationSoftware,KiCad,Pcbnew,10.0.1*%
%TF.CreationDate,2026-08-22T23:10:47+03:00*%
%TF.ProjectId,handheld,68616e64-6865-46c6-942e-6b696361645f,rev?*%
%TF.SameCoordinates,Original*%
%TF.FileFunction,Copper,L2,Bot*%
%TF.FilePolarity,Positive*%
%FSLAX46Y46*%
G04 Gerber Fmt 4.6, Leading zero omitted, Abs format (unit mm)*
G04 Created by KiCad (PCBNEW 10.0.1) date 2026-08-22 23:10:47*
%MOMM*%
%LPD*%
G01*
G04 APERTURE LIST*
%TA.AperFunction,ComponentPad*%
%ADD10R,1.700000X1.700000*%
%TD*%
%TA.AperFunction,ComponentPad*%
%ADD11C,1.700000*%
%TD*%
%TA.AperFunction,ComponentPad*%
%ADD12C,2.000000*%
%TD*%
%TA.AperFunction,ComponentPad*%
%ADD13C,2.200000*%
%TD*%
%TA.AperFunction,ViaPad*%
%ADD14C,0.600000*%
%TD*%
%TA.AperFunction,Conductor*%
%ADD15C,0.200000*%
%TD*%
G04 APERTURE END LIST*
D10*
%TO.P,J4,1,Pin_1_1*%
%TO.N,GND*%
X23078001Y-93190000D03*
D11*
%TO.P,J4,2,Pin_2_2*%
%TO.N,/GPIO 19*%
X23078001Y-95730000D03*
%TO.P,J4,3,Pin_3_3*%
%TO.N,/GPIO 18*%
X23078001Y-98270000D03*
%TO.P,J4,4,Pin_4_4*%
%TO.N,/GPIO 23*%
X23078001Y-100810000D03*
%TO.P,J4,5,Pin_5_5*%
%TO.N,/GPIO 14*%
X23078001Y-103350000D03*
%TO.P,J4,6,Pin_6_6*%
%TO.N,+3V3*%
X23078001Y-105890000D03*
%TD*%
D12*
%TO.P,SW6,1,1_1*%
%TO.N,GND*%
X96178001Y-99650000D03*
X89678001Y-99650000D03*
%TO.P,SW6,2,2_2*%
%TO.N,/BA5*%
X96178001Y-95150000D03*
X89678001Y-95150000D03*
%TD*%
%TO.P,SW5,1,1_1*%
%TO.N,GND*%
X106578001Y-89857763D03*
X100078001Y-89857763D03*
%TO.P,SW5,2,2_2*%
%TO.N,/BA4*%
X106578001Y-85357763D03*
X100078001Y-85357763D03*
%TD*%
%TO.P,SW10,1,1_1*%
%TO.N,GND*%
X85828001Y-86707763D03*
X79328001Y-86707763D03*
%TO.P,SW10,2,2_2*%
%TO.N,/BB1*%
X85828001Y-82207763D03*
X79328001Y-82207763D03*
%TD*%
%TO.P,SW1,1,1_1*%
%TO.N,GND*%
X45978001Y-89757763D03*
X39478001Y-89757763D03*
%TO.P,SW1,2,2_2*%
%TO.N,/BA0*%
X45978001Y-85257763D03*
X39478001Y-85257763D03*
%TD*%
%TO.P,SW7,1,1_1*%
%TO.N,GND*%
X117650000Y-99650000D03*
X111150000Y-99650000D03*
%TO.P,SW7,2,2_2*%
%TO.N,/BA6*%
X117650000Y-95150000D03*
X111150000Y-95150000D03*
%TD*%
%TO.P,SW8,1,1_1*%
%TO.N,GND*%
X106428001Y-109707763D03*
X99928001Y-109707763D03*
%TO.P,SW8,2,2_2*%
%TO.N,/BA7*%
X106428001Y-105207763D03*
X99928001Y-105207763D03*
%TD*%
%TO.P,SW2,1,1_1*%
%TO.N,GND*%
X36028001Y-99707763D03*
X29528001Y-99707763D03*
%TO.P,SW2,2,2_2*%
%TO.N,/BA2*%
X36028001Y-95207763D03*
X29528001Y-95207763D03*
%TD*%
%TO.P,SW3,1,1_1*%
%TO.N,GND*%
X56028001Y-99707763D03*
X49528001Y-99707763D03*
%TO.P,SW3,2,2_2*%
%TO.N,/BA1*%
X56028001Y-95207763D03*
X49528001Y-95207763D03*
%TD*%
%TO.P,SW9,1,1_1*%
%TO.N,GND*%
X66978001Y-86757763D03*
X60478001Y-86757763D03*
%TO.P,SW9,2,2_2*%
%TO.N,/BB0*%
X66978001Y-82257763D03*
X60478001Y-82257763D03*
%TD*%
%TO.P,SW4,1,1_1*%
%TO.N,GND*%
X46028001Y-109907763D03*
X39528001Y-109907763D03*
%TO.P,SW4,2,2_2*%
%TO.N,/BA3*%
X46028001Y-105407763D03*
X39528001Y-105407763D03*
%TD*%
D13*
%TO.P,SW12,*%
%TO.N,*%
X107850000Y-77542237D03*
X114850000Y-77542237D03*
D11*
%TO.P,SW12,1,1_1*%
%TO.N,/BB3*%
X109100000Y-75042237D03*
%TO.P,SW12,2,2_2*%
%TO.N,GND*%
X113600000Y-75042237D03*
%TD*%
D10*
%TO.P,J2,1,Pin_1_1*%
%TO.N,/GPIO 23*%
X91000000Y-60820000D03*
D11*
%TO.P,J2,2,Pin_2_2*%
%TO.N,unconnected-(J2-Pin_2-Pad2)*%
X91000000Y-58280000D03*
%TO.P,J2,3,Pin_3_3*%
%TO.N,unconnected-(J2-Pin_3-Pad3)*%
X91000000Y-55740000D03*
%TO.P,J2,4,Pin_4_4*%
%TO.N,unconnected-(J2-Pin_4-Pad4)*%
X91000000Y-53200000D03*
%TO.P,J2,5,Pin_5_5*%
%TO.N,/GPIO 21*%
X91000000Y-50660000D03*
%TO.P,J2,6,Pin_6_6*%
%TO.N,/GPIO 19*%
X91000000Y-48120000D03*
%TO.P,J2,7,Pin_7_7*%
%TO.N,/GPIO 18*%
X91000000Y-45580000D03*
%TO.P,J2,8,Pin_8_8*%
%TO.N,/GPIO 5*%
X91000000Y-43040000D03*
%TO.P,J2,9,Pin_9_9*%
%TO.N,unconnected-(J2-Pin_9-Pad9)*%
X91000000Y-40500000D03*
%TO.P,J2,10,Pin_10_10*%
%TO.N,unconnected-(J2-Pin_10-Pad10)*%
X91000000Y-37960000D03*
%TO.P,J2,11,Pin_11_11*%
%TO.N,/GPIO 4*%
X91000000Y-35420000D03*
%TO.P,J2,12,Pin_12_12*%
%TO.N,unconnected-(J2-Pin_12-Pad12)*%
X91000000Y-32880000D03*
%TO.P,J2,13,Pin_13_13*%
%TO.N,unconnected-(J2-Pin_13-Pad13)*%
X91000000Y-30340000D03*
%TO.P,J2,14,Pin_14_14*%
%TO.N,GND*%
X91000000Y-27800000D03*
%TO.P,J2,15,Pin_15_15*%
%TO.N,+3V3*%
X91000000Y-25260000D03*
%TD*%
D10*
%TO.P,J1,1,Pin_1_1*%
%TO.N,unconnected-(J1-Pin_1-Pad1)*%
X116400000Y-60820000D03*
D11*
%TO.P,J1,2,Pin_2_2*%
%TO.N,unconnected-(J1-Pin_2-Pad2)*%
X116400000Y-58280000D03*
%TO.P,J1,3,Pin_3_3*%
%TO.N,unconnected-(J1-Pin_3-Pad3)*%
X116400000Y-55740000D03*
%TO.P,J1,4,Pin_4_4*%
%TO.N,unconnected-(J1-Pin_4-Pad4)*%
X116400000Y-53200000D03*
%TO.P,J1,5,Pin_5_5*%
%TO.N,unconnected-(J1-Pin_5-Pad5)*%
X116400000Y-50660000D03*
%TO.P,J1,6,Pin_6_6*%
%TO.N,/GPIO 32*%
X116400000Y-48120000D03*
%TO.P,J1,7,Pin_7_7*%
%TO.N,/GPIO 33*%
X116400000Y-45580000D03*
%TO.P,J1,8,Pin_8_8*%
%TO.N,unconnected-(J1-Pin_8-Pad8)*%
X116400000Y-43040000D03*
%TO.P,J1,9,Pin_9_9*%
%TO.N,/GPIO 26*%
X116400000Y-40500000D03*
%TO.P,J1,10,Pin_10_10*%
%TO.N,/GPIO 27*%
X116400000Y-37960000D03*
%TO.P,J1,11,Pin_11_11*%
%TO.N,/GPIO 14*%
X116400000Y-35420000D03*
%TO.P,J1,12,Pin_12_12*%
%TO.N,unconnected-(J1-Pin_12-Pad12)*%
X116400000Y-32880000D03*
%TO.P,J1,13,Pin_13_13*%
%TO.N,unconnected-(J1-Pin_13-Pad13)*%
X116400000Y-30340000D03*
%TO.P,J1,14,Pin_14_14*%
%TO.N,unconnected-(J1-Pin_14-Pad14)*%
X116400000Y-27800000D03*
%TO.P,J1,15,Pin_15_15*%
%TO.N,+5V*%
X116400000Y-25260000D03*
%TD*%
D13*
%TO.P,SW11,*%
%TO.N,*%
X26350000Y-78117237D03*
X33350000Y-78117237D03*
D11*
%TO.P,SW11,1,1_1*%
%TO.N,/BB2*%
X27600000Y-75617237D03*
%TO.P,SW11,2,2_2*%
%TO.N,GND*%
X32100000Y-75617237D03*
%TD*%
D10*
%TO.P,J3,1,Pin_1_1*%
%TO.N,+3V3*%
X24460000Y-26140000D03*
D11*
%TO.P,J3,2,Pin_2_2*%
%TO.N,+5V*%
X24460000Y-23600000D03*
%TO.P,J3,3,Pin_3_3*%
%TO.N,unconnected-(J3-Pin_3-Pad3)*%
X27000000Y-26140000D03*
%TO.P,J3,4,Pin_4_4*%
%TO.N,+5V*%
X27000000Y-23600000D03*
%TO.P,J3,5,Pin_5_5*%
%TO.N,unconnected-(J3-Pin_5-Pad5)*%
X29540000Y-26140000D03*
%TO.P,J3,6,Pin_6_6*%
%TO.N,GND*%
X29540000Y-23600000D03*
%TO.P,J3,7,Pin_7_7*%
%TO.N,unconnected-(J3-Pin_7-Pad7)*%
X32080000Y-26140000D03*
%TO.P,J3,8,Pin_8_8*%
%TO.N,unconnected-(J3-Pin_8-Pad8)*%
X32080000Y-23600000D03*
%TO.P,J3,9,Pin_9_9*%
%TO.N,GND*%
X34620000Y-26140000D03*
%TO.P,J3,10,Pin_10_10*%
%TO.N,unconnected-(J3-Pin_10-Pad10)*%
X34620000Y-23600000D03*
%TO.P,J3,11,Pin_11_11*%
%TO.N,/GPIO 27*%
X37160000Y-26140000D03*
%TO.P,J3,12,Pin_12_12*%
%TO.N,unconnected-(J3-Pin_12-Pad12)*%
X37160000Y-23600000D03*
%TO.P,J3,13,Pin_13_13*%
%TO.N,/GPIO 4*%
X39700000Y-26140000D03*
%TO.P,J3,14,Pin_14_14*%
%TO.N,GND*%
X39700000Y-23600000D03*
%TO.P,J3,15,Pin_15_15*%
%TO.N,/GPIO 21*%
X42240000Y-26140000D03*
%TO.P,J3,16,Pin_16_16*%
%TO.N,unconnected-(J3-Pin_16-Pad16)*%
X42240000Y-23600000D03*
%TO.P,J3,17,Pin_17_17*%
%TO.N,unconnected-(J3-Pin_17-Pad17)*%
X44780000Y-26140000D03*
%TO.P,J3,18,Pin_18_18*%
%TO.N,unconnected-(J3-Pin_18-Pad18)*%
X44780000Y-23600000D03*
%TO.P,J3,19,Pin_19_19*%
%TO.N,/GPIO 23*%
X47320000Y-26140000D03*
%TO.P,J3,20,Pin_20_20*%
%TO.N,GND*%
X47320000Y-23600000D03*
%TO.P,J3,21,Pin_21_21*%
%TO.N,/GPIO 19*%
X49860000Y-26140000D03*
%TO.P,J3,22,Pin_22_22*%
%TO.N,unconnected-(J3-Pin_22-Pad22)*%
X49860000Y-23600000D03*
%TO.P,J3,23,Pin_23_23*%
%TO.N,/GPIO 18*%
X52400000Y-26140000D03*
%TO.P,J3,24,Pin_24_24*%
%TO.N,/GPIO 5*%
X52400000Y-23600000D03*
%TO.P,J3,25,Pin_25_25*%
%TO.N,GND*%
X54940000Y-26140000D03*
%TO.P,J3,26,Pin_26_26*%
%TO.N,/GPIO 26*%
X54940000Y-23600000D03*
%TD*%
D14*
%TO.N,/BA6*%
X115800000Y-95000000D03*
X61000000Y-77000000D03*
%TD*%
%TO.N,/GPIO 23*%
D15*
X91000000Y-65000000D02*
X91000000Y-60820000D01*
X61901655Y-65200000D02*
X90800000Y-65200000D01*
X90800000Y-65200000D02*
X91000000Y-65000000D01*
X23078001Y-100810000D02*
X26291655Y-100810000D01*
X26291655Y-100810000D02*
X61901655Y-65200000D01*
%TO.N,/GPIO 18*%
X52400000Y-26140000D02*
X71840000Y-45580000D01*
X71840000Y-45580000D02*
X91000000Y-45580000D01*
%TO.N,/GPIO 19*%
X71840000Y-48120000D02*
X49860000Y-26140000D01*
X91000000Y-48120000D02*
X71840000Y-48120000D01*
X48710000Y-24990000D02*
X49860000Y-26140000D01*
X41763654Y-24990000D02*
X48710000Y-24990000D01*
X41090000Y-25663654D02*
X41763654Y-24990000D01*
X41090000Y-77718001D02*
X41090000Y-25663654D01*
X23078001Y-95730000D02*
X41090000Y-77718001D01*
%TO.N,/GPIO 18*%
X92550000Y-47130000D02*
X91000000Y-45580000D01*
X91365685Y-65600000D02*
X92550000Y-64415685D01*
X62067341Y-65600000D02*
X91365685Y-65600000D01*
X40778001Y-90296241D02*
X40778001Y-86889340D01*
X40016479Y-91057763D02*
X40778001Y-90296241D01*
X37416479Y-91057763D02*
X40016479Y-91057763D01*
X30828001Y-97646241D02*
X37416479Y-91057763D01*
X92550000Y-64415685D02*
X92550000Y-47130000D01*
X30828001Y-100246241D02*
X30828001Y-97646241D01*
X29114242Y-101960000D02*
X30828001Y-100246241D01*
X22601655Y-101960000D02*
X29114242Y-101960000D01*
X40778001Y-86889340D02*
X62067341Y-65600000D01*
X21928001Y-101286346D02*
X22601655Y-101960000D01*
X21928001Y-99420000D02*
X21928001Y-101286346D01*
X23078001Y-98270000D02*
X21928001Y-99420000D01*
%TO.N,/GPIO 23*%
X91476346Y-49270000D02*
X70450000Y-49270000D01*
X92150000Y-49943654D02*
X91476346Y-49270000D01*
X92150000Y-59670000D02*
X92150000Y-49943654D01*
X70450000Y-49270000D02*
X47320000Y-26140000D01*
X91000000Y-60820000D02*
X92150000Y-59670000D01*
%TO.N,/GPIO 21*%
X89000000Y-50800000D02*
X89140000Y-50660000D01*
X89140000Y-50660000D02*
X91000000Y-50660000D01*
X66900000Y-50800000D02*
X89000000Y-50800000D01*
X42240000Y-26140000D02*
X66900000Y-50800000D01*
%TO.N,/BA6*%
X111300000Y-95000000D02*
X115800000Y-95000000D01*
X111150000Y-95150000D02*
X111300000Y-95000000D01*
X61000000Y-78941284D02*
X61000000Y-77000000D01*
X75708716Y-93650000D02*
X61000000Y-78941284D01*
X109650000Y-93650000D02*
X75708716Y-93650000D01*
X111150000Y-95150000D02*
X109650000Y-93650000D01*
%TO.N,/GPIO 14*%
X118200000Y-67200000D02*
X118200000Y-37220000D01*
X69951471Y-67200000D02*
X118200000Y-67200000D01*
X60400000Y-76751471D02*
X69951471Y-67200000D01*
X34224242Y-103350000D02*
X60400000Y-77174242D01*
X23078001Y-103350000D02*
X34224242Y-103350000D01*
X60400000Y-77174242D02*
X60400000Y-76751471D01*
X118200000Y-37220000D02*
X116400000Y-35420000D01*
%TD*%
M02*
