%TF.GenerationSoftware,KiCad,Pcbnew,10.0.1*%
%TF.CreationDate,2026-08-22T23:10:47+03:00*%
%TF.ProjectId,handheld,68616e64-6865-46c6-942e-6b696361645f,rev?*%
%TF.SameCoordinates,Original*%
%TF.FileFunction,Copper,L1,Top*%
%TF.FilePolarity,Positive*%
%FSLAX46Y46*%
G04 Gerber Fmt 4.6, Leading zero omitted, Abs format (unit mm)*
G04 Created by KiCad (PCBNEW 10.0.1) date 2026-08-22 23:10:47*
%MOMM*%
%LPD*%
G01*
G04 APERTURE LIST*
G04 Aperture macros list*
%AMRoundRect*
0 Rectangle with rounded corners*
0 $1 Rounding radius*
0 $2 $3 $4 $5 $6 $7 $8 $9 X,Y pos of 4 corners*
0 Add a 4 corners polygon primitive as box body*
4,1,4,$2,$3,$4,$5,$6,$7,$8,$9,$2,$3,0*
0 Add four circle primitives for the rounded corners*
1,1,$1+$1,$2,$3*
1,1,$1+$1,$4,$5*
1,1,$1+$1,$6,$7*
1,1,$1+$1,$8,$9*
0 Add four rect primitives between the rounded corners*
20,1,$1+$1,$2,$3,$4,$5,0*
20,1,$1+$1,$4,$5,$6,$7,0*
20,1,$1+$1,$6,$7,$8,$9,0*
20,1,$1+$1,$8,$9,$2,$3,0*%
G04 Aperture macros list end*
%TA.AperFunction,ComponentPad*%
%ADD10R,1.700000X1.700000*%
%TD*%
%TA.AperFunction,ComponentPad*%
%ADD11C,1.700000*%
%TD*%
%TA.AperFunction,ComponentPad*%
%ADD12C,2.000000*%
%TD*%
%TA.AperFunction,SMDPad,CuDef*%
%ADD13RoundRect,0.100000X0.850000X0.100000X-0.850000X0.100000X-0.850000X-0.100000X0.850000X-0.100000X0*%
%TD*%
%TA.AperFunction,ComponentPad*%
%ADD14C,2.200000*%
%TD*%
%TA.AperFunction,ViaPad*%
%ADD15C,0.600000*%
%TD*%
%TA.AperFunction,Conductor*%
%ADD16C,0.200000*%
%TD*%
G04 APERTURE END LIST*
D10*
%TO.P,J4,1,Pin_1_1*%
%TO.N,GND*%
X23078001Y-93190000D03*
D11*
%TO.P,J4,2,Pin_2_2*%
%TO.N,/GPIO 19*%
X23078001Y-95730000D03*
%TO.P,J4,3,Pin_3_3*%
%TO.N,/GPIO 18*%
X23078001Y-98270000D03*
%TO.P,J4,4,Pin_4_4*%
%TO.N,/GPIO 23*%
X23078001Y-100810000D03*
%TO.P,J4,5,Pin_5_5*%
%TO.N,/GPIO 14*%
X23078001Y-103350000D03*
%TO.P,J4,6,Pin_6_6*%
%TO.N,+3V3*%
X23078001Y-105890000D03*
%TD*%
D12*
%TO.P,SW6,1,1_1*%
%TO.N,GND*%
X96178001Y-99650000D03*
X89678001Y-99650000D03*
%TO.P,SW6,2,2_2*%
%TO.N,/BA5*%
X96178001Y-95150000D03*
X89678001Y-95150000D03*
%TD*%
%TO.P,SW5,1,1_1*%
%TO.N,GND*%
X106578001Y-89857763D03*
X100078001Y-89857763D03*
%TO.P,SW5,2,2_2*%
%TO.N,/BA4*%
X106578001Y-85357763D03*
X100078001Y-85357763D03*
%TD*%
%TO.P,SW10,1,1_1*%
%TO.N,GND*%
X85828001Y-86707763D03*
X79328001Y-86707763D03*
%TO.P,SW10,2,2_2*%
%TO.N,/BB1*%
X85828001Y-82207763D03*
X79328001Y-82207763D03*
%TD*%
%TO.P,SW1,1,1_1*%
%TO.N,GND*%
X45978001Y-89757763D03*
X39478001Y-89757763D03*
%TO.P,SW1,2,2_2*%
%TO.N,/BA0*%
X45978001Y-85257763D03*
X39478001Y-85257763D03*
%TD*%
%TO.P,SW7,1,1_1*%
%TO.N,GND*%
X117650000Y-99650000D03*
X111150000Y-99650000D03*
%TO.P,SW7,2,2_2*%
%TO.N,/BA6*%
X117650000Y-95150000D03*
X111150000Y-95150000D03*
%TD*%
D13*
%TO.P,U2,28,GPA7_28*%
%TO.N,/BA7*%
X59100000Y-63825000D03*
%TO.P,U2,27,GPA6_27*%
%TO.N,/BA6*%
X59100000Y-63175000D03*
%TO.P,U2,26,GPA5_26*%
%TO.N,/BA5*%
X59100000Y-62525000D03*
%TO.P,U2,25,GPA4_25*%
%TO.N,/BA4*%
X59100000Y-61875000D03*
%TO.P,U2,24,GPA3_24*%
%TO.N,/BA3*%
X59100000Y-61225000D03*
%TO.P,U2,23,GPA2_23*%
%TO.N,/BA2*%
X59100000Y-60575000D03*
%TO.P,U2,22,GPA1_22*%
%TO.N,/BA1*%
X59100000Y-59925000D03*
%TO.P,U2,21,GPA0_21*%
%TO.N,/BA0*%
X59100000Y-59275000D03*
%TO.P,U2,20,INTA_20*%
%TO.N,unconnected-(U2-INTA-Pad20)*%
X59100000Y-58625000D03*
%TO.P,U2,19,INTB_19*%
%TO.N,unconnected-(U2-INTB-Pad19)*%
X59100000Y-57975000D03*
%TO.P,U2,18,~{RESET}_18*%
%TO.N,+3V3*%
X59100000Y-57325000D03*
%TO.P,U2,17,A2_17*%
%TO.N,GND*%
X59100000Y-56675000D03*
%TO.P,U2,16,A1_16*%
X59100000Y-56025000D03*
%TO.P,U2,15,A0_15*%
X59100000Y-55375000D03*
%TO.P,U2,14,NC_14*%
%TO.N,unconnected-(U2-NC-Pad14)*%
X66100000Y-55375000D03*
%TO.P,U2,13,SDA_13*%
%TO.N,/GPIO 33*%
X66100000Y-56025000D03*
%TO.P,U2,12,SCK_12*%
%TO.N,/GPIO 32*%
X66100000Y-56675000D03*
%TO.P,U2,11,NC_11*%
%TO.N,unconnected-(U2-NC-Pad11)*%
X66100000Y-57325000D03*
%TO.P,U2,10,V_{SS}_10*%
%TO.N,GND*%
X66100000Y-57975000D03*
%TO.P,U2,9,V_{DD}_9*%
%TO.N,+3V3*%
X66100000Y-58625000D03*
%TO.P,U2,8,GPB7_8*%
%TO.N,unconnected-(U2-GPB7-Pad8)*%
X66100000Y-59275000D03*
%TO.P,U2,7,GPB6_7*%
%TO.N,unconnected-(U2-GPB6-Pad7)*%
X66100000Y-59925000D03*
%TO.P,U2,6,GPB5_6*%
%TO.N,unconnected-(U2-GPB5-Pad6)*%
X66100000Y-60575000D03*
%TO.P,U2,5,GPB4_5*%
%TO.N,unconnected-(U2-GPB4-Pad5)*%
X66100000Y-61225000D03*
%TO.P,U2,4,GPB3_4*%
%TO.N,/BB3*%
X66100000Y-61875000D03*
%TO.P,U2,3,GPB2_3*%
%TO.N,/BB2*%
X66100000Y-62525000D03*
%TO.P,U2,2,GPB1_2*%
%TO.N,/BB1*%
X66100000Y-63175000D03*
%TO.P,U2,1,GPB0_1*%
%TO.N,/BB0*%
X66100000Y-63825000D03*
%TD*%
D12*
%TO.P,SW8,1,1_1*%
%TO.N,GND*%
X106428001Y-109707763D03*
X99928001Y-109707763D03*
%TO.P,SW8,2,2_2*%
%TO.N,/BA7*%
X106428001Y-105207763D03*
X99928001Y-105207763D03*
%TD*%
%TO.P,SW2,1,1_1*%
%TO.N,GND*%
X36028001Y-99707763D03*
X29528001Y-99707763D03*
%TO.P,SW2,2,2_2*%
%TO.N,/BA2*%
X36028001Y-95207763D03*
X29528001Y-95207763D03*
%TD*%
%TO.P,SW3,1,1_1*%
%TO.N,GND*%
X56028001Y-99707763D03*
X49528001Y-99707763D03*
%TO.P,SW3,2,2_2*%
%TO.N,/BA1*%
X56028001Y-95207763D03*
X49528001Y-95207763D03*
%TD*%
%TO.P,SW9,1,1_1*%
%TO.N,GND*%
X66978001Y-86757763D03*
X60478001Y-86757763D03*
%TO.P,SW9,2,2_2*%
%TO.N,/BB0*%
X66978001Y-82257763D03*
X60478001Y-82257763D03*
%TD*%
%TO.P,SW4,1,1_1*%
%TO.N,GND*%
X46028001Y-109907763D03*
X39528001Y-109907763D03*
%TO.P,SW4,2,2_2*%
%TO.N,/BA3*%
X46028001Y-105407763D03*
X39528001Y-105407763D03*
%TD*%
D14*
%TO.P,SW12,*%
%TO.N,*%
X107850000Y-77542237D03*
X114850000Y-77542237D03*
D11*
%TO.P,SW12,1,1_1*%
%TO.N,/BB3*%
X109100000Y-75042237D03*
%TO.P,SW12,2,2_2*%
%TO.N,GND*%
X113600000Y-75042237D03*
%TD*%
D10*
%TO.P,J2,1,Pin_1_1*%
%TO.N,/GPIO 23*%
X91000000Y-60820000D03*
D11*
%TO.P,J2,2,Pin_2_2*%
%TO.N,unconnected-(J2-Pin_2-Pad2)*%
X91000000Y-58280000D03*
%TO.P,J2,3,Pin_3_3*%
%TO.N,unconnected-(J2-Pin_3-Pad3)*%
X91000000Y-55740000D03*
%TO.P,J2,4,Pin_4_4*%
%TO.N,unconnected-(J2-Pin_4-Pad4)*%
X91000000Y-53200000D03*
%TO.P,J2,5,Pin_5_5*%
%TO.N,/GPIO 21*%
X91000000Y-50660000D03*
%TO.P,J2,6,Pin_6_6*%
%TO.N,/GPIO 19*%
X91000000Y-48120000D03*
%TO.P,J2,7,Pin_7_7*%
%TO.N,/GPIO 18*%
X91000000Y-45580000D03*
%TO.P,J2,8,Pin_8_8*%
%TO.N,/GPIO 5*%
X91000000Y-43040000D03*
%TO.P,J2,9,Pin_9_9*%
%TO.N,unconnected-(J2-Pin_9-Pad9)*%
X91000000Y-40500000D03*
%TO.P,J2,10,Pin_10_10*%
%TO.N,unconnected-(J2-Pin_10-Pad10)*%
X91000000Y-37960000D03*
%TO.P,J2,11,Pin_11_11*%
%TO.N,/GPIO 4*%
X91000000Y-35420000D03*
%TO.P,J2,12,Pin_12_12*%
%TO.N,unconnected-(J2-Pin_12-Pad12)*%
X91000000Y-32880000D03*
%TO.P,J2,13,Pin_13_13*%
%TO.N,unconnected-(J2-Pin_13-Pad13)*%
X91000000Y-30340000D03*
%TO.P,J2,14,Pin_14_14*%
%TO.N,GND*%
X91000000Y-27800000D03*
%TO.P,J2,15,Pin_15_15*%
%TO.N,+3V3*%
X91000000Y-25260000D03*
%TD*%
D10*
%TO.P,J1,1,Pin_1_1*%
%TO.N,unconnected-(J1-Pin_1-Pad1)*%
X116400000Y-60820000D03*
D11*
%TO.P,J1,2,Pin_2_2*%
%TO.N,unconnected-(J1-Pin_2-Pad2)*%
X116400000Y-58280000D03*
%TO.P,J1,3,Pin_3_3*%
%TO.N,unconnected-(J1-Pin_3-Pad3)*%
X116400000Y-55740000D03*
%TO.P,J1,4,Pin_4_4*%
%TO.N,unconnected-(J1-Pin_4-Pad4)*%
X116400000Y-53200000D03*
%TO.P,J1,5,Pin_5_5*%
%TO.N,unconnected-(J1-Pin_5-Pad5)*%
X116400000Y-50660000D03*
%TO.P,J1,6,Pin_6_6*%
%TO.N,/GPIO 32*%
X116400000Y-48120000D03*
%TO.P,J1,7,Pin_7_7*%
%TO.N,/GPIO 33*%
X116400000Y-45580000D03*
%TO.P,J1,8,Pin_8_8*%
%TO.N,unconnected-(J1-Pin_8-Pad8)*%
X116400000Y-43040000D03*
%TO.P,J1,9,Pin_9_9*%
%TO.N,/GPIO 26*%
X116400000Y-40500000D03*
%TO.P,J1,10,Pin_10_10*%
%TO.N,/GPIO 27*%
X116400000Y-37960000D03*
%TO.P,J1,11,Pin_11_11*%
%TO.N,/GPIO 14*%
X116400000Y-35420000D03*
%TO.P,J1,12,Pin_12_12*%
%TO.N,unconnected-(J1-Pin_12-Pad12)*%
X116400000Y-32880000D03*
%TO.P,J1,13,Pin_13_13*%
%TO.N,unconnected-(J1-Pin_13-Pad13)*%
X116400000Y-30340000D03*
%TO.P,J1,14,Pin_14_14*%
%TO.N,unconnected-(J1-Pin_14-Pad14)*%
X116400000Y-27800000D03*
%TO.P,J1,15,Pin_15_15*%
%TO.N,+5V*%
X116400000Y-25260000D03*
%TD*%
D14*
%TO.P,SW11,*%
%TO.N,*%
X26350000Y-78117237D03*
X33350000Y-78117237D03*
D11*
%TO.P,SW11,1,1_1*%
%TO.N,/BB2*%
X27600000Y-75617237D03*
%TO.P,SW11,2,2_2*%
%TO.N,GND*%
X32100000Y-75617237D03*
%TD*%
D10*
%TO.P,J3,1,Pin_1_1*%
%TO.N,+3V3*%
X24460000Y-26140000D03*
D11*
%TO.P,J3,2,Pin_2_2*%
%TO.N,+5V*%
X24460000Y-23600000D03*
%TO.P,J3,3,Pin_3_3*%
%TO.N,unconnected-(J3-Pin_3-Pad3)*%
X27000000Y-26140000D03*
%TO.P,J3,4,Pin_4_4*%
%TO.N,+5V*%
X27000000Y-23600000D03*
%TO.P,J3,5,Pin_5_5*%
%TO.N,unconnected-(J3-Pin_5-Pad5)*%
X29540000Y-26140000D03*
%TO.P,J3,6,Pin_6_6*%
%TO.N,GND*%
X29540000Y-23600000D03*
%TO.P,J3,7,Pin_7_7*%
%TO.N,unconnected-(J3-Pin_7-Pad7)*%
X32080000Y-26140000D03*
%TO.P,J3,8,Pin_8_8*%
%TO.N,unconnected-(J3-Pin_8-Pad8)*%
X32080000Y-23600000D03*
%TO.P,J3,9,Pin_9_9*%
%TO.N,GND*%
X34620000Y-26140000D03*
%TO.P,J3,10,Pin_10_10*%
%TO.N,unconnected-(J3-Pin_10-Pad10)*%
X34620000Y-23600000D03*
%TO.P,J3,11,Pin_11_11*%
%TO.N,/GPIO 27*%
X37160000Y-26140000D03*
%TO.P,J3,12,Pin_12_12*%
%TO.N,unconnected-(J3-Pin_12-Pad12)*%
X37160000Y-23600000D03*
%TO.P,J3,13,Pin_13_13*%
%TO.N,/GPIO 4*%
X39700000Y-26140000D03*
%TO.P,J3,14,Pin_14_14*%
%TO.N,GND*%
X39700000Y-23600000D03*
%TO.P,J3,15,Pin_15_15*%
%TO.N,/GPIO 21*%
X42240000Y-26140000D03*
%TO.P,J3,16,Pin_16_16*%
%TO.N,unconnected-(J3-Pin_16-Pad16)*%
X42240000Y-23600000D03*
%TO.P,J3,17,Pin_17_17*%
%TO.N,unconnected-(J3-Pin_17-Pad17)*%
X44780000Y-26140000D03*
%TO.P,J3,18,Pin_18_18*%
%TO.N,unconnected-(J3-Pin_18-Pad18)*%
X44780000Y-23600000D03*
%TO.P,J3,19,Pin_19_19*%
%TO.N,/GPIO 23*%
X47320000Y-26140000D03*
%TO.P,J3,20,Pin_20_20*%
%TO.N,GND*%
X47320000Y-23600000D03*
%TO.P,J3,21,Pin_21_21*%
%TO.N,/GPIO 19*%
X49860000Y-26140000D03*
%TO.P,J3,22,Pin_22_22*%
%TO.N,unconnected-(J3-Pin_22-Pad22)*%
X49860000Y-23600000D03*
%TO.P,J3,23,Pin_23_23*%
%TO.N,/GPIO 18*%
X52400000Y-26140000D03*
%TO.P,J3,24,Pin_24_24*%
%TO.N,/GPIO 5*%
X52400000Y-23600000D03*
%TO.P,J3,25,Pin_25_25*%
%TO.N,GND*%
X54940000Y-26140000D03*
%TO.P,J3,26,Pin_26_26*%
%TO.N,/GPIO 26*%
X54940000Y-23600000D03*
%TD*%
D15*
%TO.N,/BA6*%
X115800000Y-95000000D03*
X61000000Y-77000000D03*
%TD*%
%TO.N,/BB3*%
D16*
X64800000Y-62306544D02*
X64800000Y-80800000D01*
X64800000Y-62306544D02*
X65231544Y-61875000D01*
X65231544Y-61875000D02*
X66100000Y-61875000D01*
X59178001Y-82796241D02*
X59178001Y-81719285D01*
X59981760Y-83600000D02*
X59178001Y-82796241D01*
X60097286Y-80800000D02*
X64800000Y-80800000D01*
X89800000Y-83600000D02*
X59981760Y-83600000D01*
X59178001Y-81719285D02*
X60097286Y-80800000D01*
X98357763Y-75042237D02*
X89800000Y-83600000D01*
X109100000Y-75042237D02*
X98357763Y-75042237D01*
%TO.N,/BA7*%
X59425000Y-63825000D02*
X59100000Y-63825000D01*
X60400000Y-64800000D02*
X59425000Y-63825000D01*
X60400000Y-79600000D02*
X60400000Y-64800000D01*
X59600231Y-79600000D02*
X60400000Y-79600000D01*
X57850000Y-81350230D02*
X59600231Y-79600000D01*
X57850000Y-83165297D02*
X57850000Y-81350230D01*
X59484702Y-84800000D02*
X57850000Y-83165297D01*
X88378001Y-87178001D02*
X86000000Y-84800000D01*
X88378001Y-96978001D02*
X88378001Y-87178001D01*
X88400000Y-97000000D02*
X88378001Y-96978001D01*
X95366479Y-97000000D02*
X88400000Y-97000000D01*
X99928001Y-105207763D02*
X99928001Y-101561522D01*
X99928001Y-101561522D02*
X95366479Y-97000000D01*
X86000000Y-84800000D02*
X59484702Y-84800000D01*
%TO.N,/BA3*%
X46028001Y-101369285D02*
X46028001Y-105407763D01*
X48989523Y-98407763D02*
X46028001Y-101369285D01*
X55757922Y-98407763D02*
X48989523Y-98407763D01*
X57000000Y-93775598D02*
X57728001Y-94503600D01*
X57728001Y-94503600D02*
X57728001Y-95911927D01*
X57000000Y-97165686D02*
X55757922Y-98407763D01*
X57000000Y-62375001D02*
X57000000Y-93775598D01*
X57000000Y-96639928D02*
X57000000Y-97165686D01*
X58150001Y-61225000D02*
X57000000Y-62375001D01*
X57728001Y-95911927D02*
X57000000Y-96639928D01*
X59100000Y-61225000D02*
X58150001Y-61225000D01*
%TO.N,/BA2*%
X36028001Y-97228001D02*
X36028001Y-95207763D01*
X36600000Y-97800000D02*
X36028001Y-97228001D01*
X55800000Y-97800000D02*
X36600000Y-97800000D01*
X57328001Y-95746241D02*
X56600000Y-96474242D01*
X56600000Y-97000000D02*
X55800000Y-97800000D01*
X56600000Y-93941284D02*
X57328001Y-94669285D01*
X56600000Y-96474242D02*
X56600000Y-97000000D01*
X56600000Y-62125001D02*
X56600000Y-93941284D01*
X57328001Y-94669285D02*
X57328001Y-95746241D01*
X58150001Y-60575000D02*
X56600000Y-62125001D01*
X59100000Y-60575000D02*
X58150001Y-60575000D01*
%TO.N,/BA5*%
X59765916Y-80000000D02*
X61475000Y-80000000D01*
X58250000Y-81515916D02*
X59765916Y-80000000D01*
X58250000Y-82999612D02*
X58250000Y-81515916D01*
X59650388Y-84400000D02*
X58250000Y-82999612D01*
X97400000Y-93928001D02*
X97400000Y-84400000D01*
X97400000Y-84400000D02*
X59650388Y-84400000D01*
X61475000Y-80000000D02*
X61675000Y-79800000D01*
X96178001Y-95150000D02*
X97400000Y-93928001D01*
%TO.N,/BA4*%
X62075000Y-61875000D02*
X59100000Y-61875000D01*
X62075000Y-80125000D02*
X62075000Y-61875000D01*
X59931601Y-80400000D02*
X61800000Y-80400000D01*
X58778001Y-81553599D02*
X59931601Y-80400000D01*
X58778001Y-82961926D02*
X58778001Y-81553599D01*
X61800000Y-80400000D02*
X62075000Y-80125000D01*
X59816074Y-84000000D02*
X58778001Y-82961926D01*
X99200000Y-84000000D02*
X59816074Y-84000000D01*
X99200000Y-84479762D02*
X99200000Y-84000000D01*
X100078001Y-85357763D02*
X99200000Y-84479762D01*
%TO.N,/BB0*%
X66867524Y-82368240D02*
X66978001Y-82257763D01*
X60588478Y-82368240D02*
X66867524Y-82368240D01*
X60478001Y-82257763D02*
X60588478Y-82368240D01*
%TO.N,/BA7*%
X99928001Y-105207763D02*
X106428001Y-105207763D01*
%TO.N,/BB1*%
X79328001Y-82207763D02*
X85828001Y-82207763D01*
%TO.N,/GPIO 27*%
X55610000Y-44590000D02*
X37160000Y-26140000D01*
X80763654Y-44590000D02*
X55610000Y-44590000D01*
X90573654Y-54400000D02*
X80763654Y-44590000D01*
X92000000Y-54400000D02*
X90573654Y-54400000D01*
X116876346Y-41650000D02*
X104750000Y-41650000D01*
X117550000Y-40976346D02*
X116876346Y-41650000D01*
X117550000Y-39110000D02*
X117550000Y-40976346D01*
X104750000Y-41650000D02*
X92000000Y-54400000D01*
X116400000Y-37960000D02*
X117550000Y-39110000D01*
%TO.N,+3V3*%
X70613456Y-61970000D02*
X117550000Y-61970000D01*
X119200000Y-60320000D02*
X119200000Y-24086346D01*
X65081544Y-58475000D02*
X67118456Y-58475000D01*
X63931544Y-57325000D02*
X65081544Y-58475000D01*
X117550000Y-61970000D02*
X119200000Y-60320000D01*
X59100000Y-57325000D02*
X63931544Y-57325000D01*
X67118456Y-58475000D02*
X70613456Y-61970000D01*
%TO.N,/GPIO 33*%
X78796728Y-46796728D02*
X76196728Y-46796728D01*
X89130000Y-57130000D02*
X78796728Y-46796728D01*
X104850000Y-57130000D02*
X89130000Y-57130000D01*
X116400000Y-45580000D02*
X104850000Y-57130000D01*
%TO.N,GND*%
X30740000Y-24800000D02*
X29540000Y-23600000D01*
X34620000Y-26140000D02*
X33280000Y-24800000D01*
X33280000Y-24800000D02*
X30740000Y-24800000D01*
%TO.N,/GPIO 4*%
X57750000Y-44190000D02*
X39700000Y-26140000D01*
X91476346Y-44190000D02*
X57750000Y-44190000D01*
X92150000Y-43516346D02*
X91476346Y-44190000D01*
X92150000Y-36570000D02*
X92150000Y-43516346D01*
X91000000Y-35420000D02*
X92150000Y-36570000D01*
%TO.N,/GPIO 5*%
X73706346Y-43040000D02*
X91000000Y-43040000D01*
X54463654Y-24750000D02*
X55416346Y-24750000D01*
X55416346Y-24750000D02*
X73706346Y-43040000D01*
X53313654Y-23600000D02*
X54463654Y-24750000D01*
X52400000Y-23600000D02*
X53313654Y-23600000D01*
%TO.N,GND*%
X53550000Y-24750000D02*
X54940000Y-26140000D01*
X48470000Y-24750000D02*
X53550000Y-24750000D01*
X47320000Y-23600000D02*
X48470000Y-24750000D01*
%TO.N,/GPIO 26*%
X65553654Y-34213654D02*
X54940000Y-23600000D01*
X110113654Y-34213654D02*
X65553654Y-34213654D01*
X116400000Y-40500000D02*
X110113654Y-34213654D01*
%TO.N,/BA6*%
X115800000Y-95000000D02*
X117500000Y-95000000D01*
X117500000Y-95000000D02*
X117650000Y-95150000D01*
X61000000Y-64125001D02*
X61000000Y-77000000D01*
X60049999Y-63175000D02*
X61000000Y-64125001D01*
X59100000Y-63175000D02*
X60049999Y-63175000D01*
%TO.N,/BA5*%
X96178001Y-95150000D02*
X89678001Y-95150000D01*
X61675000Y-64150001D02*
X61675000Y-79800000D01*
X60049999Y-62525000D02*
X61675000Y-64150001D01*
X59100000Y-62525000D02*
X60049999Y-62525000D01*
%TO.N,/BA4*%
X100078001Y-85357763D02*
X106578001Y-85357763D01*
%TO.N,+3V3*%
X21928001Y-104740000D02*
X23078001Y-105890000D01*
X21928001Y-85071999D02*
X21928001Y-104740000D01*
X24460000Y-70850891D02*
X28750000Y-75140891D01*
X24460000Y-26140000D02*
X24460000Y-70850891D01*
X28750000Y-75140891D02*
X28750000Y-78250000D01*
X28750000Y-78250000D02*
X21928001Y-85071999D01*
%TO.N,/BA0*%
X39478001Y-85257763D02*
X45978001Y-85257763D01*
%TO.N,/BA1*%
X49528001Y-95207763D02*
X56028001Y-95207763D01*
%TO.N,/BA3*%
X39528001Y-105407763D02*
X46028001Y-105407763D01*
%TO.N,GND*%
X39478001Y-89757763D02*
X45978001Y-89757763D01*
X36045764Y-93190000D02*
X23078001Y-93190000D01*
X39478001Y-89757763D02*
X36045764Y-93190000D01*
%TO.N,/BA2*%
X36028001Y-95207763D02*
X29528001Y-95207763D01*
%TO.N,/BA1*%
X49528001Y-68547000D02*
X49528001Y-95207763D01*
X58150001Y-59925000D02*
X49528001Y-68547000D01*
X59100000Y-59925000D02*
X58150001Y-59925000D01*
%TO.N,/BA0*%
X58150001Y-59275000D02*
X45978001Y-71447000D01*
X45978001Y-71447000D02*
X45978001Y-85257763D01*
X59100000Y-59275000D02*
X58150001Y-59275000D01*
%TO.N,/BB2*%
X20800000Y-76600000D02*
X26617237Y-76600000D01*
X20800000Y-107400000D02*
X20800000Y-76600000D01*
X25200000Y-111800000D02*
X20800000Y-107400000D01*
X119600000Y-111800000D02*
X25200000Y-111800000D01*
X119600000Y-66800000D02*
X119600000Y-111800000D01*
X115325000Y-62525000D02*
X119600000Y-66800000D01*
X66100000Y-62525000D02*
X115325000Y-62525000D01*
X26617237Y-76600000D02*
X27600000Y-75617237D01*
%TO.N,/BB1*%
X79328001Y-75453002D02*
X79328001Y-82207763D01*
X67049999Y-63175000D02*
X79328001Y-75453002D01*
X66100000Y-63175000D02*
X67049999Y-63175000D01*
%TO.N,/BB0*%
X66978001Y-64703001D02*
X66978001Y-82257763D01*
X66100000Y-63825000D02*
X66978001Y-64703001D01*
%TO.N,/GPIO 32*%
X117800000Y-49520000D02*
X116400000Y-48120000D01*
X92630000Y-59430000D02*
X117800000Y-59430000D01*
X92600000Y-59400000D02*
X92630000Y-59430000D01*
X92570000Y-59430000D02*
X92600000Y-59400000D01*
X90430000Y-59430000D02*
X92570000Y-59430000D01*
X66100000Y-56675000D02*
X87675000Y-56675000D01*
X87675000Y-56675000D02*
X90430000Y-59430000D01*
X117800000Y-59430000D02*
X117800000Y-49520000D01*
%TO.N,/GPIO 33*%
X66968456Y-56025000D02*
X76196728Y-46796728D01*
X66100000Y-56025000D02*
X66968456Y-56025000D01*
%TO.N,+3V3*%
X89950000Y-28950000D02*
X113383654Y-28950000D01*
X63931544Y-57325000D02*
X65231544Y-58625000D01*
X65231544Y-58625000D02*
X66100000Y-58625000D01*
%TO.N,GND*%
X65231544Y-57975000D02*
X66100000Y-57975000D01*
X63931544Y-56675000D02*
X65231544Y-57975000D01*
X59100000Y-56675000D02*
X63931544Y-56675000D01*
X59100000Y-56675000D02*
X59100000Y-56025000D01*
X59100000Y-55375000D02*
X59100000Y-56025000D01*
X52342237Y-55375000D02*
X32100000Y-75617237D01*
X59100000Y-55375000D02*
X52342237Y-55375000D01*
X107878001Y-80764236D02*
X113600000Y-75042237D01*
X107878001Y-88557763D02*
X107878001Y-80764236D01*
X106578001Y-89857763D02*
X107878001Y-88557763D01*
X106578001Y-89857763D02*
X100078001Y-89857763D01*
X111150000Y-99650000D02*
X106578001Y-95078001D01*
X106578001Y-95078001D02*
X106578001Y-89857763D01*
X111150000Y-99650000D02*
X117650000Y-99650000D01*
X111150000Y-104985764D02*
X111150000Y-99650000D01*
X106428001Y-109707763D02*
X111150000Y-104985764D01*
X99928001Y-109707763D02*
X106428001Y-109707763D01*
X96178001Y-105957763D02*
X99928001Y-109707763D01*
X96178001Y-99650000D02*
X96178001Y-105957763D01*
X89678001Y-99650000D02*
X96178001Y-99650000D01*
X85828001Y-86707763D02*
X85828001Y-95800000D01*
X85828001Y-95800000D02*
X89678001Y-99650000D01*
X79328001Y-86707763D02*
X85828001Y-86707763D01*
X79278001Y-86757763D02*
X79328001Y-86707763D01*
X66978001Y-86757763D02*
X79278001Y-86757763D01*
X60478001Y-86757763D02*
X66978001Y-86757763D01*
X56028001Y-99707763D02*
X60478001Y-95257763D01*
X60478001Y-95257763D02*
X60478001Y-86757763D01*
X49528001Y-99707763D02*
X56028001Y-99707763D01*
X49528001Y-106407763D02*
X49528001Y-99707763D01*
X46028001Y-109907763D02*
X49528001Y-106407763D01*
X39528001Y-109907763D02*
X46028001Y-109907763D01*
X36028001Y-106407763D02*
X39528001Y-109907763D01*
X36028001Y-99707763D02*
X36028001Y-106407763D01*
X29528001Y-99707763D02*
X36028001Y-99707763D01*
X23078001Y-93190000D02*
X23078001Y-93257763D01*
X23078001Y-93257763D02*
X29528001Y-99707763D01*
X23078001Y-84639236D02*
X23078001Y-93190000D01*
X32100000Y-75617237D02*
X23078001Y-84639236D01*
X28390000Y-71907237D02*
X32100000Y-75617237D01*
X28390000Y-24750000D02*
X28390000Y-71907237D01*
X29540000Y-23600000D02*
X28390000Y-24750000D01*
X47320000Y-21080000D02*
X47320000Y-23600000D01*
X47400000Y-21000000D02*
X47320000Y-21080000D01*
X47400000Y-21000000D02*
X93600000Y-21000000D01*
X39400000Y-21000000D02*
X39700000Y-21300000D01*
X39400000Y-21000000D02*
X47400000Y-21000000D01*
X39700000Y-21300000D02*
X39700000Y-23600000D01*
%TO.N,+3V3*%
X23310000Y-24990000D02*
X24460000Y-26140000D01*
X23310000Y-23123654D02*
X23310000Y-24990000D01*
X119200000Y-20200000D02*
X26233654Y-20200000D01*
X119200000Y-24086346D02*
X119200000Y-20200000D01*
X26233654Y-20200000D02*
X23310000Y-23123654D01*
%TO.N,+5V*%
X118600000Y-23060000D02*
X116400000Y-25260000D01*
X118600000Y-20600000D02*
X118600000Y-23060000D01*
X27000000Y-20600000D02*
X118600000Y-20600000D01*
X27000000Y-23600000D02*
X27000000Y-20600000D01*
%TO.N,GND*%
X93600000Y-25200000D02*
X91000000Y-27800000D01*
X29600000Y-21200000D02*
X29600000Y-21000000D01*
X29600000Y-21000000D02*
X39400000Y-21000000D01*
X93600000Y-21000000D02*
X93600000Y-25200000D01*
X29540000Y-21260000D02*
X29600000Y-21200000D01*
X29540000Y-23600000D02*
X29540000Y-21260000D01*
%TO.N,+3V3*%
X115923654Y-26410000D02*
X116876346Y-26410000D01*
X113383654Y-28950000D02*
X115923654Y-26410000D01*
X89600000Y-28600000D02*
X89950000Y-28950000D01*
X89600000Y-26660000D02*
X89600000Y-28600000D01*
X116876346Y-26410000D02*
X119200000Y-24086346D01*
X91000000Y-25260000D02*
X89600000Y-26660000D01*
%TO.N,+5V*%
X27000000Y-23600000D02*
X24460000Y-23600000D01*
%TD*%
%TA.AperFunction,NonConductor*%
G36*
X46662539Y-21620185D02*
G01*
X46708294Y-21672989D01*
X46719500Y-21724500D01*
X46719500Y-22314281D01*
X46699815Y-22381320D01*
X46651795Y-22424765D01*
X46612185Y-22444947D01*
X46612184Y-22444948D01*
X46440213Y-22569890D01*
X46289890Y-22720213D01*
X46164949Y-22892182D01*
X46160484Y-22900946D01*
X46112509Y-22951742D01*
X46044688Y-22968536D01*
X45978553Y-22945998D01*
X45939516Y-22900946D01*
X45935050Y-22892182D01*
X45810109Y-22720213D01*
X45659786Y-22569890D01*
X45487820Y-22444951D01*
X45298414Y-22348444D01*
X45298413Y-22348443D01*
X45298412Y-22348443D01*
X45096243Y-22282754D01*
X45096241Y-22282753D01*
X45096240Y-22282753D01*
X44934957Y-22257208D01*
X44886287Y-22249500D01*
X44673713Y-22249500D01*
X44625042Y-22257208D01*
X44463760Y-22282753D01*
X44261585Y-22348444D01*
X44072179Y-22444951D01*
X43900213Y-22569890D01*
X43749890Y-22720213D01*
X43624949Y-22892182D01*
X43620484Y-22900946D01*
X43572509Y-22951742D01*
X43504688Y-22968536D01*
X43438553Y-22945998D01*
X43399516Y-22900946D01*
X43395050Y-22892182D01*
X43270109Y-22720213D01*
X43119786Y-22569890D01*
X42947820Y-22444951D01*
X42758414Y-22348444D01*
X42758413Y-22348443D01*
X42758412Y-22348443D01*
X42556243Y-22282754D01*
X42556241Y-22282753D01*
X42556240Y-22282753D01*
X42394957Y-22257208D01*
X42346287Y-22249500D01*
X42133713Y-22249500D01*
X42085042Y-22257208D01*
X41923760Y-22282753D01*
X41721585Y-22348444D01*
X41532179Y-22444951D01*
X41360213Y-22569890D01*
X41209890Y-22720213D01*
X41084949Y-22892182D01*
X41080484Y-22900946D01*
X41032509Y-22951742D01*
X40964688Y-22968536D01*
X40898553Y-22945998D01*
X40859516Y-22900946D01*
X40855050Y-22892182D01*
X40730109Y-22720213D01*
X40579786Y-22569890D01*
X40407815Y-22444948D01*
X40407814Y-22444947D01*
X40368205Y-22424765D01*
X40317409Y-22376791D01*
X40300500Y-22314281D01*
X40300500Y-21724500D01*
X40320185Y-21657461D01*
X40372989Y-21611706D01*
X40424500Y-21600500D01*
X46595500Y-21600500D01*
X46662539Y-21620185D01*
G37*
%TD.AperFunction*%
%TA.AperFunction,NonConductor*%
G36*
X39042539Y-21620185D02*
G01*
X39088294Y-21672989D01*
X39099500Y-21724500D01*
X39099500Y-22314281D01*
X39079815Y-22381320D01*
X39031795Y-22424765D01*
X38992185Y-22444947D01*
X38992184Y-22444948D01*
X38820213Y-22569890D01*
X38669890Y-22720213D01*
X38544949Y-22892182D01*
X38540484Y-22900946D01*
X38492509Y-22951742D01*
X38424688Y-22968536D01*
X38358553Y-22945998D01*
X38319516Y-22900946D01*
X38315050Y-22892182D01*
X38190109Y-22720213D01*
X38039786Y-22569890D01*
X37867820Y-22444951D01*
X37678414Y-22348444D01*
X37678413Y-22348443D01*
X37678412Y-22348443D01*
X37476243Y-22282754D01*
X37476241Y-22282753D01*
X37476240Y-22282753D01*
X37314957Y-22257208D01*
X37266287Y-22249500D01*
X37053713Y-22249500D01*
X37005042Y-22257208D01*
X36843760Y-22282753D01*
X36641585Y-22348444D01*
X36452179Y-22444951D01*
X36280213Y-22569890D01*
X36129890Y-22720213D01*
X36004949Y-22892182D01*
X36000484Y-22900946D01*
X35952509Y-22951742D01*
X35884688Y-22968536D01*
X35818553Y-22945998D01*
X35779516Y-22900946D01*
X35775050Y-22892182D01*
X35650109Y-22720213D01*
X35499786Y-22569890D01*
X35327820Y-22444951D01*
X35138414Y-22348444D01*
X35138413Y-22348443D01*
X35138412Y-22348443D01*
X34936243Y-22282754D01*
X34936241Y-22282753D01*
X34936240Y-22282753D01*
X34774957Y-22257208D01*
X34726287Y-22249500D01*
X34513713Y-22249500D01*
X34465042Y-22257208D01*
X34303760Y-22282753D01*
X34101585Y-22348444D01*
X33912179Y-22444951D01*
X33740213Y-22569890D01*
X33589890Y-22720213D01*
X33464949Y-22892182D01*
X33460484Y-22900946D01*
X33412509Y-22951742D01*
X33344688Y-22968536D01*
X33278553Y-22945998D01*
X33239516Y-22900946D01*
X33235050Y-22892182D01*
X33110109Y-22720213D01*
X32959786Y-22569890D01*
X32787820Y-22444951D01*
X32598414Y-22348444D01*
X32598413Y-22348443D01*
X32598412Y-22348443D01*
X32396243Y-22282754D01*
X32396241Y-22282753D01*
X32396240Y-22282753D01*
X32234957Y-22257208D01*
X32186287Y-22249500D01*
X31973713Y-22249500D01*
X31925042Y-22257208D01*
X31763760Y-22282753D01*
X31561585Y-22348444D01*
X31372179Y-22444951D01*
X31200213Y-22569890D01*
X31049890Y-22720213D01*
X30924949Y-22892182D01*
X30920484Y-22900946D01*
X30872509Y-22951742D01*
X30804688Y-22968536D01*
X30738553Y-22945998D01*
X30699516Y-22900946D01*
X30695050Y-22892182D01*
X30570109Y-22720213D01*
X30419786Y-22569890D01*
X30247815Y-22444948D01*
X30247814Y-22444947D01*
X30208205Y-22424765D01*
X30157409Y-22376791D01*
X30140500Y-22314281D01*
X30140500Y-21724500D01*
X30160185Y-21657461D01*
X30212989Y-21611706D01*
X30264500Y-21600500D01*
X38975500Y-21600500D01*
X39042539Y-21620185D01*
G37*
%TD.AperFunction*%
%TA.AperFunction,NonConductor*%
G36*
X28882538Y-21220185D02*
G01*
X28928293Y-21272989D01*
X28939499Y-21324500D01*
X28939499Y-21349046D01*
X28939500Y-21349059D01*
X28939500Y-22314281D01*
X28919815Y-22381320D01*
X28871795Y-22424765D01*
X28832185Y-22444947D01*
X28832184Y-22444948D01*
X28660213Y-22569890D01*
X28509890Y-22720213D01*
X28384949Y-22892182D01*
X28380484Y-22900946D01*
X28332509Y-22951742D01*
X28264688Y-22968536D01*
X28198553Y-22945998D01*
X28159516Y-22900946D01*
X28155050Y-22892182D01*
X28030109Y-22720213D01*
X27879786Y-22569890D01*
X27707815Y-22444948D01*
X27707814Y-22444947D01*
X27668205Y-22424765D01*
X27617409Y-22376791D01*
X27600500Y-22314281D01*
X27600500Y-21324500D01*
X27620185Y-21257461D01*
X27672989Y-21211706D01*
X27724500Y-21200500D01*
X28815499Y-21200500D01*
X28882538Y-21220185D01*
G37*
%TD.AperFunction*%
%TA.AperFunction,NonConductor*%
G36*
X26318834Y-21066568D02*
G01*
X26374767Y-21108440D01*
X26399184Y-21173904D01*
X26399500Y-21182750D01*
X26399500Y-22314281D01*
X26379815Y-22381320D01*
X26331795Y-22424765D01*
X26292185Y-22444947D01*
X26292184Y-22444948D01*
X26120213Y-22569890D01*
X25969890Y-22720213D01*
X25844949Y-22892182D01*
X25840484Y-22900946D01*
X25792509Y-22951742D01*
X25724688Y-22968536D01*
X25658553Y-22945998D01*
X25619516Y-22900946D01*
X25615050Y-22892182D01*
X25490109Y-22720213D01*
X25339786Y-22569890D01*
X25167820Y-22444951D01*
X25101354Y-22411085D01*
X25050558Y-22363110D01*
X25033763Y-22295289D01*
X25056300Y-22229154D01*
X25069962Y-22212925D01*
X26187820Y-21095067D01*
X26249142Y-21061584D01*
X26318834Y-21066568D01*
G37*
%TD.AperFunction*%
%TA.AperFunction,NonConductor*%
G36*
X25801444Y-24253999D02*
G01*
X25840486Y-24299056D01*
X25844951Y-24307820D01*
X25969890Y-24479786D01*
X26120213Y-24630109D01*
X26292182Y-24755050D01*
X26300946Y-24759516D01*
X26351742Y-24807491D01*
X26368536Y-24875312D01*
X26345998Y-24941447D01*
X26300946Y-24980484D01*
X26292182Y-24984949D01*
X26120215Y-25109889D01*
X26006673Y-25223431D01*
X25945350Y-25256915D01*
X25875658Y-25251931D01*
X25819725Y-25210059D01*
X25802810Y-25179082D01*
X25753797Y-25047671D01*
X25753793Y-25047664D01*
X25667547Y-24932455D01*
X25667544Y-24932452D01*
X25552335Y-24846206D01*
X25552328Y-24846202D01*
X25420917Y-24797189D01*
X25364983Y-24755318D01*
X25340566Y-24689853D01*
X25355418Y-24621580D01*
X25376563Y-24593332D01*
X25490104Y-24479792D01*
X25615051Y-24307816D01*
X25619514Y-24299055D01*
X25667488Y-24248259D01*
X25735308Y-24231463D01*
X25801444Y-24253999D01*
G37*
%TD.AperFunction*%
%TA.AperFunction,NonConductor*%
G36*
X46121444Y-24253999D02*
G01*
X46160486Y-24299056D01*
X46164951Y-24307820D01*
X46289890Y-24479786D01*
X46440213Y-24630109D01*
X46612182Y-24755050D01*
X46620946Y-24759516D01*
X46671742Y-24807491D01*
X46688536Y-24875312D01*
X46665998Y-24941447D01*
X46620946Y-24980484D01*
X46612182Y-24984949D01*
X46440213Y-25109890D01*
X46289890Y-25260213D01*
X46164949Y-25432182D01*
X46160484Y-25440946D01*
X46112509Y-25491742D01*
X46044688Y-25508536D01*
X45978553Y-25485998D01*
X45939516Y-25440946D01*
X45935050Y-25432182D01*
X45810109Y-25260213D01*
X45659786Y-25109890D01*
X45487820Y-24984951D01*
X45487115Y-24984591D01*
X45479054Y-24980485D01*
X45428259Y-24932512D01*
X45411463Y-24864692D01*
X45433999Y-24798556D01*
X45479054Y-24759515D01*
X45487816Y-24755051D01*
X45509789Y-24739086D01*
X45659786Y-24630109D01*
X45659788Y-24630106D01*
X45659792Y-24630104D01*
X45810104Y-24479792D01*
X45810106Y-24479788D01*
X45810109Y-24479786D01*
X45935048Y-24307820D01*
X45935047Y-24307820D01*
X45935051Y-24307816D01*
X45939514Y-24299054D01*
X45987488Y-24248259D01*
X46055308Y-24231463D01*
X46121444Y-24253999D01*
G37*
%TD.AperFunction*%
%TA.AperFunction,NonConductor*%
G36*
X43581444Y-24253999D02*
G01*
X43620486Y-24299056D01*
X43624951Y-24307820D01*
X43749890Y-24479786D01*
X43900213Y-24630109D01*
X44072182Y-24755050D01*
X44080946Y-24759516D01*
X44131742Y-24807491D01*
X44148536Y-24875312D01*
X44125998Y-24941447D01*
X44080946Y-24980484D01*
X44072182Y-24984949D01*
X43900213Y-25109890D01*
X43749890Y-25260213D01*
X43624949Y-25432182D01*
X43620484Y-25440946D01*
X43572509Y-25491742D01*
X43504688Y-25508536D01*
X43438553Y-25485998D01*
X43399516Y-25440946D01*
X43395050Y-25432182D01*
X43270109Y-25260213D01*
X43119786Y-25109890D01*
X42947820Y-24984951D01*
X42947115Y-24984591D01*
X42939054Y-24980485D01*
X42888259Y-24932512D01*
X42871463Y-24864692D01*
X42893999Y-24798556D01*
X42939054Y-24759515D01*
X42947816Y-24755051D01*
X42969789Y-24739086D01*
X43119786Y-24630109D01*
X43119788Y-24630106D01*
X43119792Y-24630104D01*
X43270104Y-24479792D01*
X43270106Y-24479788D01*
X43270109Y-24479786D01*
X43395048Y-24307820D01*
X43395047Y-24307820D01*
X43395051Y-24307816D01*
X43399514Y-24299054D01*
X43447488Y-24248259D01*
X43515308Y-24231463D01*
X43581444Y-24253999D01*
G37*
%TD.AperFunction*%
%TA.AperFunction,NonConductor*%
G36*
X41041444Y-24253999D02*
G01*
X41080486Y-24299056D01*
X41084951Y-24307820D01*
X41209890Y-24479786D01*
X41360213Y-24630109D01*
X41532182Y-24755050D01*
X41540946Y-24759516D01*
X41591742Y-24807491D01*
X41608536Y-24875312D01*
X41585998Y-24941447D01*
X41540946Y-24980484D01*
X41532182Y-24984949D01*
X41360213Y-25109890D01*
X41209890Y-25260213D01*
X41084949Y-25432182D01*
X41080484Y-25440946D01*
X41032509Y-25491742D01*
X40964688Y-25508536D01*
X40898553Y-25485998D01*
X40859516Y-25440946D01*
X40855050Y-25432182D01*
X40730109Y-25260213D01*
X40579786Y-25109890D01*
X40407820Y-24984951D01*
X40407115Y-24984591D01*
X40399054Y-24980485D01*
X40348259Y-24932512D01*
X40331463Y-24864692D01*
X40353999Y-24798556D01*
X40399054Y-24759515D01*
X40407816Y-24755051D01*
X40429789Y-24739086D01*
X40579786Y-24630109D01*
X40579788Y-24630106D01*
X40579792Y-24630104D01*
X40730104Y-24479792D01*
X40730106Y-24479788D01*
X40730109Y-24479786D01*
X40855048Y-24307820D01*
X40855047Y-24307820D01*
X40855051Y-24307816D01*
X40859514Y-24299054D01*
X40907488Y-24248259D01*
X40975308Y-24231463D01*
X41041444Y-24253999D01*
G37*
%TD.AperFunction*%
%TA.AperFunction,NonConductor*%
G36*
X38501444Y-24253999D02*
G01*
X38540486Y-24299056D01*
X38544951Y-24307820D01*
X38669890Y-24479786D01*
X38820213Y-24630109D01*
X38992182Y-24755050D01*
X39000946Y-24759516D01*
X39051742Y-24807491D01*
X39068536Y-24875312D01*
X39045998Y-24941447D01*
X39000946Y-24980484D01*
X38992182Y-24984949D01*
X38820213Y-25109890D01*
X38669890Y-25260213D01*
X38544949Y-25432182D01*
X38540484Y-25440946D01*
X38492509Y-25491742D01*
X38424688Y-25508536D01*
X38358553Y-25485998D01*
X38319516Y-25440946D01*
X38315050Y-25432182D01*
X38190109Y-25260213D01*
X38039786Y-25109890D01*
X37867820Y-24984951D01*
X37867115Y-24984591D01*
X37859054Y-24980485D01*
X37808259Y-24932512D01*
X37791463Y-24864692D01*
X37813999Y-24798556D01*
X37859054Y-24759515D01*
X37867816Y-24755051D01*
X37889789Y-24739086D01*
X38039786Y-24630109D01*
X38039788Y-24630106D01*
X38039792Y-24630104D01*
X38190104Y-24479792D01*
X38190106Y-24479788D01*
X38190109Y-24479786D01*
X38315048Y-24307820D01*
X38315047Y-24307820D01*
X38315051Y-24307816D01*
X38319514Y-24299054D01*
X38367488Y-24248259D01*
X38435308Y-24231463D01*
X38501444Y-24253999D01*
G37*
%TD.AperFunction*%
%TA.AperFunction,NonConductor*%
G36*
X35961444Y-24253999D02*
G01*
X36000486Y-24299056D01*
X36004951Y-24307820D01*
X36129890Y-24479786D01*
X36280213Y-24630109D01*
X36452182Y-24755050D01*
X36460946Y-24759516D01*
X36511742Y-24807491D01*
X36528536Y-24875312D01*
X36505998Y-24941447D01*
X36460946Y-24980484D01*
X36452182Y-24984949D01*
X36280213Y-25109890D01*
X36129890Y-25260213D01*
X36004949Y-25432182D01*
X36000484Y-25440946D01*
X35952509Y-25491742D01*
X35884688Y-25508536D01*
X35818553Y-25485998D01*
X35779516Y-25440946D01*
X35775050Y-25432182D01*
X35650109Y-25260213D01*
X35499786Y-25109890D01*
X35327820Y-24984951D01*
X35327115Y-24984591D01*
X35319054Y-24980485D01*
X35268259Y-24932512D01*
X35251463Y-24864692D01*
X35273999Y-24798556D01*
X35319054Y-24759515D01*
X35327816Y-24755051D01*
X35349789Y-24739086D01*
X35499786Y-24630109D01*
X35499788Y-24630106D01*
X35499792Y-24630104D01*
X35650104Y-24479792D01*
X35650106Y-24479788D01*
X35650109Y-24479786D01*
X35775048Y-24307820D01*
X35775047Y-24307820D01*
X35775051Y-24307816D01*
X35779514Y-24299054D01*
X35827488Y-24248259D01*
X35895308Y-24231463D01*
X35961444Y-24253999D01*
G37*
%TD.AperFunction*%
%TA.AperFunction,NonConductor*%
G36*
X117942539Y-21220185D02*
G01*
X117988294Y-21272989D01*
X117999500Y-21324500D01*
X117999500Y-22759902D01*
X117979815Y-22826941D01*
X117963181Y-22847583D01*
X116884522Y-23926241D01*
X116823199Y-23959726D01*
X116758523Y-23956491D01*
X116716245Y-23942754D01*
X116548841Y-23916240D01*
X116506287Y-23909500D01*
X116293713Y-23909500D01*
X116251159Y-23916240D01*
X116083760Y-23942753D01*
X115881585Y-24008444D01*
X115692179Y-24104951D01*
X115520213Y-24229890D01*
X115369890Y-24380213D01*
X115244951Y-24552179D01*
X115148444Y-24741585D01*
X115082753Y-24943760D01*
X115049500Y-25153713D01*
X115049500Y-25366286D01*
X115081561Y-25568716D01*
X115082754Y-25576243D01*
X115142828Y-25761132D01*
X115148444Y-25778414D01*
X115244948Y-25967814D01*
X115244949Y-25967816D01*
X115297013Y-26039477D01*
X115320492Y-26105283D01*
X115304666Y-26173337D01*
X115284375Y-26200042D01*
X113171238Y-28313181D01*
X113109915Y-28346666D01*
X113083557Y-28349500D01*
X92412127Y-28349500D01*
X92345088Y-28329815D01*
X92299333Y-28277011D01*
X92289389Y-28207853D01*
X92294196Y-28187182D01*
X92317246Y-28116243D01*
X92350500Y-27906287D01*
X92350500Y-27693713D01*
X92317246Y-27483757D01*
X92303506Y-27441473D01*
X92301512Y-27371635D01*
X92333755Y-27315478D01*
X93958506Y-25690728D01*
X93958511Y-25690724D01*
X93968714Y-25680520D01*
X93968716Y-25680520D01*
X94080520Y-25568716D01*
X94137213Y-25470520D01*
X94159577Y-25431785D01*
X94200500Y-25279058D01*
X94200500Y-25120943D01*
X94200500Y-21324500D01*
X94220185Y-21257461D01*
X94272989Y-21211706D01*
X94324500Y-21200500D01*
X117875500Y-21200500D01*
X117942539Y-21220185D01*
G37*
%TD.AperFunction*%
%TA.AperFunction,NonConductor*%
G36*
X92942539Y-21620185D02*
G01*
X92988294Y-21672989D01*
X92999500Y-21724500D01*
X92999500Y-24899902D01*
X92979815Y-24966941D01*
X92963181Y-24987583D01*
X92562181Y-25388583D01*
X92500858Y-25422068D01*
X92431166Y-25417084D01*
X92375233Y-25375212D01*
X92350816Y-25309748D01*
X92350500Y-25300902D01*
X92350500Y-25153713D01*
X92324187Y-24987583D01*
X92317246Y-24943757D01*
X92251557Y-24741588D01*
X92155051Y-24552184D01*
X92155049Y-24552181D01*
X92155048Y-24552179D01*
X92030109Y-24380213D01*
X91879786Y-24229890D01*
X91707820Y-24104951D01*
X91518414Y-24008444D01*
X91518413Y-24008443D01*
X91518412Y-24008443D01*
X91316243Y-23942754D01*
X91316241Y-23942753D01*
X91316240Y-23942753D01*
X91148841Y-23916240D01*
X91106287Y-23909500D01*
X90893713Y-23909500D01*
X90851159Y-23916240D01*
X90683760Y-23942753D01*
X90481585Y-24008444D01*
X90292179Y-24104951D01*
X90120213Y-24229890D01*
X89969890Y-24380213D01*
X89844951Y-24552179D01*
X89748444Y-24741585D01*
X89682753Y-24943760D01*
X89649500Y-25153713D01*
X89649500Y-25366286D01*
X89682754Y-25576244D01*
X89682754Y-25576247D01*
X89696491Y-25618523D01*
X89698486Y-25688364D01*
X89666241Y-25744522D01*
X89231286Y-26179478D01*
X89119481Y-26291282D01*
X89119480Y-26291284D01*
X89073003Y-26371785D01*
X89040423Y-26428215D01*
X88999499Y-26580943D01*
X88999499Y-26580945D01*
X88999499Y-26749046D01*
X88999500Y-26749059D01*
X88999500Y-28513330D01*
X88999499Y-28513348D01*
X88999499Y-28679054D01*
X88999498Y-28679054D01*
X89040424Y-28831789D01*
X89040425Y-28831790D01*
X89063030Y-28870942D01*
X89063031Y-28870944D01*
X89119475Y-28968709D01*
X89119479Y-28968714D01*
X89119480Y-28968716D01*
X89231284Y-29080520D01*
X89231285Y-29080521D01*
X89581284Y-29430520D01*
X89581286Y-29430521D01*
X89581290Y-29430524D01*
X89632707Y-29460209D01*
X89718216Y-29509577D01*
X89736782Y-29514552D01*
X89796442Y-29550916D01*
X89826971Y-29613762D01*
X89818677Y-29683138D01*
X89815173Y-29690620D01*
X89748445Y-29821582D01*
X89682753Y-30023760D01*
X89649500Y-30233713D01*
X89649500Y-30446286D01*
X89682753Y-30656239D01*
X89748444Y-30858414D01*
X89844951Y-31047820D01*
X89969890Y-31219786D01*
X90120213Y-31370109D01*
X90292182Y-31495050D01*
X90300946Y-31499516D01*
X90351742Y-31547491D01*
X90368536Y-31615312D01*
X90345998Y-31681447D01*
X90300946Y-31720484D01*
X90292182Y-31724949D01*
X90120213Y-31849890D01*
X89969890Y-32000213D01*
X89844951Y-32172179D01*
X89748444Y-32361585D01*
X89682753Y-32563760D01*
X89649500Y-32773713D01*
X89649500Y-32986286D01*
X89682753Y-33196239D01*
X89748444Y-33398416D01*
X89765994Y-33432858D01*
X89778891Y-33501527D01*
X89752615Y-33566268D01*
X89695509Y-33606525D01*
X89655510Y-33613154D01*
X65853751Y-33613154D01*
X65786712Y-33593469D01*
X65766070Y-33576835D01*
X56273757Y-24084522D01*
X56240272Y-24023199D01*
X56243507Y-23958523D01*
X56257246Y-23916243D01*
X56290500Y-23706287D01*
X56290500Y-23493713D01*
X56257246Y-23283757D01*
X56191557Y-23081588D01*
X56095051Y-22892184D01*
X56095049Y-22892181D01*
X56095048Y-22892179D01*
X55970109Y-22720213D01*
X55819786Y-22569890D01*
X55647820Y-22444951D01*
X55458414Y-22348444D01*
X55458413Y-22348443D01*
X55458412Y-22348443D01*
X55256243Y-22282754D01*
X55256241Y-22282753D01*
X55256240Y-22282753D01*
X55094957Y-22257208D01*
X55046287Y-22249500D01*
X54833713Y-22249500D01*
X54785042Y-22257208D01*
X54623760Y-22282753D01*
X54421585Y-22348444D01*
X54232179Y-22444951D01*
X54060213Y-22569890D01*
X53909890Y-22720213D01*
X53784949Y-22892182D01*
X53780484Y-22900946D01*
X53732509Y-22951742D01*
X53664688Y-22968536D01*
X53598553Y-22945998D01*
X53559516Y-22900946D01*
X53555050Y-22892182D01*
X53430109Y-22720213D01*
X53279786Y-22569890D01*
X53107820Y-22444951D01*
X52918414Y-22348444D01*
X52918413Y-22348443D01*
X52918412Y-22348443D01*
X52716243Y-22282754D01*
X52716241Y-22282753D01*
X52716240Y-22282753D01*
X52554957Y-22257208D01*
X52506287Y-22249500D01*
X52293713Y-22249500D01*
X52245042Y-22257208D01*
X52083760Y-22282753D01*
X51881585Y-22348444D01*
X51692179Y-22444951D01*
X51520213Y-22569890D01*
X51369890Y-22720213D01*
X51244949Y-22892182D01*
X51240484Y-22900946D01*
X51192509Y-22951742D01*
X51124688Y-22968536D01*
X51058553Y-22945998D01*
X51019516Y-22900946D01*
X51015050Y-22892182D01*
X50890109Y-22720213D01*
X50739786Y-22569890D01*
X50567820Y-22444951D01*
X50378414Y-22348444D01*
X50378413Y-22348443D01*
X50378412Y-22348443D01*
X50176243Y-22282754D01*
X50176241Y-22282753D01*
X50176240Y-22282753D01*
X50014957Y-22257208D01*
X49966287Y-22249500D01*
X49753713Y-22249500D01*
X49705042Y-22257208D01*
X49543760Y-22282753D01*
X49341585Y-22348444D01*
X49152179Y-22444951D01*
X48980213Y-22569890D01*
X48829890Y-22720213D01*
X48704949Y-22892182D01*
X48700484Y-22900946D01*
X48652509Y-22951742D01*
X48584688Y-22968536D01*
X48518553Y-22945998D01*
X48479516Y-22900946D01*
X48475050Y-22892182D01*
X48350109Y-22720213D01*
X48199786Y-22569890D01*
X48027815Y-22444948D01*
X48027814Y-22444947D01*
X47988205Y-22424765D01*
X47937409Y-22376791D01*
X47920500Y-22314281D01*
X47920500Y-21724500D01*
X47940185Y-21657461D01*
X47992989Y-21611706D01*
X48044500Y-21600500D01*
X92875500Y-21600500D01*
X92942539Y-21620185D01*
G37*
%TD.AperFunction*%
%TA.AperFunction,NonConductor*%
G36*
X115066736Y-28218665D02*
G01*
X115122669Y-28260537D01*
X115141331Y-28296525D01*
X115146010Y-28310926D01*
X115148444Y-28318416D01*
X115244951Y-28507820D01*
X115369890Y-28679786D01*
X115520213Y-28830109D01*
X115692182Y-28955050D01*
X115700946Y-28959516D01*
X115751742Y-29007491D01*
X115768536Y-29075312D01*
X115745998Y-29141447D01*
X115700946Y-29180484D01*
X115692182Y-29184949D01*
X115520213Y-29309890D01*
X115520209Y-29309894D01*
X115369896Y-29460208D01*
X115369890Y-29460213D01*
X115244951Y-29632179D01*
X115148444Y-29821585D01*
X115082753Y-30023760D01*
X115049500Y-30233713D01*
X115049500Y-30446286D01*
X115082753Y-30656239D01*
X115148444Y-30858414D01*
X115244951Y-31047820D01*
X115369890Y-31219786D01*
X115520213Y-31370109D01*
X115692182Y-31495050D01*
X115700946Y-31499516D01*
X115751742Y-31547491D01*
X115768536Y-31615312D01*
X115745998Y-31681447D01*
X115700946Y-31720484D01*
X115692182Y-31724949D01*
X115520213Y-31849890D01*
X115369890Y-32000213D01*
X115244951Y-32172179D01*
X115148444Y-32361585D01*
X115082753Y-32563760D01*
X115049500Y-32773713D01*
X115049500Y-32986286D01*
X115082753Y-33196239D01*
X115148444Y-33398414D01*
X115244951Y-33587820D01*
X115369890Y-33759786D01*
X115520213Y-33910109D01*
X115692182Y-34035050D01*
X115700946Y-34039516D01*
X115751742Y-34087491D01*
X115768536Y-34155312D01*
X115745998Y-34221447D01*
X115700946Y-34260484D01*
X115692182Y-34264949D01*
X115520213Y-34389890D01*
X115369890Y-34540213D01*
X115244951Y-34712179D01*
X115148444Y-34901585D01*
X115082753Y-35103760D01*
X115049500Y-35313713D01*
X115049500Y-35526286D01*
X115082753Y-35736239D01*
X115082753Y-35736241D01*
X115082754Y-35736243D01*
X115137431Y-35904522D01*
X115148444Y-35938414D01*
X115244951Y-36127820D01*
X115369890Y-36299786D01*
X115520213Y-36450109D01*
X115692182Y-36575050D01*
X115700946Y-36579516D01*
X115751742Y-36627491D01*
X115768536Y-36695312D01*
X115745998Y-36761447D01*
X115700946Y-36800484D01*
X115692182Y-36804949D01*
X115520213Y-36929890D01*
X115369890Y-37080213D01*
X115244951Y-37252179D01*
X115148444Y-37441585D01*
X115082753Y-37643760D01*
X115049500Y-37853713D01*
X115049500Y-38000902D01*
X115029815Y-38067941D01*
X114977011Y-38113696D01*
X114907853Y-38123640D01*
X114844297Y-38094615D01*
X114837819Y-38088583D01*
X110601244Y-33852009D01*
X110601242Y-33852006D01*
X110482371Y-33733135D01*
X110482366Y-33733131D01*
X110350742Y-33657139D01*
X110345439Y-33654077D01*
X110345436Y-33654076D01*
X110315480Y-33646049D01*
X110192711Y-33613153D01*
X110034597Y-33613153D01*
X110027001Y-33613153D01*
X110026985Y-33613154D01*
X92344490Y-33613154D01*
X92277451Y-33593469D01*
X92231696Y-33540665D01*
X92221752Y-33471507D01*
X92234006Y-33432858D01*
X92251555Y-33398416D01*
X92251556Y-33398414D01*
X92251557Y-33398412D01*
X92317246Y-33196243D01*
X92350500Y-32986287D01*
X92350500Y-32773713D01*
X92317246Y-32563757D01*
X92251557Y-32361588D01*
X92155051Y-32172184D01*
X92155049Y-32172181D01*
X92155048Y-32172179D01*
X92030109Y-32000213D01*
X91879786Y-31849890D01*
X91707820Y-31724951D01*
X91707115Y-31724591D01*
X91699054Y-31720485D01*
X91648259Y-31672512D01*
X91631463Y-31604692D01*
X91653999Y-31538556D01*
X91699054Y-31499515D01*
X91707816Y-31495051D01*
X91729789Y-31479086D01*
X91879786Y-31370109D01*
X91879788Y-31370106D01*
X91879792Y-31370104D01*
X92030104Y-31219792D01*
X92030106Y-31219788D01*
X92030109Y-31219786D01*
X92155048Y-31047820D01*
X92155047Y-31047820D01*
X92155051Y-31047816D01*
X92251557Y-30858412D01*
X92317246Y-30656243D01*
X92350500Y-30446287D01*
X92350500Y-30233713D01*
X92317246Y-30023757D01*
X92251557Y-29821588D01*
X92205296Y-29730795D01*
X92192400Y-29662125D01*
X92218677Y-29597385D01*
X92275783Y-29557128D01*
X92315781Y-29550500D01*
X113296985Y-29550500D01*
X113297001Y-29550501D01*
X113304597Y-29550501D01*
X113462708Y-29550501D01*
X113462711Y-29550501D01*
X113615439Y-29509577D01*
X113700948Y-29460208D01*
X113752370Y-29430520D01*
X113864174Y-29318716D01*
X113864174Y-29318714D01*
X113874378Y-29308511D01*
X113874382Y-29308506D01*
X114935723Y-28247164D01*
X114997044Y-28213681D01*
X115066736Y-28218665D01*
G37*
%TD.AperFunction*%
%TA.AperFunction,NonConductor*%
G36*
X89633171Y-34822079D02*
G01*
X89660893Y-34826877D01*
X89666247Y-34831791D01*
X89673220Y-34833839D01*
X89691639Y-34855096D01*
X89712368Y-34874121D01*
X89714215Y-34881150D01*
X89718975Y-34886643D01*
X89722978Y-34914489D01*
X89730130Y-34941695D01*
X89728360Y-34951918D01*
X89728919Y-34955801D01*
X89724112Y-34976472D01*
X89682753Y-35103760D01*
X89649500Y-35313713D01*
X89649500Y-35526286D01*
X89682753Y-35736239D01*
X89682753Y-35736241D01*
X89682754Y-35736243D01*
X89737431Y-35904522D01*
X89748444Y-35938414D01*
X89844951Y-36127820D01*
X89969890Y-36299786D01*
X90120213Y-36450109D01*
X90292182Y-36575050D01*
X90300946Y-36579516D01*
X90351742Y-36627491D01*
X90368536Y-36695312D01*
X90345998Y-36761447D01*
X90300946Y-36800484D01*
X90292182Y-36804949D01*
X90120213Y-36929890D01*
X89969890Y-37080213D01*
X89844951Y-37252179D01*
X89748444Y-37441585D01*
X89682753Y-37643760D01*
X89649500Y-37853713D01*
X89649500Y-38066286D01*
X89682753Y-38276239D01*
X89682753Y-38276241D01*
X89682754Y-38276243D01*
X89737431Y-38444522D01*
X89748444Y-38478414D01*
X89844951Y-38667820D01*
X89969890Y-38839786D01*
X90120213Y-38990109D01*
X90292182Y-39115050D01*
X90300946Y-39119516D01*
X90351742Y-39167491D01*
X90368536Y-39235312D01*
X90345998Y-39301447D01*
X90300946Y-39340484D01*
X90292182Y-39344949D01*
X90120213Y-39469890D01*
X89969890Y-39620213D01*
X89844951Y-39792179D01*
X89748444Y-39981585D01*
X89682753Y-40183760D01*
X89649500Y-40393713D01*
X89649500Y-40606287D01*
X89682754Y-40816243D01*
X89747937Y-41016856D01*
X89748444Y-41018414D01*
X89844951Y-41207820D01*
X89969890Y-41379786D01*
X90120213Y-41530109D01*
X90292182Y-41655050D01*
X90300946Y-41659516D01*
X90351742Y-41707491D01*
X90368536Y-41775312D01*
X90345998Y-41841447D01*
X90300946Y-41880484D01*
X90292182Y-41884949D01*
X90120213Y-42009890D01*
X89969890Y-42160213D01*
X89844948Y-42332184D01*
X89844947Y-42332185D01*
X89824765Y-42371795D01*
X89776791Y-42422591D01*
X89714281Y-42439500D01*
X74006443Y-42439500D01*
X73939404Y-42419815D01*
X73918762Y-42403181D01*
X66541416Y-35025835D01*
X66507931Y-34964512D01*
X66512915Y-34894820D01*
X66554787Y-34838887D01*
X66620251Y-34814470D01*
X66629097Y-34814154D01*
X89606181Y-34814154D01*
X89633171Y-34822079D01*
G37*
%TD.AperFunction*%
%TA.AperFunction,NonConductor*%
G36*
X56371306Y-26563570D02*
G01*
X56404278Y-26587167D01*
X73194930Y-43377819D01*
X73228415Y-43439142D01*
X73223431Y-43508834D01*
X73181559Y-43564767D01*
X73116095Y-43589184D01*
X73107249Y-43589500D01*
X58050098Y-43589500D01*
X57983059Y-43569815D01*
X57962417Y-43553181D01*
X50145475Y-35736239D01*
X42111415Y-27702180D01*
X42077931Y-27640858D01*
X42082915Y-27571166D01*
X42124787Y-27515233D01*
X42190251Y-27490816D01*
X42199097Y-27490500D01*
X42346286Y-27490500D01*
X42346287Y-27490500D01*
X42556243Y-27457246D01*
X42758412Y-27391557D01*
X42947816Y-27295051D01*
X43034138Y-27232335D01*
X43119786Y-27170109D01*
X43119788Y-27170106D01*
X43119792Y-27170104D01*
X43270104Y-27019792D01*
X43270106Y-27019788D01*
X43270109Y-27019786D01*
X43395048Y-26847820D01*
X43395047Y-26847820D01*
X43395051Y-26847816D01*
X43399514Y-26839054D01*
X43447488Y-26788259D01*
X43515308Y-26771463D01*
X43581444Y-26793999D01*
X43620486Y-26839056D01*
X43624951Y-26847820D01*
X43749890Y-27019786D01*
X43900213Y-27170109D01*
X44072179Y-27295048D01*
X44072181Y-27295049D01*
X44072184Y-27295051D01*
X44261588Y-27391557D01*
X44463757Y-27457246D01*
X44673713Y-27490500D01*
X44673714Y-27490500D01*
X44886286Y-27490500D01*
X44886287Y-27490500D01*
X45096243Y-27457246D01*
X45298412Y-27391557D01*
X45487816Y-27295051D01*
X45574138Y-27232335D01*
X45659786Y-27170109D01*
X45659788Y-27170106D01*
X45659792Y-27170104D01*
X45810104Y-27019792D01*
X45810106Y-27019788D01*
X45810109Y-27019786D01*
X45935048Y-26847820D01*
X45935047Y-26847820D01*
X45935051Y-26847816D01*
X45939514Y-26839054D01*
X45987488Y-26788259D01*
X46055308Y-26771463D01*
X46121444Y-26793999D01*
X46160486Y-26839056D01*
X46164951Y-26847820D01*
X46289890Y-27019786D01*
X46440213Y-27170109D01*
X46612179Y-27295048D01*
X46612181Y-27295049D01*
X46612184Y-27295051D01*
X46801588Y-27391557D01*
X47003757Y-27457246D01*
X47213713Y-27490500D01*
X47213714Y-27490500D01*
X47426286Y-27490500D01*
X47426287Y-27490500D01*
X47636243Y-27457246D01*
X47838412Y-27391557D01*
X48027816Y-27295051D01*
X48114138Y-27232335D01*
X48199786Y-27170109D01*
X48199788Y-27170106D01*
X48199792Y-27170104D01*
X48350104Y-27019792D01*
X48350106Y-27019788D01*
X48350109Y-27019786D01*
X48475048Y-26847820D01*
X48475047Y-26847820D01*
X48475051Y-26847816D01*
X48479514Y-26839054D01*
X48527488Y-26788259D01*
X48595308Y-26771463D01*
X48661444Y-26793999D01*
X48700486Y-26839056D01*
X48704951Y-26847820D01*
X48829890Y-27019786D01*
X48980213Y-27170109D01*
X49152179Y-27295048D01*
X49152181Y-27295049D01*
X49152184Y-27295051D01*
X49341588Y-27391557D01*
X49543757Y-27457246D01*
X49753713Y-27490500D01*
X49753714Y-27490500D01*
X49966286Y-27490500D01*
X49966287Y-27490500D01*
X50176243Y-27457246D01*
X50378412Y-27391557D01*
X50567816Y-27295051D01*
X50654138Y-27232335D01*
X50739786Y-27170109D01*
X50739788Y-27170106D01*
X50739792Y-27170104D01*
X50890104Y-27019792D01*
X50890106Y-27019788D01*
X50890109Y-27019786D01*
X51015048Y-26847820D01*
X51015047Y-26847820D01*
X51015051Y-26847816D01*
X51019514Y-26839054D01*
X51067488Y-26788259D01*
X51135308Y-26771463D01*
X51201444Y-26793999D01*
X51240486Y-26839056D01*
X51244951Y-26847820D01*
X51369890Y-27019786D01*
X51520213Y-27170109D01*
X51692179Y-27295048D01*
X51692181Y-27295049D01*
X51692184Y-27295051D01*
X51881588Y-27391557D01*
X52083757Y-27457246D01*
X52293713Y-27490500D01*
X52293714Y-27490500D01*
X52506286Y-27490500D01*
X52506287Y-27490500D01*
X52716243Y-27457246D01*
X52918412Y-27391557D01*
X53107816Y-27295051D01*
X53194138Y-27232335D01*
X53279786Y-27170109D01*
X53279788Y-27170106D01*
X53279792Y-27170104D01*
X53430104Y-27019792D01*
X53430106Y-27019788D01*
X53430109Y-27019786D01*
X53555048Y-26847820D01*
X53555047Y-26847820D01*
X53555051Y-26847816D01*
X53559514Y-26839054D01*
X53607488Y-26788259D01*
X53675308Y-26771463D01*
X53741444Y-26793999D01*
X53780486Y-26839056D01*
X53784951Y-26847820D01*
X53909890Y-27019786D01*
X54060213Y-27170109D01*
X54232179Y-27295048D01*
X54232181Y-27295049D01*
X54232184Y-27295051D01*
X54421588Y-27391557D01*
X54623757Y-27457246D01*
X54833713Y-27490500D01*
X54833714Y-27490500D01*
X55046286Y-27490500D01*
X55046287Y-27490500D01*
X55256243Y-27457246D01*
X55458412Y-27391557D01*
X55647816Y-27295051D01*
X55734138Y-27232335D01*
X55819786Y-27170109D01*
X55819788Y-27170106D01*
X55819792Y-27170104D01*
X55970104Y-27019792D01*
X55970106Y-27019788D01*
X55970109Y-27019786D01*
X56095048Y-26847820D01*
X56095047Y-26847820D01*
X56095051Y-26847816D01*
X56191557Y-26658412D01*
X56198667Y-26636528D01*
X56238102Y-26578856D01*
X56302460Y-26551657D01*
X56371306Y-26563570D01*
G37*
%TD.AperFunction*%
%TA.AperFunction,NonConductor*%
G36*
X40184522Y-27473757D02*
G01*
X56488583Y-43777819D01*
X56522068Y-43839142D01*
X56517084Y-43908834D01*
X56475212Y-43964767D01*
X56409748Y-43989184D01*
X56400902Y-43989500D01*
X55910097Y-43989500D01*
X55843058Y-43969815D01*
X55822416Y-43953181D01*
X39571416Y-27702181D01*
X39537931Y-27640858D01*
X39542915Y-27571166D01*
X39584787Y-27515233D01*
X39650251Y-27490816D01*
X39659097Y-27490500D01*
X39806286Y-27490500D01*
X39806287Y-27490500D01*
X40016243Y-27457246D01*
X40058523Y-27443507D01*
X40128362Y-27441511D01*
X40184522Y-27473757D01*
G37*
%TD.AperFunction*%
%TA.AperFunction,NonConductor*%
G36*
X118518834Y-25719260D02*
G01*
X118574767Y-25761132D01*
X118599184Y-25826596D01*
X118599500Y-25835442D01*
X118599500Y-49244050D01*
X118598287Y-49248179D01*
X118599220Y-49252382D01*
X118588528Y-49281414D01*
X118579815Y-49311089D01*
X118576562Y-49313907D01*
X118575075Y-49317947D01*
X118550382Y-49336592D01*
X118527011Y-49356844D01*
X118522752Y-49357456D01*
X118519316Y-49360051D01*
X118488464Y-49362386D01*
X118457853Y-49366788D01*
X118453938Y-49365000D01*
X118449646Y-49365325D01*
X118422435Y-49350613D01*
X118394297Y-49337763D01*
X118391504Y-49333890D01*
X118388184Y-49332095D01*
X118366916Y-49303929D01*
X118360830Y-49292894D01*
X118359577Y-49288215D01*
X118330639Y-49238095D01*
X118280520Y-49151284D01*
X118168716Y-49039480D01*
X118168715Y-49039479D01*
X118164385Y-49035149D01*
X118164374Y-49035139D01*
X117733757Y-48604522D01*
X117700272Y-48543199D01*
X117703507Y-48478523D01*
X117717246Y-48436243D01*
X117750500Y-48226287D01*
X117750500Y-48013713D01*
X117717246Y-47803757D01*
X117651557Y-47601588D01*
X117555051Y-47412184D01*
X117555049Y-47412181D01*
X117555048Y-47412179D01*
X117430109Y-47240213D01*
X117279786Y-47089890D01*
X117107820Y-46964951D01*
X117107115Y-46964591D01*
X117099054Y-46960485D01*
X117048259Y-46912512D01*
X117031463Y-46844692D01*
X117053999Y-46778556D01*
X117099054Y-46739515D01*
X117107816Y-46735051D01*
X117129789Y-46719086D01*
X117279786Y-46610109D01*
X117279788Y-46610106D01*
X117279792Y-46610104D01*
X117430104Y-46459792D01*
X117430106Y-46459788D01*
X117430109Y-46459786D01*
X117555048Y-46287820D01*
X117555047Y-46287820D01*
X117555051Y-46287816D01*
X117651557Y-46098412D01*
X117717246Y-45896243D01*
X117750500Y-45686287D01*
X117750500Y-45473713D01*
X117717246Y-45263757D01*
X117651557Y-45061588D01*
X117555051Y-44872184D01*
X117555049Y-44872181D01*
X117555048Y-44872179D01*
X117430109Y-44700213D01*
X117279786Y-44549890D01*
X117107820Y-44424951D01*
X117107115Y-44424591D01*
X117099054Y-44420485D01*
X117048259Y-44372512D01*
X117031463Y-44304692D01*
X117053999Y-44238556D01*
X117099054Y-44199515D01*
X117107816Y-44195051D01*
X117129789Y-44179086D01*
X117279786Y-44070109D01*
X117279788Y-44070106D01*
X117279792Y-44070104D01*
X117430104Y-43919792D01*
X117430106Y-43919788D01*
X117430109Y-43919786D01*
X117539086Y-43769789D01*
X117555051Y-43747816D01*
X117651557Y-43558412D01*
X117717246Y-43356243D01*
X117750500Y-43146287D01*
X117750500Y-42933713D01*
X117717246Y-42723757D01*
X117651557Y-42521588D01*
X117555051Y-42332184D01*
X117555049Y-42332181D01*
X117555048Y-42332179D01*
X117430109Y-42160213D01*
X117410419Y-42140523D01*
X117376934Y-42079200D01*
X117381918Y-42009508D01*
X117410419Y-41965161D01*
X117495096Y-41880484D01*
X118030520Y-41345062D01*
X118109577Y-41208130D01*
X118150501Y-41055403D01*
X118150501Y-40897288D01*
X118150501Y-40889693D01*
X118150500Y-40889675D01*
X118150500Y-39199060D01*
X118150501Y-39199047D01*
X118150501Y-39030944D01*
X118109576Y-38878214D01*
X118109573Y-38878209D01*
X118030524Y-38741290D01*
X118030518Y-38741282D01*
X117733757Y-38444522D01*
X117700272Y-38383199D01*
X117703507Y-38318523D01*
X117717246Y-38276243D01*
X117750500Y-38066287D01*
X117750500Y-37853713D01*
X117717246Y-37643757D01*
X117651557Y-37441588D01*
X117555051Y-37252184D01*
X117555049Y-37252181D01*
X117555048Y-37252179D01*
X117430109Y-37080213D01*
X117279786Y-36929890D01*
X117107820Y-36804951D01*
X117107115Y-36804591D01*
X117099054Y-36800485D01*
X117048259Y-36752512D01*
X117031463Y-36684692D01*
X117053999Y-36618556D01*
X117099054Y-36579515D01*
X117107816Y-36575051D01*
X117129789Y-36559086D01*
X117279786Y-36450109D01*
X117279788Y-36450106D01*
X117279792Y-36450104D01*
X117430104Y-36299792D01*
X117430106Y-36299788D01*
X117430109Y-36299786D01*
X117555048Y-36127820D01*
X117555047Y-36127820D01*
X117555051Y-36127816D01*
X117651557Y-35938412D01*
X117717246Y-35736243D01*
X117750500Y-35526287D01*
X117750500Y-35313713D01*
X117717246Y-35103757D01*
X117651557Y-34901588D01*
X117555051Y-34712184D01*
X117555049Y-34712181D01*
X117555048Y-34712179D01*
X117430109Y-34540213D01*
X117279786Y-34389890D01*
X117107820Y-34264951D01*
X117107115Y-34264591D01*
X117099054Y-34260485D01*
X117048259Y-34212512D01*
X117031463Y-34144692D01*
X117053999Y-34078556D01*
X117099054Y-34039515D01*
X117107816Y-34035051D01*
X117129789Y-34019086D01*
X117279786Y-33910109D01*
X117279788Y-33910106D01*
X117279792Y-33910104D01*
X117430104Y-33759792D01*
X117430106Y-33759788D01*
X117430109Y-33759786D01*
X117555048Y-33587820D01*
X117555047Y-33587820D01*
X117555051Y-33587816D01*
X117651557Y-33398412D01*
X117717246Y-33196243D01*
X117750500Y-32986287D01*
X117750500Y-32773713D01*
X117717246Y-32563757D01*
X117651557Y-32361588D01*
X117555051Y-32172184D01*
X117555049Y-32172181D01*
X117555048Y-32172179D01*
X117430109Y-32000213D01*
X117279786Y-31849890D01*
X117107820Y-31724951D01*
X117107115Y-31724591D01*
X117099054Y-31720485D01*
X117048259Y-31672512D01*
X117031463Y-31604692D01*
X117053999Y-31538556D01*
X117099054Y-31499515D01*
X117107816Y-31495051D01*
X117129789Y-31479086D01*
X117279786Y-31370109D01*
X117279788Y-31370106D01*
X117279792Y-31370104D01*
X117430104Y-31219792D01*
X117430106Y-31219788D01*
X117430109Y-31219786D01*
X117555048Y-31047820D01*
X117555047Y-31047820D01*
X117555051Y-31047816D01*
X117651557Y-30858412D01*
X117717246Y-30656243D01*
X117750500Y-30446287D01*
X117750500Y-30233713D01*
X117717246Y-30023757D01*
X117651557Y-29821588D01*
X117555051Y-29632184D01*
X117555049Y-29632181D01*
X117555048Y-29632179D01*
X117430109Y-29460213D01*
X117279786Y-29309890D01*
X117107820Y-29184951D01*
X117107115Y-29184591D01*
X117099054Y-29180485D01*
X117048259Y-29132512D01*
X117031463Y-29064692D01*
X117053999Y-28998556D01*
X117099054Y-28959515D01*
X117107816Y-28955051D01*
X117129789Y-28939086D01*
X117279786Y-28830109D01*
X117279788Y-28830106D01*
X117279792Y-28830104D01*
X117430104Y-28679792D01*
X117430106Y-28679788D01*
X117430109Y-28679786D01*
X117555048Y-28507820D01*
X117555047Y-28507820D01*
X117555051Y-28507816D01*
X117651557Y-28318412D01*
X117717246Y-28116243D01*
X117750500Y-27906287D01*
X117750500Y-27693713D01*
X117717246Y-27483757D01*
X117651557Y-27281588D01*
X117555051Y-27092184D01*
X117555049Y-27092181D01*
X117555048Y-27092179D01*
X117430109Y-26920213D01*
X117410419Y-26900523D01*
X117376934Y-26839200D01*
X117381918Y-26769508D01*
X117410419Y-26725161D01*
X117962243Y-26173337D01*
X118387820Y-25747760D01*
X118449142Y-25714276D01*
X118518834Y-25719260D01*
G37*
%TD.AperFunction*%
%TA.AperFunction,NonConductor*%
G36*
X89751258Y-44810185D02*
G01*
X89797013Y-44862989D01*
X89806957Y-44932147D01*
X89794704Y-44970795D01*
X89748444Y-45061585D01*
X89748443Y-45061587D01*
X89748443Y-45061588D01*
X89736131Y-45099480D01*
X89682753Y-45263760D01*
X89649500Y-45473713D01*
X89649500Y-45686287D01*
X89682754Y-45896243D01*
X89737431Y-46064522D01*
X89748444Y-46098414D01*
X89844951Y-46287820D01*
X89969890Y-46459786D01*
X90120213Y-46610109D01*
X90292182Y-46735050D01*
X90300946Y-46739516D01*
X90351742Y-46787491D01*
X90368536Y-46855312D01*
X90345998Y-46921447D01*
X90300946Y-46960484D01*
X90292182Y-46964949D01*
X90120213Y-47089890D01*
X89969890Y-47240213D01*
X89844951Y-47412179D01*
X89748444Y-47601585D01*
X89682753Y-47803760D01*
X89649500Y-48013713D01*
X89649500Y-48226286D01*
X89682753Y-48436239D01*
X89682753Y-48436241D01*
X89682754Y-48436243D01*
X89737431Y-48604522D01*
X89748444Y-48638414D01*
X89844951Y-48827820D01*
X89969890Y-48999786D01*
X90120213Y-49150109D01*
X90292182Y-49275050D01*
X90300946Y-49279516D01*
X90351742Y-49327491D01*
X90368536Y-49395312D01*
X90345998Y-49461447D01*
X90300946Y-49500484D01*
X90292182Y-49504949D01*
X90120213Y-49629890D01*
X89969890Y-49780213D01*
X89844951Y-49952179D01*
X89748444Y-50141585D01*
X89682753Y-50343760D01*
X89649500Y-50553713D01*
X89649500Y-50766286D01*
X89682753Y-50976239D01*
X89748444Y-51178414D01*
X89844951Y-51367820D01*
X89969890Y-51539786D01*
X90120213Y-51690109D01*
X90292182Y-51815050D01*
X90300946Y-51819516D01*
X90351742Y-51867491D01*
X90368536Y-51935312D01*
X90345998Y-52001447D01*
X90300946Y-52040484D01*
X90292182Y-52044949D01*
X90120213Y-52169890D01*
X89969890Y-52320213D01*
X89844949Y-52492182D01*
X89811084Y-52558645D01*
X89763109Y-52609441D01*
X89695288Y-52626235D01*
X89629153Y-52603697D01*
X89612919Y-52590030D01*
X82025070Y-45002181D01*
X81991585Y-44940858D01*
X81996569Y-44871166D01*
X82038441Y-44815233D01*
X82103905Y-44790816D01*
X82112751Y-44790500D01*
X89684219Y-44790500D01*
X89751258Y-44810185D01*
G37*
%TD.AperFunction*%
%TA.AperFunction,NonConductor*%
G36*
X109880596Y-34833839D02*
G01*
X109901238Y-34850473D01*
X115066241Y-40015476D01*
X115099726Y-40076799D01*
X115096492Y-40141473D01*
X115082753Y-40183757D01*
X115049500Y-40393713D01*
X115049500Y-40606286D01*
X115082753Y-40816239D01*
X115105804Y-40887182D01*
X115107799Y-40957023D01*
X115071719Y-41016856D01*
X115009018Y-41047684D01*
X114987873Y-41049500D01*
X104836669Y-41049500D01*
X104836653Y-41049499D01*
X104829057Y-41049499D01*
X104670943Y-41049499D01*
X104556397Y-41080192D01*
X104518214Y-41090423D01*
X104500762Y-41100500D01*
X104500759Y-41100501D01*
X104381290Y-41169475D01*
X104381282Y-41169481D01*
X92537152Y-53013612D01*
X92475829Y-53047097D01*
X92406137Y-53042113D01*
X92350204Y-53000241D01*
X92326998Y-52945329D01*
X92317246Y-52883759D01*
X92317246Y-52883757D01*
X92251557Y-52681588D01*
X92155051Y-52492184D01*
X92155049Y-52492181D01*
X92155048Y-52492179D01*
X92030109Y-52320213D01*
X91879786Y-52169890D01*
X91707820Y-52044951D01*
X91707115Y-52044591D01*
X91699054Y-52040485D01*
X91648259Y-51992512D01*
X91631463Y-51924692D01*
X91653999Y-51858556D01*
X91699054Y-51819515D01*
X91707816Y-51815051D01*
X91729789Y-51799086D01*
X91879786Y-51690109D01*
X91879788Y-51690106D01*
X91879792Y-51690104D01*
X92030104Y-51539792D01*
X92030106Y-51539788D01*
X92030109Y-51539786D01*
X92155048Y-51367820D01*
X92155047Y-51367820D01*
X92155051Y-51367816D01*
X92251557Y-51178412D01*
X92317246Y-50976243D01*
X92350500Y-50766287D01*
X92350500Y-50553713D01*
X92317246Y-50343757D01*
X92251557Y-50141588D01*
X92155051Y-49952184D01*
X92155049Y-49952181D01*
X92155048Y-49952179D01*
X92030109Y-49780213D01*
X91879786Y-49629890D01*
X91707820Y-49504951D01*
X91707115Y-49504591D01*
X91699054Y-49500485D01*
X91648259Y-49452512D01*
X91631463Y-49384692D01*
X91653999Y-49318556D01*
X91699054Y-49279515D01*
X91707816Y-49275051D01*
X91760119Y-49237051D01*
X91879786Y-49150109D01*
X91879788Y-49150106D01*
X91879792Y-49150104D01*
X92030104Y-48999792D01*
X92030106Y-48999788D01*
X92030109Y-48999786D01*
X92155048Y-48827820D01*
X92155047Y-48827820D01*
X92155051Y-48827816D01*
X92251557Y-48638412D01*
X92317246Y-48436243D01*
X92350500Y-48226287D01*
X92350500Y-48013713D01*
X92317246Y-47803757D01*
X92251557Y-47601588D01*
X92155051Y-47412184D01*
X92155049Y-47412181D01*
X92155048Y-47412179D01*
X92030109Y-47240213D01*
X91879786Y-47089890D01*
X91707820Y-46964951D01*
X91707115Y-46964591D01*
X91699054Y-46960485D01*
X91648259Y-46912512D01*
X91631463Y-46844692D01*
X91653999Y-46778556D01*
X91699054Y-46739515D01*
X91707816Y-46735051D01*
X91729789Y-46719086D01*
X91879786Y-46610109D01*
X91879788Y-46610106D01*
X91879792Y-46610104D01*
X92030104Y-46459792D01*
X92030106Y-46459788D01*
X92030109Y-46459786D01*
X92155048Y-46287820D01*
X92155047Y-46287820D01*
X92155051Y-46287816D01*
X92251557Y-46098412D01*
X92317246Y-45896243D01*
X92350500Y-45686287D01*
X92350500Y-45473713D01*
X92317246Y-45263757D01*
X92251557Y-45061588D01*
X92155051Y-44872184D01*
X92155049Y-44872181D01*
X92155048Y-44872179D01*
X92030109Y-44700213D01*
X92010419Y-44680523D01*
X91976934Y-44619200D01*
X91981918Y-44549508D01*
X92010419Y-44505161D01*
X92095096Y-44420484D01*
X92630520Y-43885062D01*
X92709577Y-43748130D01*
X92750501Y-43595403D01*
X92750501Y-43437288D01*
X92750501Y-43429693D01*
X92750500Y-43429675D01*
X92750500Y-36659060D01*
X92750501Y-36659047D01*
X92750501Y-36490944D01*
X92709576Y-36338214D01*
X92709573Y-36338209D01*
X92630524Y-36201290D01*
X92630518Y-36201282D01*
X92333757Y-35904522D01*
X92300272Y-35843199D01*
X92303507Y-35778523D01*
X92317246Y-35736243D01*
X92350500Y-35526287D01*
X92350500Y-35313713D01*
X92317246Y-35103757D01*
X92275887Y-34976470D01*
X92273893Y-34906631D01*
X92309973Y-34846798D01*
X92372674Y-34815970D01*
X92393819Y-34814154D01*
X109813557Y-34814154D01*
X109880596Y-34833839D01*
G37*
%TD.AperFunction*%
%TA.AperFunction,NonConductor*%
G36*
X78563670Y-47416913D02*
G01*
X78584312Y-47433547D01*
X87013584Y-55862819D01*
X87047069Y-55924142D01*
X87042085Y-55993834D01*
X87000213Y-56049767D01*
X86934749Y-56074184D01*
X86925903Y-56074500D01*
X68067553Y-56074500D01*
X68000514Y-56054815D01*
X67954759Y-56002011D01*
X67944815Y-55932853D01*
X67973840Y-55869297D01*
X67979872Y-55862819D01*
X76409144Y-47433547D01*
X76470467Y-47400062D01*
X76496825Y-47397228D01*
X78496631Y-47397228D01*
X78563670Y-47416913D01*
G37*
%TD.AperFunction*%
%TA.AperFunction,NonConductor*%
G36*
X115151258Y-42270185D02*
G01*
X115197013Y-42322989D01*
X115206957Y-42392147D01*
X115194704Y-42430795D01*
X115148444Y-42521585D01*
X115082753Y-42723760D01*
X115049500Y-42933713D01*
X115049500Y-43146287D01*
X115082754Y-43356243D01*
X115146743Y-43553181D01*
X115148444Y-43558414D01*
X115244951Y-43747820D01*
X115369890Y-43919786D01*
X115520213Y-44070109D01*
X115692182Y-44195050D01*
X115700946Y-44199516D01*
X115751742Y-44247491D01*
X115768536Y-44315312D01*
X115745998Y-44381447D01*
X115700946Y-44420484D01*
X115692182Y-44424949D01*
X115520213Y-44549890D01*
X115369890Y-44700213D01*
X115244951Y-44872179D01*
X115148444Y-45061585D01*
X115148443Y-45061587D01*
X115148443Y-45061588D01*
X115136131Y-45099480D01*
X115082753Y-45263760D01*
X115049500Y-45473713D01*
X115049500Y-45686286D01*
X115082754Y-45896244D01*
X115082754Y-45896247D01*
X115096491Y-45938523D01*
X115098486Y-46008364D01*
X115066241Y-46064522D01*
X104637584Y-56493181D01*
X104576261Y-56526666D01*
X104549903Y-56529500D01*
X92315781Y-56529500D01*
X92248742Y-56509815D01*
X92202987Y-56457011D01*
X92193043Y-56387853D01*
X92205296Y-56349205D01*
X92223562Y-56313355D01*
X92251557Y-56258412D01*
X92317246Y-56056243D01*
X92350500Y-55846287D01*
X92350500Y-55633713D01*
X92317246Y-55423757D01*
X92251557Y-55221588D01*
X92251555Y-55221585D01*
X92251555Y-55221583D01*
X92217105Y-55153973D01*
X92197328Y-55115159D01*
X92196264Y-55109489D01*
X92192696Y-55104953D01*
X92189885Y-55075527D01*
X92184432Y-55046490D01*
X92186601Y-55041144D01*
X92186053Y-55035399D01*
X92199596Y-55009127D01*
X92210708Y-54981750D01*
X92216112Y-54977089D01*
X92218068Y-54973296D01*
X92245808Y-54951480D01*
X92281904Y-54930639D01*
X92368716Y-54880520D01*
X92480520Y-54768716D01*
X92480520Y-54768714D01*
X92490728Y-54758507D01*
X92490729Y-54758504D01*
X104962416Y-42286819D01*
X105023739Y-42253334D01*
X105050097Y-42250500D01*
X115084219Y-42250500D01*
X115151258Y-42270185D01*
G37*
%TD.AperFunction*%
%TA.AperFunction,NonConductor*%
G36*
X114968834Y-47962914D02*
G01*
X115024767Y-48004786D01*
X115049184Y-48070250D01*
X115049500Y-48079096D01*
X115049500Y-48226286D01*
X115082753Y-48436239D01*
X115082753Y-48436241D01*
X115082754Y-48436243D01*
X115137431Y-48604522D01*
X115148444Y-48638414D01*
X115244951Y-48827820D01*
X115369890Y-48999786D01*
X115520213Y-49150109D01*
X115692182Y-49275050D01*
X115700946Y-49279516D01*
X115751742Y-49327491D01*
X115768536Y-49395312D01*
X115745998Y-49461447D01*
X115700946Y-49500484D01*
X115692182Y-49504949D01*
X115520213Y-49629890D01*
X115369890Y-49780213D01*
X115244951Y-49952179D01*
X115148444Y-50141585D01*
X115082753Y-50343760D01*
X115049500Y-50553713D01*
X115049500Y-50766286D01*
X115082753Y-50976239D01*
X115148444Y-51178414D01*
X115244951Y-51367820D01*
X115369890Y-51539786D01*
X115520213Y-51690109D01*
X115692182Y-51815050D01*
X115700946Y-51819516D01*
X115751742Y-51867491D01*
X115768536Y-51935312D01*
X115745998Y-52001447D01*
X115700946Y-52040484D01*
X115692182Y-52044949D01*
X115520213Y-52169890D01*
X115369890Y-52320213D01*
X115244951Y-52492179D01*
X115148444Y-52681585D01*
X115082753Y-52883760D01*
X115049500Y-53093713D01*
X115049500Y-53306286D01*
X115082753Y-53516239D01*
X115148444Y-53718414D01*
X115244951Y-53907820D01*
X115369890Y-54079786D01*
X115520213Y-54230109D01*
X115692182Y-54355050D01*
X115700946Y-54359516D01*
X115751742Y-54407491D01*
X115768536Y-54475312D01*
X115745998Y-54541447D01*
X115700946Y-54580484D01*
X115692182Y-54584949D01*
X115520213Y-54709890D01*
X115369890Y-54860213D01*
X115244951Y-55032179D01*
X115148444Y-55221585D01*
X115082753Y-55423760D01*
X115068403Y-55514363D01*
X115049500Y-55633713D01*
X115049500Y-55846287D01*
X115055733Y-55885638D01*
X115082527Y-56054815D01*
X115082754Y-56056243D01*
X115127670Y-56194481D01*
X115148444Y-56258414D01*
X115244951Y-56447820D01*
X115369890Y-56619786D01*
X115520213Y-56770109D01*
X115692182Y-56895050D01*
X115700946Y-56899516D01*
X115751742Y-56947491D01*
X115768536Y-57015312D01*
X115745998Y-57081447D01*
X115700946Y-57120484D01*
X115692182Y-57124949D01*
X115520213Y-57249890D01*
X115369890Y-57400213D01*
X115244951Y-57572179D01*
X115148444Y-57761585D01*
X115082753Y-57963760D01*
X115058900Y-58114363D01*
X115049500Y-58173713D01*
X115049500Y-58386287D01*
X115059534Y-58449644D01*
X115082753Y-58596239D01*
X115105804Y-58667182D01*
X115107799Y-58737023D01*
X115071719Y-58796856D01*
X115009018Y-58827684D01*
X114987873Y-58829500D01*
X92807346Y-58829500D01*
X92775252Y-58825275D01*
X92753920Y-58819559D01*
X92679057Y-58799499D01*
X92520943Y-58799499D01*
X92520942Y-58799499D01*
X92446077Y-58819559D01*
X92376227Y-58817896D01*
X92318365Y-58778733D01*
X92290861Y-58714505D01*
X92296052Y-58661469D01*
X92317246Y-58596243D01*
X92350500Y-58386287D01*
X92350500Y-58173713D01*
X92317246Y-57963757D01*
X92294195Y-57892816D01*
X92292201Y-57822977D01*
X92328281Y-57763144D01*
X92390982Y-57732316D01*
X92412127Y-57730500D01*
X104763331Y-57730500D01*
X104763347Y-57730501D01*
X104770943Y-57730501D01*
X104929054Y-57730501D01*
X104929057Y-57730501D01*
X105081785Y-57689577D01*
X105131904Y-57660639D01*
X105218716Y-57610520D01*
X105330520Y-57498716D01*
X105330520Y-57498714D01*
X105340728Y-57488507D01*
X105340729Y-57488504D01*
X114837821Y-47991413D01*
X114899142Y-47957930D01*
X114968834Y-47962914D01*
G37*
%TD.AperFunction*%
%TA.AperFunction,NonConductor*%
G36*
X118538771Y-59599305D02*
G01*
X118586383Y-59650441D01*
X118599500Y-59705948D01*
X118599500Y-60019902D01*
X118579815Y-60086941D01*
X118563181Y-60107583D01*
X117962180Y-60708584D01*
X117900857Y-60742069D01*
X117831165Y-60737085D01*
X117775232Y-60695213D01*
X117750815Y-60629749D01*
X117750499Y-60620903D01*
X117750499Y-60154500D01*
X117770184Y-60087461D01*
X117822988Y-60041706D01*
X117874499Y-60030500D01*
X117879055Y-60030500D01*
X117879057Y-60030500D01*
X118031784Y-59989577D01*
X118168716Y-59910520D01*
X118280520Y-59798716D01*
X118307592Y-59751826D01*
X118359575Y-59661788D01*
X118360938Y-59658498D01*
X118362831Y-59656148D01*
X118363641Y-59654746D01*
X118363859Y-59654872D01*
X118404778Y-59604093D01*
X118471072Y-59582027D01*
X118538771Y-59599305D01*
G37*
%TD.AperFunction*%
%TA.AperFunction,NonConductor*%
G36*
X92490943Y-60030501D02*
G01*
X92649057Y-60030501D01*
X92649061Y-60030500D01*
X114925500Y-60030500D01*
X114992539Y-60050185D01*
X115038294Y-60102989D01*
X115049500Y-60154500D01*
X115049501Y-61245500D01*
X115029816Y-61312539D01*
X114977013Y-61358294D01*
X114925501Y-61369500D01*
X92474500Y-61369500D01*
X92407461Y-61349815D01*
X92361706Y-61297011D01*
X92350500Y-61245500D01*
X92350499Y-60154500D01*
X92370184Y-60087461D01*
X92422987Y-60041706D01*
X92446854Y-60036513D01*
X92448396Y-60035523D01*
X92457282Y-60034245D01*
X92474499Y-60030500D01*
X92490939Y-60030500D01*
X92490943Y-60030501D01*
G37*
%TD.AperFunction*%
%TA.AperFunction,NonConductor*%
G36*
X87441942Y-57295185D02*
G01*
X87462584Y-57311819D01*
X89703961Y-59553196D01*
X89737446Y-59614519D01*
X89732462Y-59684211D01*
X89715547Y-59715187D01*
X89706206Y-59727664D01*
X89706202Y-59727671D01*
X89655908Y-59862517D01*
X89649501Y-59922116D01*
X89649500Y-59922127D01*
X89649500Y-60629749D01*
X89649501Y-61245500D01*
X89629816Y-61312539D01*
X89577013Y-61358294D01*
X89525501Y-61369500D01*
X70913553Y-61369500D01*
X70846514Y-61349815D01*
X70825872Y-61333181D01*
X67606046Y-58113355D01*
X67598977Y-58106286D01*
X67598976Y-58106284D01*
X67586813Y-58094121D01*
X67561724Y-58048169D01*
X67553333Y-58032803D01*
X67553332Y-58032801D01*
X67553332Y-58032796D01*
X67550499Y-58006445D01*
X67550499Y-57835638D01*
X67547277Y-57811170D01*
X67535044Y-57718238D01*
X67535042Y-57718234D01*
X67526435Y-57697455D01*
X67518965Y-57627986D01*
X67526435Y-57602545D01*
X67535044Y-57581762D01*
X67550500Y-57464361D01*
X67550500Y-57399500D01*
X67570185Y-57332461D01*
X67622989Y-57286706D01*
X67674500Y-57275500D01*
X87374903Y-57275500D01*
X87441942Y-57295185D01*
G37*
%TD.AperFunction*%
%TA.AperFunction,NonConductor*%
G36*
X67701951Y-59937382D02*
G01*
X67712740Y-59937684D01*
X67733182Y-59951642D01*
X67755694Y-59961921D01*
X67762180Y-59967959D01*
X69507040Y-61712819D01*
X69540525Y-61774142D01*
X69535541Y-61843834D01*
X69493669Y-61899767D01*
X69428205Y-61924184D01*
X69419359Y-61924500D01*
X67674499Y-61924500D01*
X67607460Y-61904815D01*
X67561705Y-61852011D01*
X67550499Y-61800500D01*
X67550499Y-61735638D01*
X67547277Y-61711170D01*
X67535044Y-61618238D01*
X67526434Y-61597454D01*
X67518965Y-61527986D01*
X67526435Y-61502545D01*
X67531713Y-61489803D01*
X67535044Y-61481762D01*
X67550500Y-61364361D01*
X67550499Y-61085640D01*
X67535044Y-60968238D01*
X67535042Y-60968234D01*
X67526435Y-60947455D01*
X67518965Y-60877986D01*
X67526435Y-60852545D01*
X67535044Y-60831762D01*
X67550500Y-60714361D01*
X67550499Y-60435640D01*
X67535044Y-60318238D01*
X67535042Y-60318234D01*
X67526435Y-60297455D01*
X67518797Y-60228935D01*
X67521144Y-60215317D01*
X67535044Y-60181762D01*
X67550500Y-60064361D01*
X67550499Y-60045023D01*
X67552301Y-60034575D01*
X67563207Y-60012355D01*
X67570178Y-59988609D01*
X67578332Y-59981541D01*
X67583088Y-59971854D01*
X67604277Y-59959056D01*
X67622979Y-59942850D01*
X67633657Y-59941313D01*
X67642897Y-59935734D01*
X67667641Y-59936424D01*
X67692136Y-59932901D01*
X67701951Y-59937382D01*
G37*
%TD.AperFunction*%
%TA.AperFunction,NonConductor*%
G36*
X119618834Y-60852914D02*
G01*
X119674767Y-60894786D01*
X119699184Y-60960250D01*
X119699500Y-60969096D01*
X119699500Y-65750903D01*
X119679815Y-65817942D01*
X119627011Y-65863697D01*
X119557853Y-65873641D01*
X119494297Y-65844616D01*
X119487819Y-65838584D01*
X116431416Y-62782181D01*
X116397931Y-62720858D01*
X116402915Y-62651166D01*
X116444787Y-62595233D01*
X116510251Y-62570816D01*
X116519097Y-62570500D01*
X117463331Y-62570500D01*
X117463347Y-62570501D01*
X117470943Y-62570501D01*
X117629054Y-62570501D01*
X117629057Y-62570501D01*
X117781785Y-62529577D01*
X117850410Y-62489956D01*
X117918716Y-62450520D01*
X118030520Y-62338716D01*
X118030520Y-62338714D01*
X118040724Y-62328511D01*
X118040728Y-62328506D01*
X119487819Y-60881415D01*
X119549142Y-60847930D01*
X119618834Y-60852914D01*
G37*
%TD.AperFunction*%
%TA.AperFunction,NonConductor*%
G36*
X35907226Y-26775524D02*
G01*
X35919810Y-26774985D01*
X35939674Y-26786581D01*
X35961444Y-26793999D01*
X35970719Y-26804703D01*
X35980151Y-26810209D01*
X36000486Y-26839056D01*
X36004951Y-26847820D01*
X36129890Y-27019786D01*
X36280213Y-27170109D01*
X36452179Y-27295048D01*
X36452181Y-27295049D01*
X36452184Y-27295051D01*
X36641588Y-27391557D01*
X36843757Y-27457246D01*
X37053713Y-27490500D01*
X37053714Y-27490500D01*
X37266286Y-27490500D01*
X37266287Y-27490500D01*
X37476243Y-27457246D01*
X37518523Y-27443507D01*
X37588362Y-27441511D01*
X37644522Y-27473757D01*
X55125139Y-44954374D01*
X55125149Y-44954385D01*
X55129479Y-44958715D01*
X55129480Y-44958716D01*
X55241284Y-45070520D01*
X55241286Y-45070521D01*
X55291445Y-45099480D01*
X55291444Y-45099480D01*
X55291447Y-45099481D01*
X55378209Y-45149574D01*
X55378210Y-45149574D01*
X55378215Y-45149577D01*
X55530942Y-45190500D01*
X55530943Y-45190500D01*
X80463557Y-45190500D01*
X80530596Y-45210185D01*
X80551238Y-45226819D01*
X89989579Y-54665160D01*
X90023064Y-54726483D01*
X90018080Y-54796175D01*
X89989583Y-54840518D01*
X89969899Y-54860203D01*
X89969892Y-54860211D01*
X89844951Y-55032179D01*
X89748444Y-55221585D01*
X89682753Y-55423760D01*
X89668403Y-55514363D01*
X89649500Y-55633713D01*
X89649500Y-55846287D01*
X89655733Y-55885638D01*
X89682527Y-56054815D01*
X89682754Y-56056243D01*
X89727670Y-56194481D01*
X89748444Y-56258414D01*
X89794704Y-56349205D01*
X89807600Y-56417875D01*
X89781323Y-56482615D01*
X89724217Y-56522872D01*
X89684219Y-56529500D01*
X89430097Y-56529500D01*
X89363058Y-56509815D01*
X89342416Y-56493181D01*
X79284318Y-46435083D01*
X79284316Y-46435080D01*
X79165445Y-46316209D01*
X79165444Y-46316208D01*
X79078632Y-46266088D01*
X79078632Y-46266087D01*
X79078628Y-46266086D01*
X79028513Y-46237151D01*
X78875785Y-46196227D01*
X78717671Y-46196227D01*
X78710075Y-46196227D01*
X78710059Y-46196228D01*
X76117668Y-46196228D01*
X76076747Y-46207192D01*
X76076747Y-46207193D01*
X76039479Y-46217179D01*
X75964942Y-46237151D01*
X75964937Y-46237154D01*
X75828018Y-46316203D01*
X75828010Y-46316209D01*
X75716206Y-46428014D01*
X67409457Y-54734762D01*
X67348134Y-54768247D01*
X67278442Y-54763263D01*
X67259775Y-54754468D01*
X67252842Y-54750465D01*
X67252841Y-54750464D01*
X67252839Y-54750463D01*
X67252837Y-54750462D01*
X67106762Y-54689956D01*
X67106760Y-54689955D01*
X66989370Y-54674501D01*
X66989367Y-54674500D01*
X66989361Y-54674500D01*
X66989354Y-54674500D01*
X65210636Y-54674500D01*
X65093246Y-54689953D01*
X65093237Y-54689956D01*
X64947160Y-54750463D01*
X64821718Y-54846718D01*
X64725463Y-54972160D01*
X64664956Y-55118237D01*
X64664955Y-55118239D01*
X64649500Y-55235638D01*
X64649500Y-55514363D01*
X64664953Y-55631753D01*
X64664957Y-55631765D01*
X64673566Y-55652550D01*
X64681033Y-55722019D01*
X64673566Y-55747450D01*
X64664957Y-55768234D01*
X64664955Y-55768239D01*
X64649500Y-55885638D01*
X64649500Y-56164363D01*
X64659335Y-56239072D01*
X64654716Y-56268683D01*
X64652578Y-56298589D01*
X64649387Y-56302850D01*
X64648568Y-56308107D01*
X64628672Y-56330522D01*
X64610706Y-56354522D01*
X64605719Y-56356381D01*
X64602187Y-56360362D01*
X64573327Y-56368463D01*
X64545242Y-56378939D01*
X64540041Y-56377807D01*
X64534918Y-56379246D01*
X64506259Y-56370458D01*
X64476969Y-56364087D01*
X64471065Y-56359667D01*
X64468118Y-56358764D01*
X64448715Y-56342936D01*
X64419134Y-56313355D01*
X64419132Y-56313352D01*
X64300261Y-56194481D01*
X64300260Y-56194480D01*
X64213448Y-56144360D01*
X64213448Y-56144359D01*
X64213444Y-56144358D01*
X64163329Y-56115423D01*
X64010601Y-56074499D01*
X63852487Y-56074499D01*
X63844891Y-56074499D01*
X63844875Y-56074500D01*
X60674499Y-56074500D01*
X60607460Y-56054815D01*
X60561705Y-56002011D01*
X60550499Y-55950500D01*
X60550499Y-55885638D01*
X60547277Y-55861170D01*
X60535044Y-55768238D01*
X60535042Y-55768234D01*
X60526435Y-55747455D01*
X60518965Y-55677986D01*
X60526435Y-55652545D01*
X60535044Y-55631762D01*
X60550500Y-55514361D01*
X60550499Y-55235640D01*
X60550499Y-55235638D01*
X60550499Y-55235636D01*
X60535046Y-55118246D01*
X60535044Y-55118239D01*
X60535044Y-55118238D01*
X60474536Y-54972159D01*
X60378282Y-54846718D01*
X60252841Y-54750464D01*
X60252836Y-54750462D01*
X60106762Y-54689956D01*
X60106760Y-54689955D01*
X59989370Y-54674501D01*
X59989367Y-54674500D01*
X59989361Y-54674500D01*
X59989354Y-54674500D01*
X58210636Y-54674500D01*
X58093246Y-54689953D01*
X58093234Y-54689957D01*
X57947163Y-54750461D01*
X57940124Y-54754526D01*
X57939117Y-54752783D01*
X57884068Y-54774069D01*
X57873743Y-54774500D01*
X52421294Y-54774500D01*
X52263180Y-54774500D01*
X52110452Y-54815423D01*
X52110451Y-54815423D01*
X52110449Y-54815424D01*
X52110446Y-54815425D01*
X52060333Y-54844359D01*
X52060332Y-54844360D01*
X52032877Y-54860211D01*
X51973522Y-54894479D01*
X51973519Y-54894481D01*
X51861715Y-55006286D01*
X32584522Y-74283478D01*
X32523199Y-74316963D01*
X32458523Y-74313728D01*
X32416245Y-74299991D01*
X32276272Y-74277821D01*
X32206287Y-74266737D01*
X31993713Y-74266737D01*
X31965006Y-74271283D01*
X31783757Y-74299990D01*
X31741473Y-74313729D01*
X31671632Y-74315723D01*
X31615476Y-74283478D01*
X29026819Y-71694821D01*
X28993334Y-71633498D01*
X28990500Y-71607140D01*
X28990500Y-27552127D01*
X29010185Y-27485088D01*
X29062989Y-27439333D01*
X29132147Y-27429389D01*
X29152813Y-27434194D01*
X29223757Y-27457246D01*
X29433713Y-27490500D01*
X29433714Y-27490500D01*
X29646286Y-27490500D01*
X29646287Y-27490500D01*
X29856243Y-27457246D01*
X30058412Y-27391557D01*
X30247816Y-27295051D01*
X30334138Y-27232335D01*
X30419786Y-27170109D01*
X30419788Y-27170106D01*
X30419792Y-27170104D01*
X30570104Y-27019792D01*
X30570106Y-27019788D01*
X30570109Y-27019786D01*
X30695048Y-26847820D01*
X30695047Y-26847820D01*
X30695051Y-26847816D01*
X30699514Y-26839054D01*
X30747488Y-26788259D01*
X30815308Y-26771463D01*
X30881444Y-26793999D01*
X30920486Y-26839056D01*
X30924951Y-26847820D01*
X31049890Y-27019786D01*
X31200213Y-27170109D01*
X31372179Y-27295048D01*
X31372181Y-27295049D01*
X31372184Y-27295051D01*
X31561588Y-27391557D01*
X31763757Y-27457246D01*
X31973713Y-27490500D01*
X31973714Y-27490500D01*
X32186286Y-27490500D01*
X32186287Y-27490500D01*
X32396243Y-27457246D01*
X32598412Y-27391557D01*
X32787816Y-27295051D01*
X32874138Y-27232335D01*
X32959786Y-27170109D01*
X32959788Y-27170106D01*
X32959792Y-27170104D01*
X33110104Y-27019792D01*
X33110106Y-27019788D01*
X33110109Y-27019786D01*
X33235048Y-26847820D01*
X33235047Y-26847820D01*
X33235051Y-26847816D01*
X33239514Y-26839054D01*
X33287488Y-26788259D01*
X33355308Y-26771463D01*
X33421444Y-26793999D01*
X33460486Y-26839056D01*
X33464951Y-26847820D01*
X33589890Y-27019786D01*
X33740213Y-27170109D01*
X33912179Y-27295048D01*
X33912181Y-27295049D01*
X33912184Y-27295051D01*
X34101588Y-27391557D01*
X34303757Y-27457246D01*
X34513713Y-27490500D01*
X34513714Y-27490500D01*
X34726286Y-27490500D01*
X34726287Y-27490500D01*
X34936243Y-27457246D01*
X35138412Y-27391557D01*
X35327816Y-27295051D01*
X35414138Y-27232335D01*
X35499786Y-27170109D01*
X35499788Y-27170106D01*
X35499792Y-27170104D01*
X35650104Y-27019792D01*
X35650106Y-27019788D01*
X35650109Y-27019786D01*
X35775048Y-26847820D01*
X35775047Y-26847820D01*
X35775051Y-26847816D01*
X35779514Y-26839054D01*
X35788160Y-26829900D01*
X35792897Y-26818232D01*
X35811696Y-26804979D01*
X35827488Y-26788259D01*
X35839710Y-26785231D01*
X35850004Y-26777976D01*
X35872985Y-26776991D01*
X35895308Y-26771463D01*
X35907226Y-26775524D01*
G37*
%TD.AperFunction*%
%TA.AperFunction,NonConductor*%
G36*
X25451596Y-19920185D02*
G01*
X25497351Y-19972989D01*
X25507295Y-20042147D01*
X25478270Y-20105703D01*
X25472239Y-20112179D01*
X23983918Y-21600500D01*
X22941286Y-22643132D01*
X22829481Y-22754936D01*
X22829480Y-22754938D01*
X22790265Y-22822861D01*
X22750423Y-22891869D01*
X22709499Y-23044597D01*
X22709499Y-23044599D01*
X22709499Y-23212700D01*
X22709500Y-23212713D01*
X22709500Y-24903330D01*
X22709499Y-24903348D01*
X22709499Y-25069054D01*
X22709498Y-25069054D01*
X22709499Y-25069057D01*
X22750423Y-25221785D01*
X22768658Y-25253368D01*
X22801209Y-25309748D01*
X22829479Y-25358715D01*
X22948349Y-25477585D01*
X22948355Y-25477590D01*
X23073181Y-25602416D01*
X23106666Y-25663739D01*
X23109500Y-25690097D01*
X23109500Y-27037870D01*
X23109501Y-27037876D01*
X23115908Y-27097483D01*
X23166202Y-27232328D01*
X23166206Y-27232335D01*
X23252452Y-27347544D01*
X23252455Y-27347547D01*
X23367664Y-27433793D01*
X23367671Y-27433797D01*
X23368741Y-27434196D01*
X23502517Y-27484091D01*
X23562127Y-27490500D01*
X23735500Y-27490499D01*
X23802539Y-27510183D01*
X23848294Y-27562987D01*
X23859500Y-27614499D01*
X23859500Y-70764221D01*
X23859499Y-70764239D01*
X23859499Y-70929945D01*
X23859498Y-70929945D01*
X23900423Y-71082676D01*
X23929358Y-71132791D01*
X23929359Y-71132795D01*
X23929360Y-71132795D01*
X23976941Y-71215210D01*
X23979479Y-71219605D01*
X23979481Y-71219608D01*
X24098349Y-71338476D01*
X24098355Y-71338481D01*
X26990030Y-74230156D01*
X27023515Y-74291479D01*
X27018531Y-74361171D01*
X26976659Y-74417104D01*
X26958645Y-74428321D01*
X26892182Y-74462186D01*
X26720213Y-74587127D01*
X26569890Y-74737450D01*
X26444951Y-74909416D01*
X26348444Y-75098822D01*
X26282753Y-75300997D01*
X26249500Y-75510950D01*
X26249500Y-75723524D01*
X26249499Y-75723524D01*
X26270498Y-75856103D01*
X26261543Y-75925396D01*
X26216547Y-75978848D01*
X26149795Y-75999487D01*
X26148025Y-75999500D01*
X20824500Y-75999500D01*
X20757461Y-75979815D01*
X20711706Y-75927011D01*
X20700500Y-75875500D01*
X20700500Y-20024500D01*
X20720185Y-19957461D01*
X20772989Y-19911706D01*
X20824500Y-19900500D01*
X25384557Y-19900500D01*
X25451596Y-19920185D01*
G37*
%TD.AperFunction*%
%TA.AperFunction,NonConductor*%
G36*
X25922438Y-27023240D02*
G01*
X25978418Y-27035417D01*
X26006673Y-27056569D01*
X26120213Y-27170109D01*
X26292179Y-27295048D01*
X26292181Y-27295049D01*
X26292184Y-27295051D01*
X26481588Y-27391557D01*
X26683757Y-27457246D01*
X26893713Y-27490500D01*
X26893714Y-27490500D01*
X27106286Y-27490500D01*
X27106287Y-27490500D01*
X27316243Y-27457246D01*
X27518412Y-27391557D01*
X27609204Y-27345295D01*
X27677874Y-27332399D01*
X27742614Y-27358675D01*
X27782872Y-27415781D01*
X27789500Y-27455780D01*
X27789500Y-71820567D01*
X27789499Y-71820585D01*
X27789499Y-71986291D01*
X27789498Y-71986291D01*
X27830423Y-72139022D01*
X27859358Y-72189137D01*
X27859359Y-72189141D01*
X27859360Y-72189141D01*
X27909479Y-72275951D01*
X27909481Y-72275954D01*
X28028349Y-72394822D01*
X28028355Y-72394827D01*
X30766241Y-75132713D01*
X30799726Y-75194036D01*
X30796492Y-75258710D01*
X30782753Y-75300994D01*
X30755891Y-75470601D01*
X30749500Y-75510950D01*
X30749500Y-75723524D01*
X30754160Y-75752947D01*
X30782754Y-75933481D01*
X30782754Y-75933484D01*
X30796491Y-75975760D01*
X30798486Y-76045601D01*
X30766241Y-76101759D01*
X29562181Y-77305820D01*
X29500858Y-77339305D01*
X29431166Y-77334321D01*
X29375233Y-77292449D01*
X29350816Y-77226985D01*
X29350500Y-77218139D01*
X29350500Y-75061836D01*
X29350500Y-75061834D01*
X29309577Y-74909107D01*
X29309577Y-74909106D01*
X29269735Y-74840098D01*
X29230520Y-74772175D01*
X29118716Y-74660371D01*
X29118715Y-74660370D01*
X29114385Y-74656040D01*
X29114374Y-74656030D01*
X25096819Y-70638475D01*
X25063334Y-70577152D01*
X25060500Y-70550794D01*
X25060500Y-27614499D01*
X25080185Y-27547460D01*
X25132989Y-27501705D01*
X25184500Y-27490499D01*
X25357871Y-27490499D01*
X25357872Y-27490499D01*
X25417483Y-27484091D01*
X25552331Y-27433796D01*
X25667546Y-27347546D01*
X25753796Y-27232331D01*
X25802811Y-27100914D01*
X25844682Y-27044983D01*
X25901652Y-27023734D01*
X25910145Y-27020566D01*
X25910146Y-27020566D01*
X25922438Y-27023240D01*
G37*
%TD.AperFunction*%
%TA.AperFunction,NonConductor*%
G36*
X28116856Y-76945518D02*
G01*
X28147684Y-77008219D01*
X28149500Y-77029364D01*
X28149500Y-77693295D01*
X28129815Y-77760334D01*
X28077011Y-77806089D01*
X28007853Y-77816033D01*
X27944297Y-77787008D01*
X27907569Y-77731614D01*
X27833239Y-77502853D01*
X27718870Y-77278392D01*
X27634097Y-77161711D01*
X27610618Y-77095904D01*
X27626444Y-77027851D01*
X27676550Y-76979156D01*
X27715013Y-76966354D01*
X27880915Y-76940078D01*
X27916238Y-76934484D01*
X27916238Y-76934483D01*
X27916243Y-76934483D01*
X27987183Y-76911432D01*
X28057023Y-76909438D01*
X28116856Y-76945518D01*
G37*
%TD.AperFunction*%
%TA.AperFunction,NonConductor*%
G36*
X63698486Y-57945185D02*
G01*
X63719127Y-57961818D01*
X63989061Y-58231753D01*
X64153251Y-58395943D01*
X64638760Y-58881451D01*
X64672245Y-58942774D01*
X64667261Y-59012465D01*
X64665645Y-59016574D01*
X64664957Y-59018235D01*
X64664955Y-59018239D01*
X64649500Y-59135638D01*
X64649500Y-59414363D01*
X64664953Y-59531753D01*
X64664957Y-59531765D01*
X64673566Y-59552550D01*
X64681033Y-59622019D01*
X64673566Y-59647450D01*
X64664957Y-59668234D01*
X64664955Y-59668239D01*
X64649500Y-59785638D01*
X64649500Y-60064363D01*
X64664953Y-60181753D01*
X64664957Y-60181765D01*
X64673566Y-60202550D01*
X64681033Y-60272019D01*
X64673566Y-60297450D01*
X64664957Y-60318234D01*
X64664955Y-60318239D01*
X64649500Y-60435638D01*
X64649500Y-60714363D01*
X64664953Y-60831753D01*
X64664957Y-60831765D01*
X64673566Y-60852550D01*
X64681033Y-60922019D01*
X64673566Y-60947450D01*
X64664957Y-60968234D01*
X64664955Y-60968239D01*
X64649500Y-61085638D01*
X64649500Y-61364363D01*
X64664953Y-61481753D01*
X64664956Y-61481761D01*
X64665641Y-61483415D01*
X64665802Y-61484920D01*
X64667059Y-61489608D01*
X64666327Y-61489803D01*
X64673108Y-61552885D01*
X64641832Y-61615363D01*
X64638760Y-61618547D01*
X64431286Y-61826022D01*
X64319481Y-61937826D01*
X64319480Y-61937828D01*
X64285480Y-61996718D01*
X64240423Y-62074759D01*
X64199499Y-62227487D01*
X64199499Y-62227489D01*
X64199499Y-62395590D01*
X64199500Y-62395603D01*
X64199500Y-80075500D01*
X64179815Y-80142539D01*
X64127011Y-80188294D01*
X64075500Y-80199500D01*
X62799501Y-80199500D01*
X62790815Y-80196949D01*
X62781857Y-80198238D01*
X62757817Y-80187260D01*
X62732462Y-80179815D01*
X62726535Y-80172975D01*
X62718301Y-80169215D01*
X62704011Y-80146981D01*
X62686707Y-80127011D01*
X62684419Y-80116498D01*
X62680525Y-80110438D01*
X62675501Y-80075500D01*
X62675501Y-80075497D01*
X62675501Y-80045942D01*
X62675500Y-80045938D01*
X62675500Y-61795943D01*
X62634577Y-61643216D01*
X62634573Y-61643209D01*
X62555524Y-61506290D01*
X62555518Y-61506282D01*
X62443717Y-61394481D01*
X62443709Y-61394475D01*
X62306790Y-61315426D01*
X62306786Y-61315424D01*
X62306784Y-61315423D01*
X62154057Y-61274500D01*
X62154056Y-61274500D01*
X60674499Y-61274500D01*
X60607460Y-61254815D01*
X60561705Y-61202011D01*
X60550499Y-61150500D01*
X60550499Y-61085638D01*
X60547277Y-61061170D01*
X60535044Y-60968238D01*
X60535042Y-60968234D01*
X60526435Y-60947455D01*
X60518965Y-60877986D01*
X60526435Y-60852545D01*
X60535044Y-60831762D01*
X60550500Y-60714361D01*
X60550499Y-60435640D01*
X60535044Y-60318238D01*
X60535042Y-60318234D01*
X60526435Y-60297455D01*
X60518965Y-60227986D01*
X60526435Y-60202545D01*
X60535044Y-60181762D01*
X60550500Y-60064361D01*
X60550499Y-59785640D01*
X60535044Y-59668238D01*
X60535042Y-59668234D01*
X60526435Y-59647455D01*
X60518965Y-59577986D01*
X60526435Y-59552545D01*
X60535044Y-59531762D01*
X60550500Y-59414361D01*
X60550499Y-59135640D01*
X60535044Y-59018238D01*
X60526434Y-58997454D01*
X60518965Y-58927986D01*
X60526435Y-58902545D01*
X60526536Y-58902301D01*
X60535044Y-58881762D01*
X60550500Y-58764361D01*
X60550499Y-58485640D01*
X60535044Y-58368238D01*
X60535042Y-58368234D01*
X60526435Y-58347455D01*
X60518965Y-58277986D01*
X60526435Y-58252545D01*
X60535044Y-58231762D01*
X60550500Y-58114361D01*
X60550500Y-58049500D01*
X60570185Y-57982461D01*
X60622989Y-57936706D01*
X60674500Y-57925500D01*
X63631447Y-57925500D01*
X63698486Y-57945185D01*
G37*
%TD.AperFunction*%
%TA.AperFunction,NonConductor*%
G36*
X57805703Y-64336563D02*
G01*
X57817166Y-64348730D01*
X57821713Y-64353277D01*
X57821715Y-64353279D01*
X57821718Y-64353282D01*
X57947159Y-64449536D01*
X58093238Y-64510044D01*
X58210639Y-64525500D01*
X59224902Y-64525499D01*
X59291941Y-64545183D01*
X59312583Y-64561818D01*
X59763181Y-65012416D01*
X59796666Y-65073739D01*
X59799500Y-65100097D01*
X59799500Y-78875499D01*
X59779815Y-78942538D01*
X59727011Y-78988293D01*
X59675500Y-78999499D01*
X59521174Y-78999499D01*
X59444810Y-79019961D01*
X59368445Y-79040423D01*
X59368440Y-79040426D01*
X59231521Y-79119475D01*
X59231513Y-79119481D01*
X57812181Y-80538814D01*
X57750858Y-80572299D01*
X57681166Y-80567315D01*
X57625233Y-80525443D01*
X57600816Y-80459979D01*
X57600500Y-80451133D01*
X57600500Y-64430276D01*
X57620185Y-64363237D01*
X57672989Y-64317482D01*
X57742147Y-64307538D01*
X57805703Y-64336563D01*
G37*
%TD.AperFunction*%
%TA.AperFunction,NonConductor*%
G36*
X65966941Y-64545184D02*
G01*
X65987583Y-64561818D01*
X66341182Y-64915417D01*
X66374667Y-64976740D01*
X66377501Y-65003098D01*
X66377501Y-80803694D01*
X66357816Y-80870733D01*
X66309797Y-80914178D01*
X66191569Y-80974418D01*
X66069310Y-81063246D01*
X66000491Y-81113246D01*
X66000489Y-81113248D01*
X66000488Y-81113248D01*
X65833486Y-81280250D01*
X65833486Y-81280251D01*
X65833484Y-81280253D01*
X65775854Y-81359573D01*
X65694658Y-81471329D01*
X65587435Y-81681765D01*
X65587433Y-81681770D01*
X65587433Y-81681771D01*
X65587338Y-81682062D01*
X65587271Y-81682160D01*
X65585572Y-81686264D01*
X65584709Y-81685906D01*
X65547901Y-81739735D01*
X65483542Y-81766932D01*
X65469409Y-81767740D01*
X61986593Y-81767740D01*
X61919554Y-81748055D01*
X61875450Y-81698723D01*
X61871449Y-81690636D01*
X61868569Y-81681771D01*
X61816805Y-81580179D01*
X61816461Y-81579483D01*
X61810545Y-81545793D01*
X61804223Y-81512126D01*
X61804510Y-81511418D01*
X61804378Y-81510666D01*
X61817618Y-81479122D01*
X61830499Y-81447385D01*
X61831124Y-81446944D01*
X61831419Y-81446242D01*
X61859586Y-81426879D01*
X61887606Y-81407128D01*
X61888548Y-81406971D01*
X61888998Y-81406663D01*
X61890737Y-81406609D01*
X61927604Y-81400500D01*
X64879055Y-81400500D01*
X64879057Y-81400500D01*
X65031784Y-81359577D01*
X65168716Y-81280520D01*
X65280520Y-81168716D01*
X65359577Y-81031784D01*
X65400500Y-80879057D01*
X65400500Y-64649499D01*
X65420185Y-64582460D01*
X65472989Y-64536705D01*
X65524500Y-64525499D01*
X65899902Y-64525499D01*
X65966941Y-64545184D01*
G37*
%TD.AperFunction*%
%TA.AperFunction,NonConductor*%
G36*
X67783704Y-64758386D02*
G01*
X67790182Y-64764418D01*
X78691182Y-75665418D01*
X78724667Y-75726741D01*
X78727501Y-75753099D01*
X78727501Y-80753694D01*
X78707816Y-80820733D01*
X78659797Y-80864178D01*
X78541569Y-80924418D01*
X78469678Y-80976651D01*
X78350491Y-81063246D01*
X78350489Y-81063248D01*
X78350488Y-81063248D01*
X78183486Y-81230250D01*
X78183486Y-81230251D01*
X78183484Y-81230253D01*
X78147159Y-81280250D01*
X78044658Y-81421329D01*
X77937434Y-81631766D01*
X77864447Y-81856394D01*
X77827501Y-82089665D01*
X77827501Y-82325860D01*
X77864447Y-82559131D01*
X77937435Y-82783761D01*
X77955495Y-82819204D01*
X77968392Y-82887873D01*
X77942116Y-82952614D01*
X77885010Y-82992871D01*
X77845011Y-82999500D01*
X68485386Y-82999500D01*
X68418347Y-82979815D01*
X68372592Y-82927011D01*
X68362648Y-82857853D01*
X68367455Y-82837181D01*
X68368566Y-82833759D01*
X68368569Y-82833755D01*
X68441554Y-82609131D01*
X68449473Y-82559131D01*
X68478501Y-82375860D01*
X68478501Y-82139665D01*
X68441554Y-81906394D01*
X68396502Y-81767740D01*
X68368569Y-81681771D01*
X68368567Y-81681768D01*
X68368567Y-81681766D01*
X68296108Y-81539558D01*
X68261344Y-81471330D01*
X68122518Y-81280253D01*
X67955511Y-81113246D01*
X67767505Y-80976651D01*
X67764432Y-80974418D01*
X67646205Y-80914178D01*
X67595410Y-80866204D01*
X67578501Y-80803694D01*
X67578501Y-64852099D01*
X67598186Y-64785060D01*
X67650990Y-64739305D01*
X67720148Y-64729361D01*
X67783704Y-64758386D01*
G37*
%TD.AperFunction*%
%TA.AperFunction,NonConductor*%
G36*
X24885507Y-77220185D02*
G01*
X24931262Y-77272989D01*
X24941206Y-77342147D01*
X24928953Y-77380795D01*
X24866760Y-77502853D01*
X24788910Y-77742451D01*
X24749500Y-77991275D01*
X24749500Y-78243198D01*
X24788910Y-78492022D01*
X24866760Y-78731620D01*
X24981132Y-78956085D01*
X25129201Y-79159886D01*
X25129205Y-79159891D01*
X25307345Y-79338031D01*
X25307350Y-79338035D01*
X25391950Y-79399500D01*
X25511155Y-79486107D01*
X25654184Y-79558984D01*
X25735616Y-79600476D01*
X25735618Y-79600476D01*
X25735621Y-79600478D01*
X25975215Y-79678327D01*
X26164085Y-79708241D01*
X26227220Y-79738170D01*
X26264151Y-79797482D01*
X26263153Y-79867344D01*
X26232368Y-79918395D01*
X21612181Y-84538583D01*
X21550858Y-84572068D01*
X21481166Y-84567084D01*
X21425233Y-84525212D01*
X21400816Y-84459748D01*
X21400500Y-84450902D01*
X21400500Y-77324500D01*
X21420185Y-77257461D01*
X21472989Y-77211706D01*
X21524500Y-77200500D01*
X24818468Y-77200500D01*
X24885507Y-77220185D01*
G37*
%TD.AperFunction*%
%TA.AperFunction,NonConductor*%
G36*
X107881320Y-75662422D02*
G01*
X107924765Y-75710442D01*
X107944940Y-75750038D01*
X107946723Y-75752947D01*
X107947062Y-75754203D01*
X107947160Y-75754394D01*
X107947119Y-75754414D01*
X107964967Y-75820393D01*
X107943850Y-75886996D01*
X107890079Y-75931609D01*
X107840995Y-75941737D01*
X107724038Y-75941737D01*
X107599626Y-75961442D01*
X107475214Y-75981147D01*
X107235616Y-76058997D01*
X107011151Y-76173369D01*
X106807350Y-76321438D01*
X106807345Y-76321442D01*
X106629205Y-76499582D01*
X106629201Y-76499587D01*
X106481132Y-76703388D01*
X106366760Y-76927853D01*
X106290775Y-77161711D01*
X106288910Y-77167452D01*
X106249500Y-77416275D01*
X106249500Y-77668199D01*
X106261261Y-77742452D01*
X106288910Y-77917022D01*
X106366760Y-78156620D01*
X106481132Y-78381085D01*
X106629201Y-78584886D01*
X106629205Y-78584891D01*
X106807345Y-78763031D01*
X106807350Y-78763035D01*
X106962145Y-78875499D01*
X107011155Y-78911107D01*
X107154184Y-78983984D01*
X107235616Y-79025476D01*
X107235618Y-79025476D01*
X107235621Y-79025478D01*
X107475215Y-79103327D01*
X107724038Y-79142737D01*
X107724039Y-79142737D01*
X107975961Y-79142737D01*
X107975962Y-79142737D01*
X108224785Y-79103327D01*
X108422212Y-79039178D01*
X108492050Y-79037184D01*
X108551883Y-79073264D01*
X108582712Y-79135964D01*
X108574748Y-79205379D01*
X108548209Y-79244791D01*
X107512134Y-80280866D01*
X107512126Y-80280874D01*
X107509287Y-80283714D01*
X107509285Y-80283716D01*
X107397481Y-80395520D01*
X107376833Y-80431284D01*
X107318424Y-80532451D01*
X107277500Y-80685179D01*
X107277500Y-80685181D01*
X107277500Y-80853282D01*
X107277501Y-80853295D01*
X107277501Y-83836653D01*
X107257816Y-83903692D01*
X107205012Y-83949447D01*
X107135854Y-83959391D01*
X107115183Y-83954584D01*
X106929371Y-83894210D01*
X106696098Y-83857263D01*
X106696093Y-83857263D01*
X106459909Y-83857263D01*
X106459904Y-83857263D01*
X106226632Y-83894209D01*
X106002004Y-83967196D01*
X105791567Y-84074420D01*
X105682551Y-84153625D01*
X105600491Y-84213246D01*
X105600489Y-84213248D01*
X105600488Y-84213248D01*
X105433486Y-84380250D01*
X105433486Y-84380251D01*
X105433484Y-84380253D01*
X105382154Y-84450902D01*
X105294658Y-84571329D01*
X105279795Y-84600500D01*
X105238386Y-84681771D01*
X105234418Y-84689558D01*
X105186443Y-84740354D01*
X105123933Y-84757263D01*
X101532069Y-84757263D01*
X101465030Y-84737578D01*
X101421584Y-84689558D01*
X101361344Y-84571330D01*
X101222518Y-84380253D01*
X101055511Y-84213246D01*
X100864434Y-84074420D01*
X100844757Y-84064394D01*
X100653997Y-83967196D01*
X100429369Y-83894209D01*
X100196098Y-83857263D01*
X100196093Y-83857263D01*
X99959909Y-83857263D01*
X99959907Y-83857263D01*
X99900894Y-83866609D01*
X99831601Y-83857653D01*
X99778150Y-83812656D01*
X99761724Y-83776230D01*
X99759577Y-83768216D01*
X99753253Y-83757263D01*
X99680524Y-83631290D01*
X99680518Y-83631282D01*
X99568717Y-83519481D01*
X99568709Y-83519475D01*
X99431790Y-83440426D01*
X99431786Y-83440424D01*
X99431784Y-83440423D01*
X99279057Y-83399500D01*
X99279056Y-83399500D01*
X91149097Y-83399500D01*
X91082058Y-83379815D01*
X91036303Y-83327011D01*
X91026359Y-83257853D01*
X91055384Y-83194297D01*
X91061416Y-83187819D01*
X98570179Y-75679056D01*
X98631502Y-75645571D01*
X98657860Y-75642737D01*
X107814281Y-75642737D01*
X107881320Y-75662422D01*
G37*
%TD.AperFunction*%
%TA.AperFunction,NonConductor*%
G36*
X84780914Y-85420185D02*
G01*
X84826669Y-85472989D01*
X84836613Y-85542147D01*
X84807588Y-85605703D01*
X84801556Y-85612181D01*
X84683486Y-85730250D01*
X84683486Y-85730251D01*
X84683484Y-85730253D01*
X84647159Y-85780250D01*
X84544658Y-85921329D01*
X84484418Y-86039558D01*
X84436443Y-86090354D01*
X84373933Y-86107263D01*
X80782069Y-86107263D01*
X80715030Y-86087578D01*
X80671584Y-86039558D01*
X80636820Y-85971330D01*
X80611344Y-85921330D01*
X80472518Y-85730253D01*
X80354446Y-85612181D01*
X80320961Y-85550858D01*
X80325945Y-85481166D01*
X80367817Y-85425233D01*
X80433281Y-85400816D01*
X80442127Y-85400500D01*
X84713875Y-85400500D01*
X84780914Y-85420185D01*
G37*
%TD.AperFunction*%
%TA.AperFunction,NonConductor*%
G36*
X78235120Y-85406738D02*
G01*
X78257209Y-85408318D01*
X78267992Y-85416390D01*
X78280914Y-85420185D01*
X78295413Y-85436918D01*
X78313142Y-85450190D01*
X78317849Y-85462810D01*
X78326669Y-85472989D01*
X78329820Y-85494906D01*
X78337559Y-85515654D01*
X78334696Y-85528814D01*
X78336613Y-85542147D01*
X78327413Y-85562290D01*
X78322707Y-85583927D01*
X78309438Y-85601652D01*
X78307588Y-85605703D01*
X78301556Y-85612181D01*
X78183486Y-85730250D01*
X78183486Y-85730251D01*
X78183484Y-85730253D01*
X78147159Y-85780250D01*
X78044658Y-85921329D01*
X78019182Y-85971329D01*
X77959951Y-86087578D01*
X77958942Y-86089558D01*
X77910968Y-86140354D01*
X77848457Y-86157263D01*
X68432069Y-86157263D01*
X68365030Y-86137578D01*
X68321584Y-86089558D01*
X68261344Y-85971330D01*
X68122518Y-85780253D01*
X67955511Y-85613246D01*
X67954446Y-85612181D01*
X67920961Y-85550858D01*
X67925945Y-85481166D01*
X67967817Y-85425233D01*
X68033281Y-85400816D01*
X68042127Y-85400500D01*
X78213875Y-85400500D01*
X78235120Y-85406738D01*
G37*
%TD.AperFunction*%
%TA.AperFunction,NonConductor*%
G36*
X65980914Y-85420185D02*
G01*
X66026669Y-85472989D01*
X66036613Y-85542147D01*
X66007588Y-85605703D01*
X66001556Y-85612181D01*
X65833486Y-85780250D01*
X65833486Y-85780251D01*
X65833484Y-85780253D01*
X65776806Y-85858263D01*
X65694658Y-85971329D01*
X65666818Y-86025968D01*
X65635427Y-86087578D01*
X65634418Y-86089558D01*
X65586443Y-86140354D01*
X65523933Y-86157263D01*
X61932069Y-86157263D01*
X61865030Y-86137578D01*
X61821584Y-86089558D01*
X61761344Y-85971330D01*
X61622518Y-85780253D01*
X61455511Y-85613246D01*
X61454446Y-85612181D01*
X61420961Y-85550858D01*
X61425945Y-85481166D01*
X61467817Y-85425233D01*
X61533281Y-85400816D01*
X61542127Y-85400500D01*
X65913875Y-85400500D01*
X65980914Y-85420185D01*
G37*
%TD.AperFunction*%
%TA.AperFunction,NonConductor*%
G36*
X96742539Y-85020185D02*
G01*
X96788294Y-85072989D01*
X96799500Y-85124500D01*
X96799500Y-93603546D01*
X96779815Y-93670585D01*
X96727011Y-93716340D01*
X96657853Y-93726284D01*
X96637182Y-93721477D01*
X96529371Y-93686447D01*
X96296098Y-93649500D01*
X96296093Y-93649500D01*
X96059909Y-93649500D01*
X96059904Y-93649500D01*
X95826632Y-93686446D01*
X95602004Y-93759433D01*
X95391567Y-93866657D01*
X95312067Y-93924418D01*
X95200491Y-94005483D01*
X95200489Y-94005485D01*
X95200488Y-94005485D01*
X95033486Y-94172487D01*
X95033486Y-94172488D01*
X95033484Y-94172490D01*
X95020105Y-94190905D01*
X94894658Y-94363566D01*
X94834418Y-94481795D01*
X94786443Y-94532591D01*
X94723933Y-94549500D01*
X91132069Y-94549500D01*
X91065030Y-94529815D01*
X91021584Y-94481795D01*
X90992413Y-94424544D01*
X90961344Y-94363567D01*
X90822518Y-94172490D01*
X90655511Y-94005483D01*
X90464434Y-93866657D01*
X90457235Y-93862989D01*
X90253997Y-93759433D01*
X90029369Y-93686446D01*
X89796098Y-93649500D01*
X89796093Y-93649500D01*
X89559909Y-93649500D01*
X89559904Y-93649500D01*
X89326631Y-93686447D01*
X89326628Y-93686447D01*
X89140819Y-93746821D01*
X89070978Y-93748816D01*
X89011145Y-93712736D01*
X88980317Y-93650035D01*
X88978501Y-93628890D01*
X88978501Y-87098947D01*
X88978501Y-87098944D01*
X88955790Y-87014183D01*
X88937578Y-86946216D01*
X88874418Y-86836820D01*
X88858521Y-86809285D01*
X88746717Y-86697481D01*
X88746714Y-86697479D01*
X87261416Y-85212181D01*
X87227931Y-85150858D01*
X87232915Y-85081166D01*
X87274787Y-85025233D01*
X87340251Y-85000816D01*
X87349097Y-85000500D01*
X96675500Y-85000500D01*
X96742539Y-85020185D01*
G37*
%TD.AperFunction*%
%TA.AperFunction,NonConductor*%
G36*
X55918834Y-63107916D02*
G01*
X55974767Y-63149788D01*
X55999184Y-63215252D01*
X55999500Y-63224098D01*
X55999500Y-93587166D01*
X55979815Y-93654205D01*
X55927011Y-93699960D01*
X55894898Y-93709639D01*
X55676632Y-93744209D01*
X55452004Y-93817196D01*
X55241567Y-93924420D01*
X55193301Y-93959488D01*
X55050491Y-94063246D01*
X55050489Y-94063248D01*
X55050488Y-94063248D01*
X54883486Y-94230250D01*
X54883486Y-94230251D01*
X54883484Y-94230253D01*
X54835200Y-94296710D01*
X54744658Y-94421329D01*
X54743020Y-94424544D01*
X54687968Y-94532591D01*
X54684418Y-94539558D01*
X54636443Y-94590354D01*
X54573933Y-94607263D01*
X50982069Y-94607263D01*
X50915030Y-94587578D01*
X50871584Y-94539558D01*
X50811344Y-94421330D01*
X50672518Y-94230253D01*
X50505511Y-94063246D01*
X50337059Y-93940858D01*
X50314432Y-93924418D01*
X50196205Y-93864178D01*
X50145410Y-93816204D01*
X50128501Y-93753694D01*
X50128501Y-68847097D01*
X50148186Y-68780058D01*
X50164820Y-68759416D01*
X55787819Y-63136417D01*
X55849142Y-63102932D01*
X55918834Y-63107916D01*
G37*
%TD.AperFunction*%
%TA.AperFunction,NonConductor*%
G36*
X35111300Y-93810185D02*
G01*
X35157055Y-93862989D01*
X35166999Y-93932147D01*
X35137974Y-93995703D01*
X35117149Y-94014815D01*
X35050491Y-94063246D01*
X35050489Y-94063248D01*
X35050488Y-94063248D01*
X34883486Y-94230250D01*
X34883486Y-94230251D01*
X34883484Y-94230253D01*
X34835200Y-94296710D01*
X34744658Y-94421329D01*
X34743020Y-94424544D01*
X34687968Y-94532591D01*
X34684418Y-94539558D01*
X34636443Y-94590354D01*
X34573933Y-94607263D01*
X30982069Y-94607263D01*
X30915030Y-94587578D01*
X30871584Y-94539558D01*
X30811344Y-94421330D01*
X30672518Y-94230253D01*
X30505511Y-94063246D01*
X30438854Y-94014816D01*
X30396190Y-93959488D01*
X30390211Y-93889874D01*
X30422817Y-93828080D01*
X30483656Y-93793722D01*
X30511741Y-93790500D01*
X35044261Y-93790500D01*
X35111300Y-93810185D01*
G37*
%TD.AperFunction*%
%TA.AperFunction,NonConductor*%
G36*
X94738535Y-95754787D02*
G01*
X94753740Y-95754136D01*
X94771378Y-95764431D01*
X94790972Y-95770185D01*
X94801868Y-95782229D01*
X94814082Y-95789358D01*
X94834416Y-95818202D01*
X94894658Y-95936433D01*
X95033484Y-96127510D01*
X95033486Y-96127512D01*
X95093793Y-96187819D01*
X95127278Y-96249142D01*
X95122294Y-96318834D01*
X95080422Y-96374767D01*
X95014958Y-96399184D01*
X95006112Y-96399500D01*
X90849890Y-96399500D01*
X90782851Y-96379815D01*
X90737096Y-96327011D01*
X90727152Y-96257853D01*
X90756177Y-96194297D01*
X90762209Y-96187819D01*
X90781314Y-96168714D01*
X90822518Y-96127510D01*
X90961344Y-95936433D01*
X91021584Y-95818204D01*
X91069559Y-95767409D01*
X91132069Y-95750500D01*
X94723933Y-95750500D01*
X94738535Y-95754787D01*
G37*
%TD.AperFunction*%
%TA.AperFunction,NonConductor*%
G36*
X87430688Y-87089297D02*
G01*
X87463658Y-87112893D01*
X87741182Y-87390417D01*
X87774667Y-87451740D01*
X87777501Y-87478098D01*
X87777501Y-96600903D01*
X87757816Y-96667942D01*
X87705012Y-96713697D01*
X87635854Y-96723641D01*
X87572298Y-96694616D01*
X87565820Y-96688584D01*
X86464820Y-95587584D01*
X86431335Y-95526261D01*
X86428501Y-95499903D01*
X86428501Y-88161830D01*
X86448186Y-88094791D01*
X86496206Y-88051345D01*
X86614434Y-87991106D01*
X86805511Y-87852280D01*
X86972518Y-87685273D01*
X87111344Y-87494196D01*
X87218569Y-87283755D01*
X87258047Y-87162254D01*
X87297483Y-87104580D01*
X87361842Y-87077382D01*
X87430688Y-87089297D01*
G37*
%TD.AperFunction*%
%TA.AperFunction,NonConductor*%
G36*
X57805703Y-83970681D02*
G01*
X57812178Y-83976710D01*
X58406796Y-84571329D01*
X58999841Y-85164374D01*
X58999851Y-85164385D01*
X59004181Y-85168715D01*
X59004182Y-85168716D01*
X59115986Y-85280520D01*
X59115988Y-85280521D01*
X59115992Y-85280524D01*
X59252911Y-85359573D01*
X59252918Y-85359577D01*
X59364721Y-85389534D01*
X59405644Y-85400500D01*
X59405645Y-85400500D01*
X59425366Y-85400500D01*
X59436666Y-85402613D01*
X59457975Y-85413449D01*
X59480914Y-85420185D01*
X59488549Y-85428997D01*
X59498946Y-85434284D01*
X59511016Y-85454924D01*
X59526669Y-85472989D01*
X59528328Y-85484529D01*
X59534216Y-85494598D01*
X59533210Y-85518484D01*
X59536613Y-85542147D01*
X59531768Y-85552755D01*
X59531278Y-85564406D01*
X59517519Y-85583955D01*
X59507588Y-85605703D01*
X59501556Y-85612181D01*
X59333486Y-85780250D01*
X59333486Y-85780251D01*
X59333484Y-85780253D01*
X59276806Y-85858263D01*
X59194658Y-85971329D01*
X59087434Y-86181766D01*
X59014447Y-86406394D01*
X58977501Y-86639665D01*
X58977501Y-86875860D01*
X59014447Y-87109131D01*
X59087434Y-87333759D01*
X59194658Y-87544196D01*
X59333484Y-87735273D01*
X59500491Y-87902280D01*
X59643798Y-88006399D01*
X59691569Y-88041107D01*
X59711663Y-88051345D01*
X59809795Y-88101345D01*
X59860591Y-88149319D01*
X59877501Y-88211830D01*
X59877501Y-94957665D01*
X59857816Y-95024704D01*
X59841182Y-95045346D01*
X57812181Y-97074347D01*
X57792744Y-97084959D01*
X57776011Y-97099460D01*
X57762679Y-97101376D01*
X57750858Y-97107832D01*
X57728771Y-97106252D01*
X57706853Y-97109404D01*
X57694601Y-97103808D01*
X57681166Y-97102848D01*
X57663439Y-97089577D01*
X57643297Y-97080379D01*
X57636014Y-97069047D01*
X57625233Y-97060976D01*
X57617495Y-97040230D01*
X57605523Y-97021601D01*
X57602371Y-96999682D01*
X57600816Y-96995512D01*
X57600500Y-96986666D01*
X57600500Y-96940024D01*
X57620185Y-96872985D01*
X57636815Y-96852347D01*
X58086507Y-96402654D01*
X58086512Y-96402651D01*
X58096715Y-96392447D01*
X58096717Y-96392447D01*
X58208521Y-96280643D01*
X58263582Y-96185273D01*
X58287578Y-96143712D01*
X58328502Y-95990984D01*
X58328502Y-95832870D01*
X58328502Y-95825275D01*
X58328501Y-95825257D01*
X58328501Y-94592660D01*
X58328502Y-94592647D01*
X58328502Y-94424544D01*
X58327641Y-94421329D01*
X58287578Y-94271816D01*
X58278515Y-94256118D01*
X58263588Y-94230264D01*
X58208523Y-94134887D01*
X58208522Y-94134886D01*
X58208521Y-94134884D01*
X58096717Y-94023080D01*
X58096716Y-94023079D01*
X58092386Y-94018749D01*
X58092375Y-94018739D01*
X57636819Y-93563182D01*
X57603334Y-93501859D01*
X57600500Y-93475501D01*
X57600500Y-84064394D01*
X57620185Y-83997355D01*
X57672989Y-83951600D01*
X57742147Y-83941656D01*
X57805703Y-83970681D01*
G37*
%TD.AperFunction*%
%TA.AperFunction,NonConductor*%
G36*
X57592540Y-55995185D02*
G01*
X57638295Y-56047989D01*
X57649501Y-56099500D01*
X57649501Y-56164363D01*
X57664953Y-56281753D01*
X57664957Y-56281765D01*
X57673566Y-56302550D01*
X57681033Y-56372019D01*
X57673566Y-56397450D01*
X57664957Y-56418234D01*
X57664955Y-56418239D01*
X57649500Y-56535638D01*
X57649500Y-56814363D01*
X57664953Y-56931753D01*
X57664957Y-56931765D01*
X57673566Y-56952550D01*
X57681033Y-57022019D01*
X57673566Y-57047450D01*
X57664957Y-57068234D01*
X57664955Y-57068239D01*
X57649500Y-57185638D01*
X57649500Y-57464363D01*
X57664953Y-57581753D01*
X57664957Y-57581765D01*
X57673566Y-57602550D01*
X57681033Y-57672019D01*
X57673566Y-57697450D01*
X57664957Y-57718234D01*
X57664955Y-57718239D01*
X57649500Y-57835638D01*
X57649500Y-58114363D01*
X57664953Y-58231753D01*
X57664957Y-58231765D01*
X57673566Y-58252550D01*
X57681033Y-58322019D01*
X57673566Y-58347450D01*
X57664957Y-58368234D01*
X57664955Y-58368239D01*
X57649500Y-58485638D01*
X57649500Y-58764363D01*
X57660353Y-58846805D01*
X57649586Y-58915840D01*
X57625095Y-58950669D01*
X45609287Y-70966478D01*
X45497482Y-71078282D01*
X45497480Y-71078285D01*
X45447362Y-71165094D01*
X45447360Y-71165096D01*
X45418426Y-71215209D01*
X45418425Y-71215210D01*
X45417247Y-71219607D01*
X45377500Y-71367943D01*
X45377500Y-71367945D01*
X45377500Y-71536046D01*
X45377501Y-71536059D01*
X45377501Y-83803694D01*
X45357816Y-83870733D01*
X45309797Y-83914178D01*
X45191569Y-83974418D01*
X45067730Y-84064394D01*
X45000491Y-84113246D01*
X45000489Y-84113248D01*
X45000488Y-84113248D01*
X44833486Y-84280250D01*
X44833486Y-84280251D01*
X44833484Y-84280253D01*
X44773863Y-84362313D01*
X44694658Y-84471329D01*
X44667204Y-84525212D01*
X44643706Y-84571330D01*
X44634418Y-84589558D01*
X44586443Y-84640354D01*
X44523933Y-84657263D01*
X40932069Y-84657263D01*
X40865030Y-84637578D01*
X40821584Y-84589558D01*
X40761344Y-84471330D01*
X40622518Y-84280253D01*
X40455511Y-84113246D01*
X40264434Y-83974420D01*
X40225504Y-83954584D01*
X40053997Y-83867196D01*
X39829369Y-83794209D01*
X39596098Y-83757263D01*
X39596093Y-83757263D01*
X39359909Y-83757263D01*
X39359904Y-83757263D01*
X39126632Y-83794209D01*
X38902004Y-83867196D01*
X38691567Y-83974420D01*
X38614897Y-84030125D01*
X38500491Y-84113246D01*
X38500489Y-84113248D01*
X38500488Y-84113248D01*
X38333486Y-84280250D01*
X38333486Y-84280251D01*
X38333484Y-84280253D01*
X38273863Y-84362313D01*
X38194658Y-84471329D01*
X38087434Y-84681766D01*
X38014447Y-84906394D01*
X37977501Y-85139665D01*
X37977501Y-85375860D01*
X38014447Y-85609131D01*
X38087434Y-85833759D01*
X38160903Y-85977948D01*
X38194658Y-86044196D01*
X38333484Y-86235273D01*
X38500491Y-86402280D01*
X38691568Y-86541106D01*
X38790992Y-86591765D01*
X38902004Y-86648329D01*
X38902006Y-86648329D01*
X38902009Y-86648331D01*
X39016095Y-86685400D01*
X39126632Y-86721316D01*
X39359904Y-86758263D01*
X39359909Y-86758263D01*
X39596098Y-86758263D01*
X39829369Y-86721316D01*
X39902725Y-86697481D01*
X40053993Y-86648331D01*
X40264434Y-86541106D01*
X40455511Y-86402280D01*
X40622518Y-86235273D01*
X40761344Y-86044196D01*
X40821584Y-85925967D01*
X40869559Y-85875172D01*
X40932069Y-85858263D01*
X44523933Y-85858263D01*
X44590972Y-85877948D01*
X44634417Y-85925966D01*
X44694658Y-86044196D01*
X44833484Y-86235273D01*
X45000491Y-86402280D01*
X45191568Y-86541106D01*
X45290992Y-86591765D01*
X45402004Y-86648329D01*
X45402006Y-86648329D01*
X45402009Y-86648331D01*
X45516095Y-86685400D01*
X45626632Y-86721316D01*
X45859904Y-86758263D01*
X45859909Y-86758263D01*
X46096098Y-86758263D01*
X46329369Y-86721316D01*
X46402725Y-86697481D01*
X46553993Y-86648331D01*
X46764434Y-86541106D01*
X46955511Y-86402280D01*
X47122518Y-86235273D01*
X47261344Y-86044196D01*
X47368569Y-85833755D01*
X47441554Y-85609131D01*
X47442739Y-85601652D01*
X47478501Y-85375860D01*
X47478501Y-85139665D01*
X47441554Y-84906394D01*
X47386702Y-84737578D01*
X47368569Y-84681771D01*
X47368567Y-84681768D01*
X47368567Y-84681766D01*
X47261343Y-84471329D01*
X47195172Y-84380253D01*
X47122518Y-84280253D01*
X46955511Y-84113246D01*
X46841105Y-84030125D01*
X46764432Y-83974418D01*
X46646205Y-83914178D01*
X46595410Y-83866204D01*
X46578501Y-83803694D01*
X46578501Y-71747097D01*
X46598186Y-71680058D01*
X46614820Y-71659416D01*
X48715820Y-69558416D01*
X48777143Y-69524931D01*
X48846835Y-69529915D01*
X48902768Y-69571787D01*
X48927185Y-69637251D01*
X48927501Y-69646097D01*
X48927501Y-93753694D01*
X48907816Y-93820733D01*
X48859797Y-93864178D01*
X48741569Y-93924418D01*
X48627827Y-94007058D01*
X48550491Y-94063246D01*
X48550489Y-94063248D01*
X48550488Y-94063248D01*
X48383486Y-94230250D01*
X48383486Y-94230251D01*
X48383484Y-94230253D01*
X48335200Y-94296710D01*
X48244658Y-94421329D01*
X48137434Y-94631766D01*
X48064447Y-94856394D01*
X48027501Y-95089665D01*
X48027501Y-95325860D01*
X48064447Y-95559131D01*
X48137434Y-95783759D01*
X48215226Y-95936433D01*
X48244658Y-95994196D01*
X48383484Y-96185273D01*
X48550491Y-96352280D01*
X48741568Y-96491106D01*
X48838639Y-96540566D01*
X48952004Y-96598329D01*
X48952006Y-96598329D01*
X48952009Y-96598331D01*
X49000381Y-96614048D01*
X49176632Y-96671316D01*
X49409904Y-96708263D01*
X49409909Y-96708263D01*
X49646098Y-96708263D01*
X49879369Y-96671316D01*
X49942461Y-96650816D01*
X50103993Y-96598331D01*
X50314434Y-96491106D01*
X50505511Y-96352280D01*
X50672518Y-96185273D01*
X50811344Y-95994196D01*
X50871584Y-95875967D01*
X50919559Y-95825172D01*
X50982069Y-95808263D01*
X54573933Y-95808263D01*
X54640972Y-95827948D01*
X54684417Y-95875966D01*
X54744658Y-95994196D01*
X54883484Y-96185273D01*
X55050491Y-96352280D01*
X55241568Y-96491106D01*
X55338639Y-96540566D01*
X55452004Y-96598329D01*
X55452006Y-96598329D01*
X55452009Y-96598331D01*
X55676633Y-96671316D01*
X55774817Y-96686866D01*
X55784005Y-96688322D01*
X55847139Y-96718251D01*
X55884071Y-96777562D01*
X55883073Y-96847425D01*
X55852288Y-96898476D01*
X55587584Y-97163181D01*
X55526261Y-97196666D01*
X55499903Y-97199500D01*
X36900098Y-97199500D01*
X36870657Y-97190855D01*
X36840671Y-97184332D01*
X36835655Y-97180577D01*
X36833059Y-97179815D01*
X36812417Y-97163181D01*
X36664820Y-97015584D01*
X36631335Y-96954261D01*
X36628501Y-96927903D01*
X36628501Y-96661830D01*
X36648186Y-96594791D01*
X36696206Y-96551345D01*
X36814434Y-96491106D01*
X37005511Y-96352280D01*
X37172518Y-96185273D01*
X37311344Y-95994196D01*
X37418569Y-95783755D01*
X37491554Y-95559131D01*
X37502575Y-95489546D01*
X37528501Y-95325860D01*
X37528501Y-95089665D01*
X37491554Y-94856394D01*
X37418567Y-94631766D01*
X37342152Y-94481795D01*
X37311344Y-94421330D01*
X37172518Y-94230253D01*
X37005511Y-94063246D01*
X36814434Y-93924420D01*
X36746634Y-93889874D01*
X36603997Y-93817196D01*
X36542695Y-93797278D01*
X36540425Y-93795726D01*
X36537683Y-93795530D01*
X36511755Y-93776121D01*
X36485020Y-93757840D01*
X36483949Y-93755307D01*
X36481749Y-93753660D01*
X36470430Y-93723316D01*
X36457822Y-93693481D01*
X36458290Y-93690771D01*
X36457330Y-93688196D01*
X36464214Y-93656546D01*
X36469737Y-93624634D01*
X36471774Y-93621787D01*
X36472180Y-93619923D01*
X36493314Y-93591690D01*
X36493327Y-93591672D01*
X36526284Y-93558716D01*
X36526285Y-93558713D01*
X38874438Y-91210559D01*
X38935759Y-91177076D01*
X39000434Y-91180310D01*
X39126633Y-91221316D01*
X39214111Y-91235171D01*
X39359904Y-91258263D01*
X39359909Y-91258263D01*
X39596098Y-91258263D01*
X39829369Y-91221316D01*
X39890833Y-91201345D01*
X40053993Y-91148331D01*
X40264434Y-91041106D01*
X40455511Y-90902280D01*
X40622518Y-90735273D01*
X40761344Y-90544196D01*
X40821584Y-90425967D01*
X40869559Y-90375172D01*
X40932069Y-90358263D01*
X44523933Y-90358263D01*
X44590972Y-90377948D01*
X44634417Y-90425966D01*
X44694658Y-90544196D01*
X44833484Y-90735273D01*
X45000491Y-90902280D01*
X45191568Y-91041106D01*
X45290992Y-91091765D01*
X45402004Y-91148329D01*
X45402006Y-91148329D01*
X45402009Y-91148331D01*
X45490477Y-91177076D01*
X45626632Y-91221316D01*
X45859904Y-91258263D01*
X45859909Y-91258263D01*
X46096098Y-91258263D01*
X46329369Y-91221316D01*
X46390833Y-91201345D01*
X46553993Y-91148331D01*
X46764434Y-91041106D01*
X46955511Y-90902280D01*
X47122518Y-90735273D01*
X47261344Y-90544196D01*
X47368569Y-90333755D01*
X47441554Y-90109131D01*
X47462663Y-89975855D01*
X47478501Y-89875860D01*
X47478501Y-89639665D01*
X47441554Y-89406394D01*
X47368567Y-89181766D01*
X47261343Y-88971329D01*
X47122518Y-88780253D01*
X46955511Y-88613246D01*
X46764434Y-88474420D01*
X46733572Y-88458695D01*
X46553997Y-88367196D01*
X46329369Y-88294209D01*
X46096098Y-88257263D01*
X46096093Y-88257263D01*
X45859909Y-88257263D01*
X45859904Y-88257263D01*
X45626632Y-88294209D01*
X45402004Y-88367196D01*
X45191567Y-88474420D01*
X45082551Y-88553625D01*
X45000491Y-88613246D01*
X45000489Y-88613248D01*
X45000488Y-88613248D01*
X44833486Y-88780250D01*
X44833486Y-88780251D01*
X44833484Y-88780253D01*
X44773863Y-88862313D01*
X44694658Y-88971329D01*
X44662061Y-89035303D01*
X44643706Y-89071330D01*
X44634418Y-89089558D01*
X44586443Y-89140354D01*
X44523933Y-89157263D01*
X40932069Y-89157263D01*
X40865030Y-89137578D01*
X40821584Y-89089558D01*
X40761344Y-88971330D01*
X40622518Y-88780253D01*
X40455511Y-88613246D01*
X40264434Y-88474420D01*
X40233572Y-88458695D01*
X40053997Y-88367196D01*
X39829369Y-88294209D01*
X39596098Y-88257263D01*
X39596093Y-88257263D01*
X39359909Y-88257263D01*
X39359904Y-88257263D01*
X39126632Y-88294209D01*
X38902004Y-88367196D01*
X38691567Y-88474420D01*
X38582551Y-88553625D01*
X38500491Y-88613246D01*
X38500489Y-88613248D01*
X38500488Y-88613248D01*
X38333486Y-88780250D01*
X38333486Y-88780251D01*
X38333484Y-88780253D01*
X38273863Y-88862313D01*
X38194658Y-88971329D01*
X38087434Y-89181766D01*
X38014447Y-89406394D01*
X37977501Y-89639665D01*
X37977501Y-89875860D01*
X38014448Y-90109132D01*
X38014448Y-90109135D01*
X38055451Y-90235327D01*
X38057446Y-90305168D01*
X38025201Y-90361326D01*
X35833348Y-92553181D01*
X35772025Y-92586666D01*
X35745667Y-92589500D01*
X24552500Y-92589500D01*
X24485461Y-92569815D01*
X24439706Y-92517011D01*
X24428500Y-92465500D01*
X24428500Y-92292129D01*
X24428499Y-92292123D01*
X24422092Y-92232516D01*
X24371798Y-92097671D01*
X24371794Y-92097664D01*
X24285548Y-91982455D01*
X24285545Y-91982452D01*
X24170336Y-91896206D01*
X24170329Y-91896202D01*
X24035483Y-91845908D01*
X24035484Y-91845908D01*
X23975884Y-91839501D01*
X23975882Y-91839500D01*
X23975874Y-91839500D01*
X23975866Y-91839500D01*
X23802501Y-91839500D01*
X23735462Y-91819815D01*
X23689707Y-91767011D01*
X23678501Y-91715500D01*
X23678501Y-84939332D01*
X23698186Y-84872293D01*
X23714815Y-84851656D01*
X31615478Y-76950992D01*
X31676799Y-76917509D01*
X31741473Y-76920743D01*
X31783757Y-76934483D01*
X31783763Y-76934484D01*
X31783761Y-76934484D01*
X31845971Y-76944336D01*
X31984982Y-76966354D01*
X32048115Y-76996282D01*
X32085047Y-77055593D01*
X32084049Y-77125456D01*
X32065902Y-77161710D01*
X31981131Y-77278389D01*
X31866760Y-77502853D01*
X31788910Y-77742451D01*
X31749500Y-77991275D01*
X31749500Y-78243198D01*
X31788910Y-78492022D01*
X31866760Y-78731620D01*
X31981132Y-78956085D01*
X32129201Y-79159886D01*
X32129205Y-79159891D01*
X32307345Y-79338031D01*
X32307350Y-79338035D01*
X32391950Y-79399500D01*
X32511155Y-79486107D01*
X32654184Y-79558984D01*
X32735616Y-79600476D01*
X32735618Y-79600476D01*
X32735621Y-79600478D01*
X32975215Y-79678327D01*
X33224038Y-79717737D01*
X33224039Y-79717737D01*
X33475961Y-79717737D01*
X33475962Y-79717737D01*
X33724785Y-79678327D01*
X33964379Y-79600478D01*
X34188845Y-79486107D01*
X34392656Y-79338030D01*
X34570793Y-79159893D01*
X34718870Y-78956082D01*
X34833241Y-78731616D01*
X34911090Y-78492022D01*
X34950500Y-78243199D01*
X34950500Y-77991275D01*
X34911090Y-77742452D01*
X34833241Y-77502858D01*
X34833239Y-77502855D01*
X34833239Y-77502853D01*
X34771047Y-77380795D01*
X34718870Y-77278392D01*
X34638267Y-77167451D01*
X34570798Y-77074587D01*
X34570794Y-77074582D01*
X34392654Y-76896442D01*
X34392649Y-76896438D01*
X34188848Y-76748369D01*
X34188847Y-76748368D01*
X34188845Y-76748367D01*
X34118747Y-76712650D01*
X33964383Y-76633997D01*
X33724785Y-76556147D01*
X33688854Y-76550456D01*
X33475962Y-76516737D01*
X33359005Y-76516737D01*
X33291966Y-76497052D01*
X33246211Y-76444248D01*
X33236267Y-76375090D01*
X33253277Y-76327947D01*
X33255037Y-76325071D01*
X33255051Y-76325053D01*
X33351557Y-76135649D01*
X33417246Y-75933480D01*
X33450500Y-75723524D01*
X33450500Y-75510950D01*
X33417246Y-75300994D01*
X33403506Y-75258710D01*
X33401512Y-75188872D01*
X33433755Y-75132715D01*
X52554653Y-56011819D01*
X52615976Y-55978334D01*
X52642334Y-55975500D01*
X57525501Y-55975500D01*
X57592540Y-55995185D01*
G37*
%TD.AperFunction*%
%TA.AperFunction,NonConductor*%
G36*
X115091942Y-63145185D02*
G01*
X115112584Y-63161819D01*
X118963181Y-67012416D01*
X118996666Y-67073739D01*
X118999500Y-67100097D01*
X118999500Y-94078111D01*
X118979815Y-94145150D01*
X118927011Y-94190905D01*
X118857853Y-94200849D01*
X118794297Y-94171824D01*
X118787819Y-94165792D01*
X118627512Y-94005485D01*
X118627510Y-94005483D01*
X118436433Y-93866657D01*
X118429234Y-93862989D01*
X118225996Y-93759433D01*
X118001368Y-93686446D01*
X117768097Y-93649500D01*
X117768092Y-93649500D01*
X117531908Y-93649500D01*
X117531903Y-93649500D01*
X117298631Y-93686446D01*
X117074003Y-93759433D01*
X116863566Y-93866657D01*
X116784066Y-93924418D01*
X116672490Y-94005483D01*
X116672488Y-94005485D01*
X116672487Y-94005485D01*
X116505484Y-94172488D01*
X116411151Y-94302326D01*
X116355820Y-94344991D01*
X116286207Y-94350970D01*
X116241943Y-94332542D01*
X116179190Y-94290612D01*
X116179172Y-94290602D01*
X116033501Y-94230264D01*
X116033489Y-94230261D01*
X115878845Y-94199500D01*
X115878842Y-94199500D01*
X115721158Y-94199500D01*
X115721155Y-94199500D01*
X115566510Y-94230261D01*
X115566498Y-94230264D01*
X115420827Y-94290602D01*
X115420814Y-94290609D01*
X115289711Y-94378210D01*
X115289707Y-94378213D01*
X115178213Y-94489707D01*
X115178210Y-94489711D01*
X115090609Y-94620814D01*
X115090602Y-94620827D01*
X115030264Y-94766498D01*
X115030261Y-94766510D01*
X114999500Y-94921153D01*
X114999500Y-95078846D01*
X115030261Y-95233489D01*
X115030264Y-95233501D01*
X115090602Y-95379172D01*
X115090609Y-95379185D01*
X115178210Y-95510288D01*
X115178213Y-95510292D01*
X115289707Y-95621786D01*
X115289711Y-95621789D01*
X115420814Y-95709390D01*
X115420827Y-95709397D01*
X115566498Y-95769735D01*
X115566503Y-95769737D01*
X115653129Y-95786968D01*
X115721153Y-95800499D01*
X115721156Y-95800500D01*
X115721158Y-95800500D01*
X115878844Y-95800500D01*
X115878845Y-95800499D01*
X116033497Y-95769737D01*
X116132565Y-95728701D01*
X116202032Y-95721233D01*
X116264512Y-95752508D01*
X116290500Y-95786967D01*
X116366657Y-95936433D01*
X116505483Y-96127510D01*
X116672490Y-96294517D01*
X116863567Y-96433343D01*
X116872354Y-96437820D01*
X117074003Y-96540566D01*
X117074005Y-96540566D01*
X117074008Y-96540568D01*
X117194412Y-96579689D01*
X117298631Y-96613553D01*
X117531903Y-96650500D01*
X117531908Y-96650500D01*
X117768097Y-96650500D01*
X118001368Y-96613553D01*
X118012943Y-96609792D01*
X118225992Y-96540568D01*
X118436433Y-96433343D01*
X118627510Y-96294517D01*
X118787819Y-96134208D01*
X118849142Y-96100723D01*
X118918834Y-96105707D01*
X118974767Y-96147579D01*
X118999184Y-96213043D01*
X118999500Y-96221889D01*
X118999500Y-98578111D01*
X118979815Y-98645150D01*
X118927011Y-98690905D01*
X118857853Y-98700849D01*
X118794297Y-98671824D01*
X118787819Y-98665792D01*
X118627512Y-98505485D01*
X118627510Y-98505483D01*
X118436433Y-98366657D01*
X118436429Y-98366655D01*
X118225996Y-98259433D01*
X118001368Y-98186446D01*
X117768097Y-98149500D01*
X117768092Y-98149500D01*
X117531908Y-98149500D01*
X117531903Y-98149500D01*
X117298631Y-98186446D01*
X117074003Y-98259433D01*
X116863566Y-98366657D01*
X116850312Y-98376287D01*
X116672490Y-98505483D01*
X116672488Y-98505485D01*
X116672487Y-98505485D01*
X116505485Y-98672487D01*
X116505485Y-98672488D01*
X116505483Y-98672490D01*
X116492104Y-98690905D01*
X116366657Y-98863566D01*
X116306417Y-98981795D01*
X116258442Y-99032591D01*
X116195932Y-99049500D01*
X112604068Y-99049500D01*
X112537029Y-99029815D01*
X112493583Y-98981795D01*
X112491556Y-98977816D01*
X112433343Y-98863567D01*
X112294517Y-98672490D01*
X112127510Y-98505483D01*
X111936433Y-98366657D01*
X111936429Y-98366655D01*
X111725996Y-98259433D01*
X111501368Y-98186446D01*
X111268097Y-98149500D01*
X111268092Y-98149500D01*
X111031908Y-98149500D01*
X111031903Y-98149500D01*
X110798628Y-98186447D01*
X110672433Y-98227450D01*
X110602592Y-98229445D01*
X110546435Y-98197200D01*
X107381137Y-95031902D01*
X109649500Y-95031902D01*
X109649500Y-95268097D01*
X109686446Y-95501368D01*
X109759433Y-95725996D01*
X109837421Y-95879054D01*
X109866657Y-95936433D01*
X110005483Y-96127510D01*
X110172490Y-96294517D01*
X110363567Y-96433343D01*
X110372354Y-96437820D01*
X110574003Y-96540566D01*
X110574005Y-96540566D01*
X110574008Y-96540568D01*
X110694412Y-96579689D01*
X110798631Y-96613553D01*
X111031903Y-96650500D01*
X111031908Y-96650500D01*
X111268097Y-96650500D01*
X111501368Y-96613553D01*
X111512943Y-96609792D01*
X111725992Y-96540568D01*
X111936433Y-96433343D01*
X112127510Y-96294517D01*
X112294517Y-96127510D01*
X112433343Y-95936433D01*
X112540568Y-95725992D01*
X112613553Y-95501368D01*
X112632907Y-95379172D01*
X112650500Y-95268097D01*
X112650500Y-95031902D01*
X112613553Y-94798631D01*
X112555780Y-94620827D01*
X112540568Y-94574008D01*
X112540566Y-94574005D01*
X112540566Y-94574003D01*
X112462774Y-94421329D01*
X112433343Y-94363567D01*
X112294517Y-94172490D01*
X112127510Y-94005483D01*
X111936433Y-93866657D01*
X111929234Y-93862989D01*
X111725996Y-93759433D01*
X111501368Y-93686446D01*
X111268097Y-93649500D01*
X111268092Y-93649500D01*
X111031908Y-93649500D01*
X111031903Y-93649500D01*
X110798631Y-93686446D01*
X110574003Y-93759433D01*
X110363566Y-93866657D01*
X110284066Y-93924418D01*
X110172490Y-94005483D01*
X110172488Y-94005485D01*
X110172487Y-94005485D01*
X110005485Y-94172487D01*
X110005485Y-94172488D01*
X110005483Y-94172490D01*
X109992104Y-94190905D01*
X109866657Y-94363566D01*
X109759433Y-94574003D01*
X109686446Y-94798631D01*
X109649500Y-95031902D01*
X107381137Y-95031902D01*
X107214820Y-94865585D01*
X107181335Y-94804262D01*
X107178501Y-94777904D01*
X107178501Y-91311830D01*
X107198186Y-91244791D01*
X107246206Y-91201345D01*
X107364434Y-91141106D01*
X107555511Y-91002280D01*
X107722518Y-90835273D01*
X107861344Y-90644196D01*
X107968569Y-90433755D01*
X108041554Y-90209131D01*
X108057392Y-90109135D01*
X108078501Y-89975860D01*
X108078501Y-89739665D01*
X108041554Y-89506398D01*
X108041554Y-89506395D01*
X108000548Y-89380196D01*
X107998554Y-89310356D01*
X108030795Y-89254202D01*
X108358521Y-88926479D01*
X108437578Y-88789547D01*
X108478502Y-88636820D01*
X108478502Y-88478705D01*
X108478502Y-88471110D01*
X108478501Y-88471092D01*
X108478501Y-81064332D01*
X108498186Y-80997293D01*
X108514815Y-80976656D01*
X113115478Y-76375992D01*
X113176799Y-76342509D01*
X113241473Y-76345743D01*
X113283757Y-76359483D01*
X113283763Y-76359484D01*
X113283761Y-76359484D01*
X113345971Y-76369336D01*
X113484982Y-76391354D01*
X113548115Y-76421282D01*
X113585047Y-76480593D01*
X113584049Y-76550456D01*
X113565902Y-76586710D01*
X113481131Y-76703389D01*
X113366760Y-76927853D01*
X113290775Y-77161711D01*
X113288910Y-77167452D01*
X113249500Y-77416275D01*
X113249500Y-77668199D01*
X113261261Y-77742452D01*
X113288910Y-77917022D01*
X113366760Y-78156620D01*
X113481132Y-78381085D01*
X113629201Y-78584886D01*
X113629205Y-78584891D01*
X113807345Y-78763031D01*
X113807350Y-78763035D01*
X113962145Y-78875499D01*
X114011155Y-78911107D01*
X114154184Y-78983984D01*
X114235616Y-79025476D01*
X114235618Y-79025476D01*
X114235621Y-79025478D01*
X114475215Y-79103327D01*
X114724038Y-79142737D01*
X114724039Y-79142737D01*
X114975961Y-79142737D01*
X114975962Y-79142737D01*
X115224785Y-79103327D01*
X115464379Y-79025478D01*
X115688845Y-78911107D01*
X115892656Y-78763030D01*
X116070793Y-78584893D01*
X116218870Y-78381082D01*
X116333241Y-78156616D01*
X116411090Y-77917022D01*
X116450500Y-77668199D01*
X116450500Y-77416275D01*
X116411090Y-77167452D01*
X116333241Y-76927858D01*
X116333239Y-76927855D01*
X116333239Y-76927853D01*
X116291747Y-76846421D01*
X116218870Y-76703392D01*
X116168451Y-76633996D01*
X116070798Y-76499587D01*
X116070794Y-76499582D01*
X115892654Y-76321442D01*
X115892649Y-76321438D01*
X115688848Y-76173369D01*
X115688847Y-76173368D01*
X115688845Y-76173367D01*
X115614819Y-76135649D01*
X115464383Y-76058997D01*
X115224785Y-75981147D01*
X115190773Y-75975760D01*
X114975962Y-75941737D01*
X114859005Y-75941737D01*
X114791966Y-75922052D01*
X114746211Y-75869248D01*
X114736267Y-75800090D01*
X114753277Y-75752947D01*
X114755037Y-75750071D01*
X114755051Y-75750053D01*
X114851557Y-75560649D01*
X114917246Y-75358480D01*
X114950500Y-75148524D01*
X114950500Y-74935950D01*
X114917246Y-74725994D01*
X114851557Y-74523825D01*
X114755051Y-74334421D01*
X114755049Y-74334418D01*
X114755048Y-74334416D01*
X114630109Y-74162450D01*
X114479786Y-74012127D01*
X114307820Y-73887188D01*
X114118414Y-73790681D01*
X114118413Y-73790680D01*
X114118412Y-73790680D01*
X113916243Y-73724991D01*
X113916241Y-73724990D01*
X113916240Y-73724990D01*
X113754957Y-73699445D01*
X113706287Y-73691737D01*
X113493713Y-73691737D01*
X113445042Y-73699445D01*
X113283760Y-73724990D01*
X113081585Y-73790681D01*
X112892179Y-73887188D01*
X112720213Y-74012127D01*
X112569890Y-74162450D01*
X112444951Y-74334416D01*
X112348444Y-74523822D01*
X112282753Y-74725997D01*
X112253703Y-74909416D01*
X112249500Y-74935950D01*
X112249500Y-75148524D01*
X112261014Y-75221217D01*
X112282754Y-75358481D01*
X112282754Y-75358484D01*
X112296491Y-75400760D01*
X112298486Y-75470601D01*
X112266241Y-75526759D01*
X109552554Y-78240446D01*
X109491231Y-78273931D01*
X109421539Y-78268947D01*
X109365606Y-78227075D01*
X109341189Y-78161611D01*
X109346941Y-78114450D01*
X109411090Y-77917022D01*
X109450500Y-77668199D01*
X109450500Y-77416275D01*
X109411090Y-77167452D01*
X109333241Y-76927858D01*
X109333239Y-76927855D01*
X109333239Y-76927853D01*
X109218870Y-76703392D01*
X109134097Y-76586711D01*
X109110618Y-76520904D01*
X109126444Y-76452851D01*
X109176550Y-76404156D01*
X109215013Y-76391354D01*
X109380915Y-76365078D01*
X109416238Y-76359484D01*
X109416238Y-76359483D01*
X109416243Y-76359483D01*
X109618412Y-76293794D01*
X109807816Y-76197288D01*
X109892653Y-76135651D01*
X109979786Y-76072346D01*
X109979788Y-76072343D01*
X109979792Y-76072341D01*
X110130104Y-75922029D01*
X110130106Y-75922025D01*
X110130109Y-75922023D01*
X110239086Y-75772026D01*
X110255051Y-75750053D01*
X110351557Y-75560649D01*
X110417246Y-75358480D01*
X110450500Y-75148524D01*
X110450500Y-74935950D01*
X110417246Y-74725994D01*
X110351557Y-74523825D01*
X110255051Y-74334421D01*
X110255049Y-74334418D01*
X110255048Y-74334416D01*
X110130109Y-74162450D01*
X109979786Y-74012127D01*
X109807820Y-73887188D01*
X109618414Y-73790681D01*
X109618413Y-73790680D01*
X109618412Y-73790680D01*
X109416243Y-73724991D01*
X109416241Y-73724990D01*
X109416240Y-73724990D01*
X109254957Y-73699445D01*
X109206287Y-73691737D01*
X108993713Y-73691737D01*
X108945042Y-73699445D01*
X108783760Y-73724990D01*
X108581585Y-73790681D01*
X108392179Y-73887188D01*
X108220213Y-74012127D01*
X108069890Y-74162450D01*
X107944948Y-74334421D01*
X107944947Y-74334422D01*
X107924765Y-74374032D01*
X107876791Y-74424828D01*
X107814281Y-74441737D01*
X98278703Y-74441737D01*
X98237782Y-74452701D01*
X98237782Y-74452702D01*
X98202388Y-74462186D01*
X98125977Y-74482660D01*
X98125972Y-74482663D01*
X97989053Y-74561712D01*
X97989045Y-74561718D01*
X97877241Y-74673523D01*
X89587584Y-82963181D01*
X89526261Y-82996666D01*
X89499903Y-82999500D01*
X87310991Y-82999500D01*
X87243952Y-82979815D01*
X87198197Y-82927011D01*
X87188253Y-82857853D01*
X87200507Y-82819204D01*
X87218566Y-82783761D01*
X87218566Y-82783760D01*
X87218569Y-82783755D01*
X87291554Y-82559131D01*
X87328501Y-82325860D01*
X87328501Y-82089665D01*
X87291554Y-81856394D01*
X87236275Y-81686264D01*
X87218569Y-81631771D01*
X87218567Y-81631768D01*
X87218567Y-81631766D01*
X87136820Y-81471329D01*
X87111344Y-81421330D01*
X86972518Y-81230253D01*
X86805511Y-81063246D01*
X86614434Y-80924420D01*
X86594333Y-80914178D01*
X86403997Y-80817196D01*
X86179369Y-80744209D01*
X85946098Y-80707263D01*
X85946093Y-80707263D01*
X85709909Y-80707263D01*
X85709904Y-80707263D01*
X85476632Y-80744209D01*
X85252004Y-80817196D01*
X85041567Y-80924420D01*
X84972752Y-80974418D01*
X84850491Y-81063246D01*
X84850489Y-81063248D01*
X84850488Y-81063248D01*
X84683486Y-81230250D01*
X84683486Y-81230251D01*
X84683484Y-81230253D01*
X84647159Y-81280250D01*
X84544658Y-81421329D01*
X84484418Y-81539558D01*
X84436443Y-81590354D01*
X84373933Y-81607263D01*
X80782069Y-81607263D01*
X80715030Y-81587578D01*
X80671584Y-81539558D01*
X80656863Y-81510666D01*
X80611344Y-81421330D01*
X80472518Y-81230253D01*
X80305511Y-81063246D01*
X80183250Y-80974418D01*
X80114432Y-80924418D01*
X79996205Y-80864178D01*
X79945410Y-80816204D01*
X79928501Y-80753694D01*
X79928501Y-75542061D01*
X79928502Y-75542048D01*
X79928502Y-75373947D01*
X79928502Y-75373945D01*
X79887578Y-75221217D01*
X79845608Y-75148524D01*
X79808521Y-75084286D01*
X79696717Y-74972482D01*
X79696716Y-74972481D01*
X79692386Y-74968151D01*
X79692375Y-74968141D01*
X68061415Y-63337181D01*
X68027930Y-63275858D01*
X68032914Y-63206166D01*
X68074786Y-63150233D01*
X68140250Y-63125816D01*
X68149096Y-63125500D01*
X115024903Y-63125500D01*
X115091942Y-63145185D01*
G37*
%TD.AperFunction*%
%TA.AperFunction,NonConductor*%
G36*
X95133421Y-97620185D02*
G01*
X95154063Y-97636819D01*
X95597035Y-98079791D01*
X95630520Y-98141114D01*
X95625536Y-98210806D01*
X95583664Y-98266739D01*
X95565650Y-98277956D01*
X95391569Y-98366655D01*
X95312064Y-98424420D01*
X95200491Y-98505483D01*
X95200489Y-98505485D01*
X95200488Y-98505485D01*
X95033486Y-98672487D01*
X95033486Y-98672488D01*
X95033484Y-98672490D01*
X95020105Y-98690905D01*
X94894658Y-98863566D01*
X94834418Y-98981795D01*
X94786443Y-99032591D01*
X94723933Y-99049500D01*
X91132069Y-99049500D01*
X91065030Y-99029815D01*
X91021584Y-98981795D01*
X91019557Y-98977816D01*
X90961344Y-98863567D01*
X90822518Y-98672490D01*
X90655511Y-98505483D01*
X90464434Y-98366657D01*
X90464430Y-98366655D01*
X90253997Y-98259433D01*
X90029369Y-98186446D01*
X89796098Y-98149500D01*
X89796093Y-98149500D01*
X89559909Y-98149500D01*
X89559904Y-98149500D01*
X89326629Y-98186447D01*
X89200434Y-98227450D01*
X89130593Y-98229445D01*
X89074436Y-98197200D01*
X88689417Y-97812181D01*
X88655932Y-97750858D01*
X88660916Y-97681166D01*
X88702788Y-97625233D01*
X88768252Y-97600816D01*
X88777098Y-97600500D01*
X95066382Y-97600500D01*
X95133421Y-97620185D01*
G37*
%TD.AperFunction*%
%TA.AperFunction,NonConductor*%
G36*
X28611300Y-93810185D02*
G01*
X28657055Y-93862989D01*
X28666999Y-93932147D01*
X28637974Y-93995703D01*
X28617149Y-94014815D01*
X28550491Y-94063246D01*
X28550489Y-94063248D01*
X28550488Y-94063248D01*
X28383486Y-94230250D01*
X28383486Y-94230251D01*
X28383484Y-94230253D01*
X28335200Y-94296710D01*
X28244658Y-94421329D01*
X28137434Y-94631766D01*
X28064447Y-94856394D01*
X28027501Y-95089665D01*
X28027501Y-95325860D01*
X28064447Y-95559131D01*
X28137434Y-95783759D01*
X28215226Y-95936433D01*
X28244658Y-95994196D01*
X28383484Y-96185273D01*
X28550491Y-96352280D01*
X28741568Y-96491106D01*
X28838639Y-96540566D01*
X28952004Y-96598329D01*
X28952006Y-96598329D01*
X28952009Y-96598331D01*
X29000381Y-96614048D01*
X29176632Y-96671316D01*
X29409904Y-96708263D01*
X29409909Y-96708263D01*
X29646098Y-96708263D01*
X29879369Y-96671316D01*
X29942461Y-96650816D01*
X30103993Y-96598331D01*
X30314434Y-96491106D01*
X30505511Y-96352280D01*
X30672518Y-96185273D01*
X30811344Y-95994196D01*
X30871584Y-95875967D01*
X30919559Y-95825172D01*
X30982069Y-95808263D01*
X34573933Y-95808263D01*
X34640972Y-95827948D01*
X34684417Y-95875966D01*
X34744658Y-95994196D01*
X34883484Y-96185273D01*
X35050491Y-96352280D01*
X35193798Y-96456399D01*
X35241569Y-96491107D01*
X35316178Y-96529121D01*
X35359795Y-96551345D01*
X35410591Y-96599319D01*
X35427501Y-96661830D01*
X35427501Y-97141331D01*
X35427500Y-97141349D01*
X35427500Y-97307055D01*
X35427499Y-97307055D01*
X35427500Y-97307058D01*
X35468424Y-97459786D01*
X35468425Y-97459787D01*
X35480392Y-97480517D01*
X35480395Y-97480520D01*
X35547478Y-97596713D01*
X35547482Y-97596718D01*
X35952017Y-98001253D01*
X35985502Y-98062576D01*
X35980518Y-98132268D01*
X35938646Y-98188201D01*
X35883735Y-98211407D01*
X35676631Y-98244210D01*
X35452004Y-98317196D01*
X35241567Y-98424420D01*
X35163464Y-98481166D01*
X35050491Y-98563246D01*
X35050489Y-98563248D01*
X35050488Y-98563248D01*
X34883486Y-98730250D01*
X34883486Y-98730251D01*
X34883484Y-98730253D01*
X34823863Y-98812313D01*
X34744658Y-98921329D01*
X34715877Y-98977816D01*
X34687968Y-99032591D01*
X34684418Y-99039558D01*
X34636443Y-99090354D01*
X34573933Y-99107263D01*
X30982069Y-99107263D01*
X30915030Y-99087578D01*
X30871584Y-99039558D01*
X30811344Y-98921330D01*
X30672518Y-98730253D01*
X30505511Y-98563246D01*
X30314434Y-98424420D01*
X30268109Y-98400816D01*
X30103997Y-98317196D01*
X29879369Y-98244209D01*
X29646098Y-98207263D01*
X29646093Y-98207263D01*
X29409909Y-98207263D01*
X29409904Y-98207263D01*
X29176629Y-98244210D01*
X29050434Y-98285213D01*
X28980593Y-98287208D01*
X28924436Y-98254963D01*
X24671654Y-94002181D01*
X24638169Y-93940858D01*
X24643153Y-93871166D01*
X24685025Y-93815233D01*
X24750489Y-93790816D01*
X24759335Y-93790500D01*
X28544261Y-93790500D01*
X28611300Y-93810185D01*
G37*
%TD.AperFunction*%
%TA.AperFunction,NonConductor*%
G36*
X98542232Y-84608344D02*
G01*
X98569698Y-84612962D01*
X98575299Y-84618053D01*
X98582558Y-84620185D01*
X98600789Y-84641225D01*
X98621399Y-84659960D01*
X98625674Y-84669944D01*
X98628313Y-84672989D01*
X98635293Y-84692404D01*
X98640422Y-84711545D01*
X98640423Y-84711549D01*
X98644318Y-84718294D01*
X98644320Y-84718296D01*
X98657500Y-84741125D01*
X98673971Y-84809025D01*
X98668043Y-84841441D01*
X98614448Y-85006391D01*
X98577501Y-85239665D01*
X98577501Y-85475860D01*
X98614447Y-85709131D01*
X98687434Y-85933759D01*
X98767224Y-86090354D01*
X98794658Y-86144196D01*
X98933484Y-86335273D01*
X99100491Y-86502280D01*
X99291568Y-86641106D01*
X99378500Y-86685400D01*
X99502004Y-86748329D01*
X99502006Y-86748329D01*
X99502009Y-86748331D01*
X99622413Y-86787452D01*
X99726632Y-86821316D01*
X99959904Y-86858263D01*
X99959909Y-86858263D01*
X100196098Y-86858263D01*
X100429369Y-86821316D01*
X100466396Y-86809285D01*
X100653993Y-86748331D01*
X100864434Y-86641106D01*
X101055511Y-86502280D01*
X101222518Y-86335273D01*
X101361344Y-86144196D01*
X101421584Y-86025967D01*
X101469559Y-85975172D01*
X101532069Y-85958263D01*
X105123933Y-85958263D01*
X105190972Y-85977948D01*
X105234417Y-86025966D01*
X105294658Y-86144196D01*
X105433484Y-86335273D01*
X105600491Y-86502280D01*
X105791568Y-86641106D01*
X105878500Y-86685400D01*
X106002004Y-86748329D01*
X106002006Y-86748329D01*
X106002009Y-86748331D01*
X106122413Y-86787452D01*
X106226632Y-86821316D01*
X106459904Y-86858263D01*
X106459909Y-86858263D01*
X106696098Y-86858263D01*
X106929369Y-86821316D01*
X106966396Y-86809285D01*
X107115183Y-86760940D01*
X107185023Y-86758946D01*
X107244856Y-86795026D01*
X107275685Y-86857727D01*
X107277501Y-86878872D01*
X107277501Y-88257665D01*
X107268856Y-88287102D01*
X107262333Y-88317093D01*
X107258577Y-88322109D01*
X107257816Y-88324704D01*
X107241186Y-88345341D01*
X107192319Y-88394209D01*
X107181564Y-88404964D01*
X107120240Y-88438448D01*
X107055565Y-88435213D01*
X106929371Y-88394210D01*
X106696098Y-88357263D01*
X106696093Y-88357263D01*
X106459909Y-88357263D01*
X106459904Y-88357263D01*
X106226632Y-88394209D01*
X106002004Y-88467196D01*
X105791567Y-88574420D01*
X105705685Y-88636818D01*
X105600491Y-88713246D01*
X105600489Y-88713248D01*
X105600488Y-88713248D01*
X105433486Y-88880250D01*
X105433486Y-88880251D01*
X105433484Y-88880253D01*
X105399904Y-88926472D01*
X105294658Y-89071329D01*
X105285370Y-89089558D01*
X105238386Y-89181771D01*
X105234418Y-89189558D01*
X105186443Y-89240354D01*
X105123933Y-89257263D01*
X101532069Y-89257263D01*
X101465030Y-89237578D01*
X101421584Y-89189558D01*
X101361344Y-89071330D01*
X101222518Y-88880253D01*
X101055511Y-88713246D01*
X100864434Y-88574420D01*
X100653997Y-88467196D01*
X100429369Y-88394209D01*
X100196098Y-88357263D01*
X100196093Y-88357263D01*
X99959909Y-88357263D01*
X99959904Y-88357263D01*
X99726632Y-88394209D01*
X99502004Y-88467196D01*
X99291567Y-88574420D01*
X99205685Y-88636818D01*
X99100491Y-88713246D01*
X99100489Y-88713248D01*
X99100488Y-88713248D01*
X98933486Y-88880250D01*
X98933486Y-88880251D01*
X98933484Y-88880253D01*
X98899904Y-88926472D01*
X98794658Y-89071329D01*
X98687434Y-89281766D01*
X98614447Y-89506394D01*
X98577501Y-89739665D01*
X98577501Y-89975860D01*
X98614447Y-90209131D01*
X98687434Y-90433759D01*
X98743705Y-90544196D01*
X98794658Y-90644196D01*
X98933484Y-90835273D01*
X99100491Y-91002280D01*
X99291568Y-91141106D01*
X99362163Y-91177076D01*
X99502004Y-91248329D01*
X99502006Y-91248329D01*
X99502009Y-91248331D01*
X99622413Y-91287452D01*
X99726632Y-91321316D01*
X99959904Y-91358263D01*
X99959909Y-91358263D01*
X100196098Y-91358263D01*
X100429369Y-91321316D01*
X100458564Y-91311830D01*
X100653993Y-91248331D01*
X100864434Y-91141106D01*
X101055511Y-91002280D01*
X101222518Y-90835273D01*
X101361344Y-90644196D01*
X101421584Y-90525967D01*
X101469559Y-90475172D01*
X101532069Y-90458263D01*
X105123933Y-90458263D01*
X105190972Y-90477948D01*
X105234417Y-90525966D01*
X105294658Y-90644196D01*
X105433484Y-90835273D01*
X105600491Y-91002280D01*
X105743798Y-91106399D01*
X105791569Y-91141107D01*
X105866178Y-91179121D01*
X105909795Y-91201345D01*
X105960591Y-91249319D01*
X105977501Y-91311830D01*
X105977501Y-94991331D01*
X105977500Y-94991349D01*
X105977500Y-95157055D01*
X105977499Y-95157055D01*
X106018423Y-95309784D01*
X106034033Y-95336822D01*
X106097476Y-95446710D01*
X106097482Y-95446718D01*
X106216350Y-95565586D01*
X106216356Y-95565591D01*
X109697200Y-99046435D01*
X109730685Y-99107758D01*
X109727450Y-99172433D01*
X109686447Y-99298628D01*
X109649500Y-99531902D01*
X109649500Y-99768097D01*
X109686446Y-100001368D01*
X109759433Y-100225996D01*
X109866657Y-100436433D01*
X110005483Y-100627510D01*
X110172490Y-100794517D01*
X110251990Y-100852277D01*
X110363568Y-100933344D01*
X110438177Y-100971358D01*
X110481794Y-100993582D01*
X110532590Y-101041556D01*
X110549500Y-101104067D01*
X110549500Y-104685666D01*
X110529815Y-104752705D01*
X110513181Y-104773347D01*
X107031564Y-108254963D01*
X106970241Y-108288448D01*
X106905565Y-108285213D01*
X106779371Y-108244210D01*
X106546098Y-108207263D01*
X106546093Y-108207263D01*
X106309909Y-108207263D01*
X106309904Y-108207263D01*
X106076632Y-108244209D01*
X105852004Y-108317196D01*
X105641567Y-108424420D01*
X105599529Y-108454963D01*
X105450491Y-108563246D01*
X105450489Y-108563248D01*
X105450488Y-108563248D01*
X105283486Y-108730250D01*
X105283486Y-108730251D01*
X105283484Y-108730253D01*
X105259513Y-108763246D01*
X105144658Y-108921329D01*
X105084418Y-109039558D01*
X105036443Y-109090354D01*
X104973933Y-109107263D01*
X101382069Y-109107263D01*
X101315030Y-109087578D01*
X101271584Y-109039558D01*
X101211344Y-108921330D01*
X101072518Y-108730253D01*
X100905511Y-108563246D01*
X100714434Y-108424420D01*
X100503997Y-108317196D01*
X100279369Y-108244209D01*
X100046098Y-108207263D01*
X100046093Y-108207263D01*
X99809909Y-108207263D01*
X99809904Y-108207263D01*
X99576629Y-108244210D01*
X99450434Y-108285213D01*
X99380593Y-108287208D01*
X99324436Y-108254963D01*
X96814820Y-105745347D01*
X96781335Y-105684024D01*
X96778501Y-105657666D01*
X96778501Y-101104067D01*
X96798186Y-101037028D01*
X96846206Y-100993582D01*
X96964434Y-100933343D01*
X97155511Y-100794517D01*
X97322518Y-100627510D01*
X97461344Y-100436433D01*
X97550043Y-100262350D01*
X97598018Y-100211555D01*
X97665838Y-100194760D01*
X97731973Y-100217297D01*
X97748209Y-100230965D01*
X99291182Y-101773938D01*
X99324667Y-101835261D01*
X99327501Y-101861619D01*
X99327501Y-103753694D01*
X99307816Y-103820733D01*
X99259797Y-103864178D01*
X99141569Y-103924418D01*
X99013873Y-104017196D01*
X98950491Y-104063246D01*
X98950489Y-104063248D01*
X98950488Y-104063248D01*
X98783486Y-104230250D01*
X98783486Y-104230251D01*
X98783484Y-104230253D01*
X98759513Y-104263246D01*
X98644658Y-104421329D01*
X98537434Y-104631766D01*
X98464447Y-104856394D01*
X98427501Y-105089665D01*
X98427501Y-105325860D01*
X98464447Y-105559131D01*
X98537434Y-105783759D01*
X98639338Y-105983755D01*
X98644658Y-105994196D01*
X98783484Y-106185273D01*
X98950491Y-106352280D01*
X99141568Y-106491106D01*
X99240992Y-106541765D01*
X99352004Y-106598329D01*
X99352006Y-106598329D01*
X99352009Y-106598331D01*
X99472413Y-106637452D01*
X99576632Y-106671316D01*
X99809904Y-106708263D01*
X99809909Y-106708263D01*
X100046098Y-106708263D01*
X100279369Y-106671316D01*
X100503993Y-106598331D01*
X100714434Y-106491106D01*
X100905511Y-106352280D01*
X101072518Y-106185273D01*
X101211344Y-105994196D01*
X101271584Y-105875967D01*
X101319559Y-105825172D01*
X101382069Y-105808263D01*
X104973933Y-105808263D01*
X105040972Y-105827948D01*
X105084417Y-105875966D01*
X105144658Y-105994196D01*
X105283484Y-106185273D01*
X105450491Y-106352280D01*
X105641568Y-106491106D01*
X105740992Y-106541765D01*
X105852004Y-106598329D01*
X105852006Y-106598329D01*
X105852009Y-106598331D01*
X105972413Y-106637452D01*
X106076632Y-106671316D01*
X106309904Y-106708263D01*
X106309909Y-106708263D01*
X106546098Y-106708263D01*
X106779369Y-106671316D01*
X107003993Y-106598331D01*
X107214434Y-106491106D01*
X107405511Y-106352280D01*
X107572518Y-106185273D01*
X107711344Y-105994196D01*
X107818569Y-105783755D01*
X107891554Y-105559131D01*
X107906178Y-105466799D01*
X107928501Y-105325860D01*
X107928501Y-105089665D01*
X107891554Y-104856394D01*
X107853591Y-104739558D01*
X107818569Y-104631771D01*
X107818567Y-104631768D01*
X107818567Y-104631766D01*
X107711343Y-104421329D01*
X107681391Y-104380104D01*
X107572518Y-104230253D01*
X107405511Y-104063246D01*
X107214434Y-103924420D01*
X107214430Y-103924418D01*
X107003997Y-103817196D01*
X106779369Y-103744209D01*
X106546098Y-103707263D01*
X106546093Y-103707263D01*
X106309909Y-103707263D01*
X106309904Y-103707263D01*
X106076632Y-103744209D01*
X105852004Y-103817196D01*
X105641567Y-103924420D01*
X105532551Y-104003625D01*
X105450491Y-104063246D01*
X105450489Y-104063248D01*
X105450488Y-104063248D01*
X105283486Y-104230250D01*
X105283486Y-104230251D01*
X105283484Y-104230253D01*
X105259513Y-104263246D01*
X105144658Y-104421329D01*
X105140111Y-104430253D01*
X105102002Y-104505048D01*
X105084418Y-104539558D01*
X105036443Y-104590354D01*
X104973933Y-104607263D01*
X101382069Y-104607263D01*
X101315030Y-104587578D01*
X101271584Y-104539558D01*
X101254002Y-104505051D01*
X101211344Y-104421330D01*
X101072518Y-104230253D01*
X100905511Y-104063246D01*
X100809972Y-103993833D01*
X100714432Y-103924418D01*
X100596205Y-103864178D01*
X100545410Y-103816204D01*
X100528501Y-103753694D01*
X100528501Y-101482467D01*
X100528501Y-101482465D01*
X100487578Y-101329738D01*
X100487578Y-101329737D01*
X100487578Y-101329736D01*
X100458640Y-101279617D01*
X100458638Y-101279614D01*
X100408521Y-101192806D01*
X100296717Y-101081002D01*
X100296716Y-101081001D01*
X100292386Y-101076671D01*
X100292375Y-101076661D01*
X96077895Y-96862181D01*
X96044410Y-96800858D01*
X96049394Y-96731166D01*
X96091266Y-96675233D01*
X96156730Y-96650816D01*
X96165576Y-96650500D01*
X96296098Y-96650500D01*
X96529369Y-96613553D01*
X96540944Y-96609792D01*
X96753993Y-96540568D01*
X96964434Y-96433343D01*
X97155511Y-96294517D01*
X97322518Y-96127510D01*
X97461344Y-95936433D01*
X97568569Y-95725992D01*
X97641554Y-95501368D01*
X97660908Y-95379172D01*
X97678501Y-95268097D01*
X97678501Y-95031902D01*
X97652158Y-94865585D01*
X97641554Y-94798632D01*
X97600548Y-94672432D01*
X97598554Y-94602595D01*
X97630797Y-94546438D01*
X97880520Y-94296717D01*
X97959577Y-94159785D01*
X98000501Y-94007058D01*
X98000501Y-93848943D01*
X98000501Y-93841348D01*
X98000500Y-93841330D01*
X98000500Y-84724500D01*
X98020185Y-84657461D01*
X98072989Y-84611706D01*
X98124500Y-84600500D01*
X98515519Y-84600500D01*
X98542232Y-84608344D01*
G37*
%TD.AperFunction*%
%TA.AperFunction,NonConductor*%
G36*
X47915227Y-98420185D02*
G01*
X47960982Y-98472989D01*
X47970926Y-98542147D01*
X47941901Y-98605703D01*
X47935869Y-98612181D01*
X45547482Y-101000567D01*
X45547480Y-101000569D01*
X45531598Y-101028080D01*
X45524388Y-101040568D01*
X45468424Y-101137500D01*
X45427500Y-101290228D01*
X45427500Y-101290230D01*
X45427500Y-101458331D01*
X45427501Y-101458344D01*
X45427501Y-103953694D01*
X45407816Y-104020733D01*
X45359797Y-104064178D01*
X45241569Y-104124418D01*
X45107897Y-104221537D01*
X45050491Y-104263246D01*
X45050489Y-104263248D01*
X45050488Y-104263248D01*
X44883486Y-104430250D01*
X44883486Y-104430251D01*
X44883484Y-104430253D01*
X44829142Y-104505048D01*
X44744658Y-104621329D01*
X44739338Y-104631771D01*
X44685707Y-104737029D01*
X44684418Y-104739558D01*
X44636443Y-104790354D01*
X44573933Y-104807263D01*
X40982069Y-104807263D01*
X40915030Y-104787578D01*
X40871584Y-104739558D01*
X40811344Y-104621330D01*
X40672518Y-104430253D01*
X40505511Y-104263246D01*
X40314434Y-104124420D01*
X40314430Y-104124418D01*
X40103997Y-104017196D01*
X39879369Y-103944209D01*
X39646098Y-103907263D01*
X39646093Y-103907263D01*
X39409909Y-103907263D01*
X39409904Y-103907263D01*
X39176632Y-103944209D01*
X38952004Y-104017196D01*
X38741567Y-104124420D01*
X38632551Y-104203625D01*
X38550491Y-104263246D01*
X38550489Y-104263248D01*
X38550488Y-104263248D01*
X38383486Y-104430250D01*
X38383486Y-104430251D01*
X38383484Y-104430253D01*
X38329142Y-104505048D01*
X38244658Y-104621329D01*
X38137434Y-104831766D01*
X38064447Y-105056394D01*
X38027501Y-105289665D01*
X38027501Y-105525860D01*
X38064447Y-105759131D01*
X38137434Y-105983759D01*
X38242287Y-106189543D01*
X38244658Y-106194196D01*
X38383484Y-106385273D01*
X38550491Y-106552280D01*
X38741568Y-106691106D01*
X38775241Y-106708263D01*
X38952004Y-106798329D01*
X38952006Y-106798329D01*
X38952009Y-106798331D01*
X39072413Y-106837452D01*
X39176632Y-106871316D01*
X39409904Y-106908263D01*
X39409909Y-106908263D01*
X39646098Y-106908263D01*
X39879369Y-106871316D01*
X40103993Y-106798331D01*
X40314434Y-106691106D01*
X40505511Y-106552280D01*
X40672518Y-106385273D01*
X40811344Y-106194196D01*
X40871584Y-106075967D01*
X40919559Y-106025172D01*
X40982069Y-106008263D01*
X44573933Y-106008263D01*
X44640972Y-106027948D01*
X44684417Y-106075966D01*
X44744658Y-106194196D01*
X44883484Y-106385273D01*
X45050491Y-106552280D01*
X45241568Y-106691106D01*
X45275241Y-106708263D01*
X45452004Y-106798329D01*
X45452006Y-106798329D01*
X45452009Y-106798331D01*
X45572413Y-106837452D01*
X45676632Y-106871316D01*
X45909904Y-106908263D01*
X45909909Y-106908263D01*
X46146098Y-106908263D01*
X46379369Y-106871316D01*
X46603993Y-106798331D01*
X46814434Y-106691106D01*
X47005511Y-106552280D01*
X47172518Y-106385273D01*
X47311344Y-106194196D01*
X47418569Y-105983755D01*
X47491554Y-105759131D01*
X47493737Y-105745347D01*
X47528501Y-105525860D01*
X47528501Y-105289665D01*
X47491554Y-105056394D01*
X47440449Y-104899112D01*
X47418569Y-104831771D01*
X47418567Y-104831768D01*
X47418567Y-104831766D01*
X47342518Y-104682512D01*
X47311344Y-104621330D01*
X47172518Y-104430253D01*
X47005511Y-104263246D01*
X46909972Y-104193833D01*
X46814432Y-104124418D01*
X46696205Y-104064178D01*
X46645410Y-104016204D01*
X46628501Y-103953694D01*
X46628501Y-101669382D01*
X46648186Y-101602343D01*
X46664820Y-101581701D01*
X47255416Y-100991105D01*
X47957794Y-100288726D01*
X48019115Y-100255243D01*
X48088807Y-100260227D01*
X48144740Y-100302099D01*
X48155958Y-100320114D01*
X48215226Y-100436433D01*
X48244658Y-100494196D01*
X48383484Y-100685273D01*
X48550491Y-100852280D01*
X48662066Y-100933344D01*
X48741569Y-100991107D01*
X48746427Y-100993582D01*
X48859795Y-101051345D01*
X48910591Y-101099319D01*
X48927501Y-101161830D01*
X48927501Y-106107665D01*
X48907816Y-106174704D01*
X48891182Y-106195346D01*
X46631564Y-108454963D01*
X46570241Y-108488448D01*
X46505565Y-108485213D01*
X46379371Y-108444210D01*
X46146098Y-108407263D01*
X46146093Y-108407263D01*
X45909909Y-108407263D01*
X45909904Y-108407263D01*
X45676632Y-108444209D01*
X45452004Y-108517196D01*
X45241567Y-108624420D01*
X45132551Y-108703625D01*
X45050491Y-108763246D01*
X45050489Y-108763248D01*
X45050488Y-108763248D01*
X44883486Y-108930250D01*
X44883486Y-108930251D01*
X44883484Y-108930253D01*
X44823863Y-109012313D01*
X44744658Y-109121329D01*
X44726009Y-109157930D01*
X44689188Y-109230197D01*
X44684418Y-109239558D01*
X44636443Y-109290354D01*
X44573933Y-109307263D01*
X40982069Y-109307263D01*
X40915030Y-109287578D01*
X40871584Y-109239558D01*
X40811344Y-109121330D01*
X40672518Y-108930253D01*
X40505511Y-108763246D01*
X40314434Y-108624420D01*
X40103997Y-108517196D01*
X39879369Y-108444209D01*
X39646098Y-108407263D01*
X39646093Y-108407263D01*
X39409909Y-108407263D01*
X39409904Y-108407263D01*
X39176629Y-108444210D01*
X39050434Y-108485213D01*
X38980593Y-108487208D01*
X38924436Y-108454963D01*
X36664820Y-106195347D01*
X36631335Y-106134024D01*
X36628501Y-106107666D01*
X36628501Y-101161830D01*
X36648186Y-101094791D01*
X36696206Y-101051345D01*
X36814434Y-100991106D01*
X37005511Y-100852280D01*
X37172518Y-100685273D01*
X37311344Y-100494196D01*
X37418569Y-100283755D01*
X37491554Y-100059131D01*
X37500703Y-100001368D01*
X37528501Y-99825860D01*
X37528501Y-99589665D01*
X37491554Y-99356394D01*
X37427857Y-99160356D01*
X37418569Y-99131771D01*
X37418567Y-99131768D01*
X37418567Y-99131766D01*
X37362003Y-99020754D01*
X37311344Y-98921330D01*
X37172518Y-98730253D01*
X37054446Y-98612181D01*
X37020961Y-98550858D01*
X37025945Y-98481166D01*
X37067817Y-98425233D01*
X37133281Y-98400816D01*
X37142127Y-98400500D01*
X47848188Y-98400500D01*
X47915227Y-98420185D01*
G37*
%TD.AperFunction*%
%TA.AperFunction,NonConductor*%
G36*
X116210534Y-100254787D02*
G01*
X116225739Y-100254136D01*
X116243377Y-100264431D01*
X116262971Y-100270185D01*
X116273867Y-100282229D01*
X116286081Y-100289358D01*
X116306415Y-100318202D01*
X116366657Y-100436433D01*
X116505483Y-100627510D01*
X116672490Y-100794517D01*
X116863567Y-100933343D01*
X116962991Y-100984002D01*
X117074003Y-101040566D01*
X117074005Y-101040566D01*
X117074008Y-101040568D01*
X117185121Y-101076671D01*
X117298631Y-101113553D01*
X117531903Y-101150500D01*
X117531908Y-101150500D01*
X117768097Y-101150500D01*
X118001368Y-101113553D01*
X118030563Y-101104067D01*
X118225992Y-101040568D01*
X118436433Y-100933343D01*
X118627510Y-100794517D01*
X118787819Y-100634208D01*
X118849142Y-100600723D01*
X118918834Y-100605707D01*
X118974767Y-100647579D01*
X118999184Y-100713043D01*
X118999500Y-100721889D01*
X118999500Y-111075500D01*
X118979815Y-111142539D01*
X118927011Y-111188294D01*
X118875500Y-111199500D01*
X107309237Y-111199500D01*
X107242198Y-111179815D01*
X107196443Y-111127011D01*
X107186499Y-111057853D01*
X107215524Y-110994297D01*
X107236351Y-110975182D01*
X107405511Y-110852280D01*
X107572518Y-110685273D01*
X107711344Y-110494196D01*
X107818569Y-110283755D01*
X107891554Y-110059131D01*
X107896824Y-110025855D01*
X107928501Y-109825860D01*
X107928501Y-109589665D01*
X107891554Y-109356398D01*
X107891554Y-109356395D01*
X107850548Y-109230196D01*
X107848554Y-109160356D01*
X107880797Y-109104200D01*
X111518713Y-105466285D01*
X111518716Y-105466284D01*
X111630520Y-105354480D01*
X111680639Y-105267668D01*
X111709577Y-105217549D01*
X111750501Y-105064821D01*
X111750501Y-104906707D01*
X111750501Y-104899112D01*
X111750500Y-104899094D01*
X111750500Y-101104067D01*
X111770185Y-101037028D01*
X111818205Y-100993582D01*
X111936433Y-100933343D01*
X112127510Y-100794517D01*
X112294517Y-100627510D01*
X112433343Y-100436433D01*
X112493583Y-100318204D01*
X112541558Y-100267409D01*
X112604068Y-100250500D01*
X116195932Y-100250500D01*
X116210534Y-100254787D01*
G37*
%TD.AperFunction*%
%TA.AperFunction,NonConductor*%
G36*
X105040972Y-110327948D02*
G01*
X105084417Y-110375966D01*
X105144658Y-110494196D01*
X105283484Y-110685273D01*
X105450491Y-110852280D01*
X105619651Y-110975182D01*
X105662316Y-111030512D01*
X105668295Y-111100126D01*
X105635689Y-111161921D01*
X105574850Y-111196278D01*
X105546765Y-111199500D01*
X100809237Y-111199500D01*
X100742198Y-111179815D01*
X100696443Y-111127011D01*
X100686499Y-111057853D01*
X100715524Y-110994297D01*
X100736351Y-110975182D01*
X100905511Y-110852280D01*
X101072518Y-110685273D01*
X101211344Y-110494196D01*
X101271584Y-110375967D01*
X101319559Y-110325172D01*
X101382069Y-110308263D01*
X104973933Y-110308263D01*
X105040972Y-110327948D01*
G37*
%TD.AperFunction*%
%TA.AperFunction,NonConductor*%
G36*
X84388535Y-87312550D02*
G01*
X84403740Y-87311899D01*
X84421378Y-87322194D01*
X84440972Y-87327948D01*
X84451868Y-87339992D01*
X84464082Y-87347121D01*
X84484416Y-87375965D01*
X84544658Y-87494196D01*
X84683484Y-87685273D01*
X84850491Y-87852280D01*
X84919306Y-87902277D01*
X85041569Y-87991107D01*
X85116178Y-88029121D01*
X85159795Y-88051345D01*
X85210591Y-88099319D01*
X85227501Y-88161830D01*
X85227501Y-95713330D01*
X85227500Y-95713348D01*
X85227500Y-95879054D01*
X85227499Y-95879054D01*
X85268424Y-96031785D01*
X85296463Y-96080350D01*
X85296465Y-96080352D01*
X85347480Y-96168714D01*
X85347482Y-96168717D01*
X85466350Y-96287585D01*
X85466356Y-96287590D01*
X88225201Y-99046435D01*
X88258686Y-99107758D01*
X88255451Y-99172433D01*
X88214448Y-99298628D01*
X88177501Y-99531902D01*
X88177501Y-99768097D01*
X88214447Y-100001368D01*
X88287434Y-100225996D01*
X88394658Y-100436433D01*
X88533484Y-100627510D01*
X88700491Y-100794517D01*
X88891568Y-100933343D01*
X88990992Y-100984002D01*
X89102004Y-101040566D01*
X89102006Y-101040566D01*
X89102009Y-101040568D01*
X89213122Y-101076671D01*
X89326632Y-101113553D01*
X89559904Y-101150500D01*
X89559909Y-101150500D01*
X89796098Y-101150500D01*
X90029369Y-101113553D01*
X90058564Y-101104067D01*
X90253993Y-101040568D01*
X90464434Y-100933343D01*
X90655511Y-100794517D01*
X90822518Y-100627510D01*
X90961344Y-100436433D01*
X91021584Y-100318204D01*
X91069559Y-100267409D01*
X91132069Y-100250500D01*
X94723933Y-100250500D01*
X94790972Y-100270185D01*
X94834417Y-100318203D01*
X94894658Y-100436433D01*
X95033484Y-100627510D01*
X95200491Y-100794517D01*
X95279991Y-100852277D01*
X95391569Y-100933344D01*
X95466178Y-100971358D01*
X95509795Y-100993582D01*
X95560591Y-101041556D01*
X95577501Y-101104067D01*
X95577501Y-105871093D01*
X95577500Y-105871111D01*
X95577500Y-106036819D01*
X95618422Y-106189543D01*
X95618423Y-106189545D01*
X95618424Y-106189548D01*
X95621101Y-106194184D01*
X95621105Y-106194198D01*
X95621108Y-106194197D01*
X95697476Y-106326472D01*
X95697482Y-106326480D01*
X95816350Y-106445348D01*
X95816356Y-106445353D01*
X98475201Y-109104198D01*
X98508686Y-109165521D01*
X98505451Y-109230196D01*
X98464448Y-109356391D01*
X98427501Y-109589665D01*
X98427501Y-109825860D01*
X98464447Y-110059131D01*
X98537434Y-110283759D01*
X98639338Y-110483755D01*
X98644658Y-110494196D01*
X98783484Y-110685273D01*
X98950491Y-110852280D01*
X99119651Y-110975182D01*
X99162316Y-111030512D01*
X99168295Y-111100126D01*
X99135689Y-111161921D01*
X99074850Y-111196278D01*
X99046765Y-111199500D01*
X47157653Y-111199500D01*
X47090614Y-111179815D01*
X47044859Y-111127011D01*
X47034915Y-111057853D01*
X47063940Y-110994297D01*
X47069972Y-110987819D01*
X47082609Y-110975182D01*
X47172518Y-110885273D01*
X47311344Y-110694196D01*
X47418569Y-110483755D01*
X47491554Y-110259131D01*
X47523231Y-110059131D01*
X47528501Y-110025860D01*
X47528501Y-109789665D01*
X47491554Y-109556398D01*
X47491554Y-109556395D01*
X47450548Y-109430196D01*
X47448554Y-109360356D01*
X47480797Y-109304200D01*
X49886507Y-106898491D01*
X49886512Y-106898487D01*
X49896715Y-106888283D01*
X49896717Y-106888283D01*
X50008521Y-106776479D01*
X50087578Y-106639547D01*
X50128501Y-106486820D01*
X50128501Y-101161830D01*
X50148186Y-101094791D01*
X50196206Y-101051345D01*
X50314434Y-100991106D01*
X50505511Y-100852280D01*
X50672518Y-100685273D01*
X50811344Y-100494196D01*
X50871584Y-100375967D01*
X50919559Y-100325172D01*
X50982069Y-100308263D01*
X54573933Y-100308263D01*
X54640972Y-100327948D01*
X54684417Y-100375966D01*
X54744658Y-100494196D01*
X54883484Y-100685273D01*
X55050491Y-100852280D01*
X55241568Y-100991106D01*
X55314134Y-101028080D01*
X55452004Y-101098329D01*
X55452006Y-101098329D01*
X55452009Y-101098331D01*
X55537901Y-101126239D01*
X55676632Y-101171316D01*
X55909904Y-101208263D01*
X55909909Y-101208263D01*
X56146098Y-101208263D01*
X56379369Y-101171316D01*
X56408564Y-101161830D01*
X56603993Y-101098331D01*
X56814434Y-100991106D01*
X57005511Y-100852280D01*
X57172518Y-100685273D01*
X57311344Y-100494196D01*
X57418569Y-100283755D01*
X57491554Y-100059131D01*
X57500703Y-100001368D01*
X57528501Y-99825860D01*
X57528501Y-99589665D01*
X57491554Y-99356398D01*
X57491554Y-99356395D01*
X57450548Y-99230196D01*
X57448554Y-99160356D01*
X57480797Y-99104200D01*
X60836507Y-95748491D01*
X60836512Y-95748487D01*
X60846715Y-95738283D01*
X60846717Y-95738283D01*
X60958521Y-95626479D01*
X61037578Y-95489547D01*
X61078501Y-95336820D01*
X61078501Y-88211830D01*
X61098186Y-88144791D01*
X61146206Y-88101345D01*
X61264434Y-88041106D01*
X61455511Y-87902280D01*
X61622518Y-87735273D01*
X61761344Y-87544196D01*
X61821584Y-87425967D01*
X61869559Y-87375172D01*
X61932069Y-87358263D01*
X65523933Y-87358263D01*
X65590972Y-87377948D01*
X65634417Y-87425966D01*
X65694658Y-87544196D01*
X65833484Y-87735273D01*
X66000491Y-87902280D01*
X66191568Y-88041106D01*
X66279369Y-88085843D01*
X66402004Y-88148329D01*
X66402006Y-88148329D01*
X66402009Y-88148331D01*
X66522413Y-88187452D01*
X66626632Y-88221316D01*
X66859904Y-88258263D01*
X66859909Y-88258263D01*
X67096098Y-88258263D01*
X67329369Y-88221316D01*
X67358564Y-88211830D01*
X67553993Y-88148331D01*
X67764434Y-88041106D01*
X67955511Y-87902280D01*
X68122518Y-87735273D01*
X68261344Y-87544196D01*
X68321584Y-87425967D01*
X68369559Y-87375172D01*
X68432069Y-87358263D01*
X77899409Y-87358263D01*
X77966448Y-87377948D01*
X78009894Y-87425968D01*
X78023026Y-87451740D01*
X78044658Y-87494196D01*
X78183484Y-87685273D01*
X78350491Y-87852280D01*
X78541568Y-87991106D01*
X78639697Y-88041105D01*
X78752004Y-88098329D01*
X78752006Y-88098329D01*
X78752009Y-88098331D01*
X78867459Y-88135843D01*
X78976632Y-88171316D01*
X79209904Y-88208263D01*
X79209909Y-88208263D01*
X79446098Y-88208263D01*
X79679369Y-88171316D01*
X79708564Y-88161830D01*
X79903993Y-88098331D01*
X80114434Y-87991106D01*
X80305511Y-87852280D01*
X80472518Y-87685273D01*
X80611344Y-87494196D01*
X80671584Y-87375967D01*
X80719559Y-87325172D01*
X80782069Y-87308263D01*
X84373933Y-87308263D01*
X84388535Y-87312550D01*
G37*
%TD.AperFunction*%
%TA.AperFunction,NonConductor*%
G36*
X44640972Y-110527948D02*
G01*
X44684417Y-110575966D01*
X44744658Y-110694196D01*
X44883484Y-110885273D01*
X44883486Y-110885275D01*
X44986030Y-110987819D01*
X45019515Y-111049142D01*
X45014531Y-111118834D01*
X44972659Y-111174767D01*
X44907195Y-111199184D01*
X44898349Y-111199500D01*
X40657653Y-111199500D01*
X40590614Y-111179815D01*
X40544859Y-111127011D01*
X40534915Y-111057853D01*
X40563940Y-110994297D01*
X40569972Y-110987819D01*
X40582609Y-110975182D01*
X40672518Y-110885273D01*
X40811344Y-110694196D01*
X40871584Y-110575967D01*
X40919559Y-110525172D01*
X40982069Y-110508263D01*
X44573933Y-110508263D01*
X44640972Y-110527948D01*
G37*
%TD.AperFunction*%
%TA.AperFunction,NonConductor*%
G36*
X24633704Y-95663147D02*
G01*
X24640182Y-95669179D01*
X28075201Y-99104198D01*
X28108686Y-99165521D01*
X28105451Y-99230196D01*
X28064448Y-99356391D01*
X28027501Y-99589665D01*
X28027501Y-99825860D01*
X28064447Y-100059131D01*
X28137434Y-100283759D01*
X28215226Y-100436433D01*
X28244658Y-100494196D01*
X28383484Y-100685273D01*
X28550491Y-100852280D01*
X28741568Y-100991106D01*
X28814134Y-101028080D01*
X28952004Y-101098329D01*
X28952006Y-101098329D01*
X28952009Y-101098331D01*
X29037901Y-101126239D01*
X29176632Y-101171316D01*
X29409904Y-101208263D01*
X29409909Y-101208263D01*
X29646098Y-101208263D01*
X29879369Y-101171316D01*
X29908564Y-101161830D01*
X30103993Y-101098331D01*
X30314434Y-100991106D01*
X30505511Y-100852280D01*
X30672518Y-100685273D01*
X30811344Y-100494196D01*
X30871584Y-100375967D01*
X30919559Y-100325172D01*
X30982069Y-100308263D01*
X34573933Y-100308263D01*
X34640972Y-100327948D01*
X34684417Y-100375966D01*
X34744658Y-100494196D01*
X34883484Y-100685273D01*
X35050491Y-100852280D01*
X35162066Y-100933344D01*
X35241569Y-100991107D01*
X35246427Y-100993582D01*
X35359795Y-101051345D01*
X35410591Y-101099319D01*
X35427501Y-101161830D01*
X35427501Y-106321093D01*
X35427500Y-106321111D01*
X35427500Y-106486817D01*
X35427499Y-106486817D01*
X35468424Y-106639548D01*
X35497359Y-106689663D01*
X35497360Y-106689667D01*
X35497361Y-106689667D01*
X35547480Y-106776477D01*
X35547482Y-106776480D01*
X35666350Y-106895348D01*
X35666356Y-106895353D01*
X38075201Y-109304198D01*
X38108686Y-109365521D01*
X38105451Y-109430196D01*
X38064448Y-109556391D01*
X38027501Y-109789665D01*
X38027501Y-110025860D01*
X38064447Y-110259131D01*
X38137434Y-110483759D01*
X38244658Y-110694196D01*
X38383484Y-110885273D01*
X38383486Y-110885275D01*
X38486030Y-110987819D01*
X38519515Y-111049142D01*
X38514531Y-111118834D01*
X38472659Y-111174767D01*
X38407195Y-111199184D01*
X38398349Y-111199500D01*
X25500098Y-111199500D01*
X25433059Y-111179815D01*
X25412417Y-111163181D01*
X21436819Y-107187583D01*
X21403334Y-107126260D01*
X21400500Y-107099902D01*
X21400500Y-105361096D01*
X21420185Y-105294057D01*
X21472989Y-105248302D01*
X21542147Y-105238358D01*
X21605703Y-105267383D01*
X21612181Y-105273415D01*
X21744242Y-105405476D01*
X21777727Y-105466799D01*
X21774493Y-105531473D01*
X21760754Y-105573757D01*
X21727501Y-105783713D01*
X21727501Y-105996286D01*
X21758110Y-106189548D01*
X21760755Y-106206243D01*
X21818926Y-106385275D01*
X21826445Y-106408414D01*
X21922952Y-106597820D01*
X22047891Y-106769786D01*
X22198214Y-106920109D01*
X22370180Y-107045048D01*
X22370182Y-107045049D01*
X22370185Y-107045051D01*
X22559589Y-107141557D01*
X22761758Y-107207246D01*
X22971714Y-107240500D01*
X22971715Y-107240500D01*
X23184287Y-107240500D01*
X23184288Y-107240500D01*
X23394244Y-107207246D01*
X23596413Y-107141557D01*
X23785817Y-107045051D01*
X23807790Y-107029086D01*
X23957787Y-106920109D01*
X23957789Y-106920106D01*
X23957793Y-106920104D01*
X24108105Y-106769792D01*
X24108107Y-106769788D01*
X24108110Y-106769786D01*
X24233049Y-106597820D01*
X24233048Y-106597820D01*
X24233052Y-106597816D01*
X24329558Y-106408412D01*
X24395247Y-106206243D01*
X24428501Y-105996287D01*
X24428501Y-105783713D01*
X24395247Y-105573757D01*
X24329558Y-105371588D01*
X24233052Y-105182184D01*
X24233050Y-105182181D01*
X24233049Y-105182179D01*
X24108110Y-105010213D01*
X23957787Y-104859890D01*
X23785821Y-104734951D01*
X23785116Y-104734591D01*
X23777055Y-104730485D01*
X23726260Y-104682512D01*
X23709464Y-104614692D01*
X23732000Y-104548556D01*
X23777055Y-104509515D01*
X23785817Y-104505051D01*
X23807790Y-104489086D01*
X23957787Y-104380109D01*
X23957789Y-104380106D01*
X23957793Y-104380104D01*
X24108105Y-104229792D01*
X24108107Y-104229788D01*
X24108110Y-104229786D01*
X24233049Y-104057820D01*
X24233048Y-104057820D01*
X24233052Y-104057816D01*
X24329558Y-103868412D01*
X24395247Y-103666243D01*
X24428501Y-103456287D01*
X24428501Y-103243713D01*
X24395247Y-103033757D01*
X24329558Y-102831588D01*
X24233052Y-102642184D01*
X24233050Y-102642181D01*
X24233049Y-102642179D01*
X24108110Y-102470213D01*
X23957787Y-102319890D01*
X23785821Y-102194951D01*
X23785116Y-102194591D01*
X23777055Y-102190485D01*
X23726260Y-102142512D01*
X23709464Y-102074692D01*
X23732000Y-102008556D01*
X23777055Y-101969515D01*
X23785817Y-101965051D01*
X23807790Y-101949086D01*
X23957787Y-101840109D01*
X23957789Y-101840106D01*
X23957793Y-101840104D01*
X24108105Y-101689792D01*
X24108107Y-101689788D01*
X24108110Y-101689786D01*
X24233049Y-101517820D01*
X24233048Y-101517820D01*
X24233052Y-101517816D01*
X24329558Y-101328412D01*
X24395247Y-101126243D01*
X24428501Y-100916287D01*
X24428501Y-100703713D01*
X24395247Y-100493757D01*
X24329558Y-100291588D01*
X24233052Y-100102184D01*
X24233050Y-100102181D01*
X24233049Y-100102179D01*
X24108110Y-99930213D01*
X23957787Y-99779890D01*
X23785821Y-99654951D01*
X23785116Y-99654591D01*
X23777055Y-99650485D01*
X23726260Y-99602512D01*
X23709464Y-99534692D01*
X23732000Y-99468556D01*
X23777055Y-99429515D01*
X23785817Y-99425051D01*
X23807790Y-99409086D01*
X23957787Y-99300109D01*
X23957789Y-99300106D01*
X23957793Y-99300104D01*
X24108105Y-99149792D01*
X24108107Y-99149788D01*
X24108110Y-99149786D01*
X24233049Y-98977820D01*
X24233048Y-98977820D01*
X24233052Y-98977816D01*
X24329558Y-98788412D01*
X24395247Y-98586243D01*
X24428501Y-98376287D01*
X24428501Y-98163713D01*
X24395247Y-97953757D01*
X24329558Y-97751588D01*
X24233052Y-97562184D01*
X24233050Y-97562181D01*
X24233049Y-97562179D01*
X24108110Y-97390213D01*
X23957787Y-97239890D01*
X23785821Y-97114951D01*
X23785116Y-97114591D01*
X23777055Y-97110485D01*
X23726260Y-97062512D01*
X23709464Y-96994692D01*
X23732000Y-96928556D01*
X23777055Y-96889515D01*
X23785817Y-96885051D01*
X23901700Y-96800858D01*
X23957787Y-96760109D01*
X23957789Y-96760106D01*
X23957793Y-96760104D01*
X24108105Y-96609792D01*
X24108107Y-96609788D01*
X24108110Y-96609786D01*
X24233049Y-96437820D01*
X24233048Y-96437820D01*
X24233052Y-96437816D01*
X24329558Y-96248412D01*
X24395247Y-96046243D01*
X24428501Y-95836287D01*
X24428501Y-95756860D01*
X24448186Y-95689821D01*
X24500990Y-95644066D01*
X24570148Y-95634122D01*
X24633704Y-95663147D01*
G37*
%TD.AperFunction*%
%TA.AperFunction,NonConductor*%
G36*
X20905703Y-108355384D02*
G01*
X20912180Y-108361415D01*
X24831284Y-112280520D01*
X24831286Y-112280521D01*
X24831290Y-112280524D01*
X24968209Y-112359573D01*
X24968216Y-112359577D01*
X25120943Y-112400501D01*
X25120945Y-112400501D01*
X25286654Y-112400501D01*
X25286670Y-112400500D01*
X119575500Y-112400500D01*
X119642539Y-112420185D01*
X119688294Y-112472989D01*
X119699500Y-112524500D01*
X119699500Y-114975500D01*
X119679815Y-115042539D01*
X119627011Y-115088294D01*
X119575500Y-115099500D01*
X20824500Y-115099500D01*
X20757461Y-115079815D01*
X20711706Y-115027011D01*
X20700500Y-114975500D01*
X20700500Y-108449097D01*
X20720185Y-108382058D01*
X20772989Y-108336303D01*
X20842147Y-108326359D01*
X20905703Y-108355384D01*
G37*
%TD.AperFunction*%
M02*
