M48
; DRILL file KiCad 10.0.1 date 2026-08-22T23:10:40
; FORMAT={-:-/ absolute / metric / decimal}
; #@! TF.CreationDate,2026-08-22T23:10:40+03:00
; #@! TF.GenerationSoftware,Kicad,Pcbnew,10.0.1
; #@! TF.FileFunction,Plated,1,2,PTH
FMAT,2
METRIC
; #@! TA.AperFunction,Plated,PTH,ViaDrill
T1C0.300
; #@! TA.AperFunction,Plated,PTH,ComponentDrill
T2C1.000
; #@! TA.AperFunction,Plated,PTH,ComponentDrill
T3C1.100
; #@! TA.AperFunction,Plated,PTH,ComponentDrill
T4C1.300
%
G90
G05
T1
X61.0Y-77.0
X115.8Y-95.0
T2
X23.078Y-93.19
X23.078Y-95.73
X23.078Y-98.27
X23.078Y-100.81
X23.078Y-103.35
X23.078Y-105.89
X24.46Y-23.6
X24.46Y-26.14
X27.0Y-23.6
X27.0Y-26.14
X27.6Y-75.617
X29.54Y-23.6
X29.54Y-26.14
X32.08Y-23.6
X32.08Y-26.14
X32.1Y-75.617
X34.62Y-23.6
X34.62Y-26.14
X37.16Y-23.6
X37.16Y-26.14
X39.7Y-23.6
X39.7Y-26.14
X42.24Y-23.6
X42.24Y-26.14
X44.78Y-23.6
X44.78Y-26.14
X47.32Y-23.6
X47.32Y-26.14
X49.86Y-23.6
X49.86Y-26.14
X52.4Y-23.6
X52.4Y-26.14
X54.94Y-23.6
X54.94Y-26.14
X91.0Y-25.26
X91.0Y-27.8
X91.0Y-30.34
X91.0Y-32.88
X91.0Y-35.42
X91.0Y-37.96
X91.0Y-40.5
X91.0Y-43.04
X91.0Y-45.58
X91.0Y-48.12
X91.0Y-50.66
X91.0Y-53.2
X91.0Y-55.74
X91.0Y-58.28
X91.0Y-60.82
X109.1Y-75.042
X113.6Y-75.042
X116.4Y-25.26
X116.4Y-27.8
X116.4Y-30.34
X116.4Y-32.88
X116.4Y-35.42
X116.4Y-37.96
X116.4Y-40.5
X116.4Y-43.04
X116.4Y-45.58
X116.4Y-48.12
X116.4Y-50.66
X116.4Y-53.2
X116.4Y-55.74
X116.4Y-58.28
X116.4Y-60.82
T3
X29.528Y-95.208
X29.528Y-99.708
X36.028Y-95.208
X36.028Y-99.708
X39.478Y-85.258
X39.478Y-89.758
X39.528Y-105.408
X39.528Y-109.908
X45.978Y-85.258
X45.978Y-89.758
X46.028Y-105.408
X46.028Y-109.908
X49.528Y-95.208
X49.528Y-99.708
X56.028Y-95.208
X56.028Y-99.708
X60.478Y-82.258
X60.478Y-86.758
X66.978Y-82.258
X66.978Y-86.758
X79.328Y-82.208
X79.328Y-86.708
X85.828Y-82.208
X85.828Y-86.708
X89.678Y-95.15
X89.678Y-99.65
X96.178Y-95.15
X96.178Y-99.65
X99.928Y-105.208
X99.928Y-109.708
X100.078Y-85.358
X100.078Y-89.858
X106.428Y-105.208
X106.428Y-109.708
X106.578Y-85.358
X106.578Y-89.858
X111.15Y-95.15
X111.15Y-99.65
X117.65Y-95.15
X117.65Y-99.65
T4
X26.35Y-78.117
X33.35Y-78.117
X107.85Y-77.542
X114.85Y-77.542
M30
