%TF.GenerationSoftware,KiCad,Pcbnew,10.0.1*%
%TF.CreationDate,2026-08-22T23:10:47+03:00*%
%TF.ProjectId,handheld,68616e64-6865-46c6-942e-6b696361645f,rev?*%
%TF.SameCoordinates,Original*%
%TF.FileFunction,Legend,Top*%
%TF.FilePolarity,Positive*%
%FSLAX46Y46*%
G04 Gerber Fmt 4.6, Leading zero omitted, Abs format (unit mm)*
G04 Created by KiCad (PCBNEW 10.0.1) date 2026-08-22 23:10:47*
%MOMM*%
%LPD*%
G01*
G04 APERTURE LIST*
%ADD10C,0.100000*%
%ADD11C,0.150000*%
%ADD12C,0.120000*%
G04 APERTURE END LIST*
D10*
X21503884Y-79072419D02*
X21503884Y-78072419D01*
X21503884Y-78072419D02*
X21837217Y-78786704D01*
X21837217Y-78786704D02*
X22170550Y-78072419D01*
X22170550Y-78072419D02*
X22170550Y-79072419D01*
X22837217Y-78072419D02*
X23027693Y-78072419D01*
X23027693Y-78072419D02*
X23122931Y-78120038D01*
X23122931Y-78120038D02*
X23218169Y-78215276D01*
X23218169Y-78215276D02*
X23265788Y-78405752D01*
X23265788Y-78405752D02*
X23265788Y-78739085D01*
X23265788Y-78739085D02*
X23218169Y-78929561D01*
X23218169Y-78929561D02*
X23122931Y-79024800D01*
X23122931Y-79024800D02*
X23027693Y-79072419D01*
X23027693Y-79072419D02*
X22837217Y-79072419D01*
X22837217Y-79072419D02*
X22741979Y-79024800D01*
X22741979Y-79024800D02*
X22646741Y-78929561D01*
X22646741Y-78929561D02*
X22599122Y-78739085D01*
X22599122Y-78739085D02*
X22599122Y-78405752D01*
X22599122Y-78405752D02*
X22646741Y-78215276D01*
X22646741Y-78215276D02*
X22741979Y-78120038D01*
X22741979Y-78120038D02*
X22837217Y-78072419D01*
X23646741Y-79024800D02*
X23789598Y-79072419D01*
X23789598Y-79072419D02*
X24027693Y-79072419D01*
X24027693Y-79072419D02*
X24122931Y-79024800D01*
X24122931Y-79024800D02*
X24170550Y-78977180D01*
X24170550Y-78977180D02*
X24218169Y-78881942D01*
X24218169Y-78881942D02*
X24218169Y-78786704D01*
X24218169Y-78786704D02*
X24170550Y-78691466D01*
X24170550Y-78691466D02*
X24122931Y-78643847D01*
X24122931Y-78643847D02*
X24027693Y-78596228D01*
X24027693Y-78596228D02*
X23837217Y-78548609D01*
X23837217Y-78548609D02*
X23741979Y-78500990D01*
X23741979Y-78500990D02*
X23694360Y-78453371D01*
X23694360Y-78453371D02*
X23646741Y-78358133D01*
X23646741Y-78358133D02*
X23646741Y-78262895D01*
X23646741Y-78262895D02*
X23694360Y-78167657D01*
X23694360Y-78167657D02*
X23741979Y-78120038D01*
X23741979Y-78120038D02*
X23837217Y-78072419D01*
X23837217Y-78072419D02*
X24075312Y-78072419D01*
X24075312Y-78072419D02*
X24218169Y-78120038D01*
X24646741Y-79072419D02*
X24646741Y-78072419D01*
X21703884Y-84072419D02*
X21703884Y-83072419D01*
X21703884Y-83072419D02*
X22037217Y-83786704D01*
X22037217Y-83786704D02*
X22370550Y-83072419D01*
X22370550Y-83072419D02*
X22370550Y-84072419D01*
X22846741Y-84072419D02*
X22846741Y-83072419D01*
X23275312Y-84024800D02*
X23418169Y-84072419D01*
X23418169Y-84072419D02*
X23656264Y-84072419D01*
X23656264Y-84072419D02*
X23751502Y-84024800D01*
X23751502Y-84024800D02*
X23799121Y-83977180D01*
X23799121Y-83977180D02*
X23846740Y-83881942D01*
X23846740Y-83881942D02*
X23846740Y-83786704D01*
X23846740Y-83786704D02*
X23799121Y-83691466D01*
X23799121Y-83691466D02*
X23751502Y-83643847D01*
X23751502Y-83643847D02*
X23656264Y-83596228D01*
X23656264Y-83596228D02*
X23465788Y-83548609D01*
X23465788Y-83548609D02*
X23370550Y-83500990D01*
X23370550Y-83500990D02*
X23322931Y-83453371D01*
X23322931Y-83453371D02*
X23275312Y-83358133D01*
X23275312Y-83358133D02*
X23275312Y-83262895D01*
X23275312Y-83262895D02*
X23322931Y-83167657D01*
X23322931Y-83167657D02*
X23370550Y-83120038D01*
X23370550Y-83120038D02*
X23465788Y-83072419D01*
X23465788Y-83072419D02*
X23703883Y-83072419D01*
X23703883Y-83072419D02*
X23846740Y-83120038D01*
X24465788Y-83072419D02*
X24656264Y-83072419D01*
X24656264Y-83072419D02*
X24751502Y-83120038D01*
X24751502Y-83120038D02*
X24846740Y-83215276D01*
X24846740Y-83215276D02*
X24894359Y-83405752D01*
X24894359Y-83405752D02*
X24894359Y-83739085D01*
X24894359Y-83739085D02*
X24846740Y-83929561D01*
X24846740Y-83929561D02*
X24751502Y-84024800D01*
X24751502Y-84024800D02*
X24656264Y-84072419D01*
X24656264Y-84072419D02*
X24465788Y-84072419D01*
X24465788Y-84072419D02*
X24370550Y-84024800D01*
X24370550Y-84024800D02*
X24275312Y-83929561D01*
X24275312Y-83929561D02*
X24227693Y-83739085D01*
X24227693Y-83739085D02*
X24227693Y-83405752D01*
X24227693Y-83405752D02*
X24275312Y-83215276D01*
X24275312Y-83215276D02*
X24370550Y-83120038D01*
X24370550Y-83120038D02*
X24465788Y-83072419D01*
X22227693Y-86120038D02*
X22132455Y-86072419D01*
X22132455Y-86072419D02*
X21989598Y-86072419D01*
X21989598Y-86072419D02*
X21846741Y-86120038D01*
X21846741Y-86120038D02*
X21751503Y-86215276D01*
X21751503Y-86215276D02*
X21703884Y-86310514D01*
X21703884Y-86310514D02*
X21656265Y-86500990D01*
X21656265Y-86500990D02*
X21656265Y-86643847D01*
X21656265Y-86643847D02*
X21703884Y-86834323D01*
X21703884Y-86834323D02*
X21751503Y-86929561D01*
X21751503Y-86929561D02*
X21846741Y-87024800D01*
X21846741Y-87024800D02*
X21989598Y-87072419D01*
X21989598Y-87072419D02*
X22084836Y-87072419D01*
X22084836Y-87072419D02*
X22227693Y-87024800D01*
X22227693Y-87024800D02*
X22275312Y-86977180D01*
X22275312Y-86977180D02*
X22275312Y-86643847D01*
X22275312Y-86643847D02*
X22084836Y-86643847D01*
X22703884Y-87072419D02*
X22703884Y-86072419D01*
X22703884Y-86072419D02*
X23275312Y-87072419D01*
X23275312Y-87072419D02*
X23275312Y-86072419D01*
X23751503Y-87072419D02*
X23751503Y-86072419D01*
X23751503Y-86072419D02*
X23989598Y-86072419D01*
X23989598Y-86072419D02*
X24132455Y-86120038D01*
X24132455Y-86120038D02*
X24227693Y-86215276D01*
X24227693Y-86215276D02*
X24275312Y-86310514D01*
X24275312Y-86310514D02*
X24322931Y-86500990D01*
X24322931Y-86500990D02*
X24322931Y-86643847D01*
X24322931Y-86643847D02*
X24275312Y-86834323D01*
X24275312Y-86834323D02*
X24227693Y-86929561D01*
X24227693Y-86929561D02*
X24132455Y-87024800D01*
X24132455Y-87024800D02*
X23989598Y-87072419D01*
X23989598Y-87072419D02*
X23751503Y-87072419D01*
X22475312Y-81177180D02*
X22427693Y-81224800D01*
X22427693Y-81224800D02*
X22284836Y-81272419D01*
X22284836Y-81272419D02*
X22189598Y-81272419D01*
X22189598Y-81272419D02*
X22046741Y-81224800D01*
X22046741Y-81224800D02*
X21951503Y-81129561D01*
X21951503Y-81129561D02*
X21903884Y-81034323D01*
X21903884Y-81034323D02*
X21856265Y-80843847D01*
X21856265Y-80843847D02*
X21856265Y-80700990D01*
X21856265Y-80700990D02*
X21903884Y-80510514D01*
X21903884Y-80510514D02*
X21951503Y-80415276D01*
X21951503Y-80415276D02*
X22046741Y-80320038D01*
X22046741Y-80320038D02*
X22189598Y-80272419D01*
X22189598Y-80272419D02*
X22284836Y-80272419D01*
X22284836Y-80272419D02*
X22427693Y-80320038D01*
X22427693Y-80320038D02*
X22475312Y-80367657D01*
X23380074Y-81272419D02*
X22903884Y-81272419D01*
X22903884Y-81272419D02*
X22903884Y-80272419D01*
X23713408Y-81272419D02*
X23713408Y-80272419D01*
X24284836Y-81272419D02*
X23856265Y-80700990D01*
X24284836Y-80272419D02*
X23713408Y-80843847D01*
X22408646Y-73272419D02*
X23027693Y-73272419D01*
X23027693Y-73272419D02*
X22694360Y-73653371D01*
X22694360Y-73653371D02*
X22837217Y-73653371D01*
X22837217Y-73653371D02*
X22932455Y-73700990D01*
X22932455Y-73700990D02*
X22980074Y-73748609D01*
X22980074Y-73748609D02*
X23027693Y-73843847D01*
X23027693Y-73843847D02*
X23027693Y-74081942D01*
X23027693Y-74081942D02*
X22980074Y-74177180D01*
X22980074Y-74177180D02*
X22932455Y-74224800D01*
X22932455Y-74224800D02*
X22837217Y-74272419D01*
X22837217Y-74272419D02*
X22551503Y-74272419D01*
X22551503Y-74272419D02*
X22456265Y-74224800D01*
X22456265Y-74224800D02*
X22408646Y-74177180D01*
X23313408Y-73272419D02*
X23646741Y-74272419D01*
X23646741Y-74272419D02*
X23980074Y-73272419D01*
X24218170Y-73272419D02*
X24837217Y-73272419D01*
X24837217Y-73272419D02*
X24503884Y-73653371D01*
X24503884Y-73653371D02*
X24646741Y-73653371D01*
X24646741Y-73653371D02*
X24741979Y-73700990D01*
X24741979Y-73700990D02*
X24789598Y-73748609D01*
X24789598Y-73748609D02*
X24837217Y-73843847D01*
X24837217Y-73843847D02*
X24837217Y-74081942D01*
X24837217Y-74081942D02*
X24789598Y-74177180D01*
X24789598Y-74177180D02*
X24741979Y-74224800D01*
X24741979Y-74224800D02*
X24646741Y-74272419D01*
X24646741Y-74272419D02*
X24361027Y-74272419D01*
X24361027Y-74272419D02*
X24265789Y-74224800D01*
X24265789Y-74224800D02*
X24218170Y-74177180D01*
X23475312Y-76377180D02*
X23427693Y-76424800D01*
X23427693Y-76424800D02*
X23284836Y-76472419D01*
X23284836Y-76472419D02*
X23189598Y-76472419D01*
X23189598Y-76472419D02*
X23046741Y-76424800D01*
X23046741Y-76424800D02*
X22951503Y-76329561D01*
X22951503Y-76329561D02*
X22903884Y-76234323D01*
X22903884Y-76234323D02*
X22856265Y-76043847D01*
X22856265Y-76043847D02*
X22856265Y-75900990D01*
X22856265Y-75900990D02*
X22903884Y-75710514D01*
X22903884Y-75710514D02*
X22951503Y-75615276D01*
X22951503Y-75615276D02*
X23046741Y-75520038D01*
X23046741Y-75520038D02*
X23189598Y-75472419D01*
X23189598Y-75472419D02*
X23284836Y-75472419D01*
X23284836Y-75472419D02*
X23427693Y-75520038D01*
X23427693Y-75520038D02*
X23475312Y-75567657D01*
X23856265Y-76424800D02*
X23999122Y-76472419D01*
X23999122Y-76472419D02*
X24237217Y-76472419D01*
X24237217Y-76472419D02*
X24332455Y-76424800D01*
X24332455Y-76424800D02*
X24380074Y-76377180D01*
X24380074Y-76377180D02*
X24427693Y-76281942D01*
X24427693Y-76281942D02*
X24427693Y-76186704D01*
X24427693Y-76186704D02*
X24380074Y-76091466D01*
X24380074Y-76091466D02*
X24332455Y-76043847D01*
X24332455Y-76043847D02*
X24237217Y-75996228D01*
X24237217Y-75996228D02*
X24046741Y-75948609D01*
X24046741Y-75948609D02*
X23951503Y-75900990D01*
X23951503Y-75900990D02*
X23903884Y-75853371D01*
X23903884Y-75853371D02*
X23856265Y-75758133D01*
X23856265Y-75758133D02*
X23856265Y-75662895D01*
X23856265Y-75662895D02*
X23903884Y-75567657D01*
X23903884Y-75567657D02*
X23951503Y-75520038D01*
X23951503Y-75520038D02*
X24046741Y-75472419D01*
X24046741Y-75472419D02*
X24284836Y-75472419D01*
X24284836Y-75472419D02*
X24427693Y-75520038D01*
D11*
X22744667Y-90264819D02*
X22744667Y-90979104D01*
X22744667Y-90979104D02*
X22697048Y-91121961D01*
X22697048Y-91121961D02*
X22601810Y-91217200D01*
X22601810Y-91217200D02*
X22458953Y-91264819D01*
X22458953Y-91264819D02*
X22363715Y-91264819D01*
X23649429Y-90598152D02*
X23649429Y-91264819D01*
X23411334Y-90217200D02*
X23173239Y-90931485D01*
X23173239Y-90931485D02*
X23792286Y-90931485D01*
X91594668Y-102057200D02*
X91737525Y-102104819D01*
X91737525Y-102104819D02*
X91975620Y-102104819D01*
X91975620Y-102104819D02*
X92070858Y-102057200D01*
X92070858Y-102057200D02*
X92118477Y-102009580D01*
X92118477Y-102009580D02*
X92166096Y-101914342D01*
X92166096Y-101914342D02*
X92166096Y-101819104D01*
X92166096Y-101819104D02*
X92118477Y-101723866D01*
X92118477Y-101723866D02*
X92070858Y-101676247D01*
X92070858Y-101676247D02*
X91975620Y-101628628D01*
X91975620Y-101628628D02*
X91785144Y-101581009D01*
X91785144Y-101581009D02*
X91689906Y-101533390D01*
X91689906Y-101533390D02*
X91642287Y-101485771D01*
X91642287Y-101485771D02*
X91594668Y-101390533D01*
X91594668Y-101390533D02*
X91594668Y-101295295D01*
X91594668Y-101295295D02*
X91642287Y-101200057D01*
X91642287Y-101200057D02*
X91689906Y-101152438D01*
X91689906Y-101152438D02*
X91785144Y-101104819D01*
X91785144Y-101104819D02*
X92023239Y-101104819D01*
X92023239Y-101104819D02*
X92166096Y-101152438D01*
X92499430Y-101104819D02*
X92737525Y-102104819D01*
X92737525Y-102104819D02*
X92928001Y-101390533D01*
X92928001Y-101390533D02*
X93118477Y-102104819D01*
X93118477Y-102104819D02*
X93356573Y-101104819D01*
X94166096Y-101104819D02*
X93975620Y-101104819D01*
X93975620Y-101104819D02*
X93880382Y-101152438D01*
X93880382Y-101152438D02*
X93832763Y-101200057D01*
X93832763Y-101200057D02*
X93737525Y-101342914D01*
X93737525Y-101342914D02*
X93689906Y-101533390D01*
X93689906Y-101533390D02*
X93689906Y-101914342D01*
X93689906Y-101914342D02*
X93737525Y-102009580D01*
X93737525Y-102009580D02*
X93785144Y-102057200D01*
X93785144Y-102057200D02*
X93880382Y-102104819D01*
X93880382Y-102104819D02*
X94070858Y-102104819D01*
X94070858Y-102104819D02*
X94166096Y-102057200D01*
X94166096Y-102057200D02*
X94213715Y-102009580D01*
X94213715Y-102009580D02*
X94261334Y-101914342D01*
X94261334Y-101914342D02*
X94261334Y-101676247D01*
X94261334Y-101676247D02*
X94213715Y-101581009D01*
X94213715Y-101581009D02*
X94166096Y-101533390D01*
X94166096Y-101533390D02*
X94070858Y-101485771D01*
X94070858Y-101485771D02*
X93880382Y-101485771D01*
X93880382Y-101485771D02*
X93785144Y-101533390D01*
X93785144Y-101533390D02*
X93737525Y-101581009D01*
X93737525Y-101581009D02*
X93689906Y-101676247D01*
X101994668Y-92264963D02*
X102137525Y-92312582D01*
X102137525Y-92312582D02*
X102375620Y-92312582D01*
X102375620Y-92312582D02*
X102470858Y-92264963D01*
X102470858Y-92264963D02*
X102518477Y-92217343D01*
X102518477Y-92217343D02*
X102566096Y-92122105D01*
X102566096Y-92122105D02*
X102566096Y-92026867D01*
X102566096Y-92026867D02*
X102518477Y-91931629D01*
X102518477Y-91931629D02*
X102470858Y-91884010D01*
X102470858Y-91884010D02*
X102375620Y-91836391D01*
X102375620Y-91836391D02*
X102185144Y-91788772D01*
X102185144Y-91788772D02*
X102089906Y-91741153D01*
X102089906Y-91741153D02*
X102042287Y-91693534D01*
X102042287Y-91693534D02*
X101994668Y-91598296D01*
X101994668Y-91598296D02*
X101994668Y-91503058D01*
X101994668Y-91503058D02*
X102042287Y-91407820D01*
X102042287Y-91407820D02*
X102089906Y-91360201D01*
X102089906Y-91360201D02*
X102185144Y-91312582D01*
X102185144Y-91312582D02*
X102423239Y-91312582D01*
X102423239Y-91312582D02*
X102566096Y-91360201D01*
X102899430Y-91312582D02*
X103137525Y-92312582D01*
X103137525Y-92312582D02*
X103328001Y-91598296D01*
X103328001Y-91598296D02*
X103518477Y-92312582D01*
X103518477Y-92312582D02*
X103756573Y-91312582D01*
X104613715Y-91312582D02*
X104137525Y-91312582D01*
X104137525Y-91312582D02*
X104089906Y-91788772D01*
X104089906Y-91788772D02*
X104137525Y-91741153D01*
X104137525Y-91741153D02*
X104232763Y-91693534D01*
X104232763Y-91693534D02*
X104470858Y-91693534D01*
X104470858Y-91693534D02*
X104566096Y-91741153D01*
X104566096Y-91741153D02*
X104613715Y-91788772D01*
X104613715Y-91788772D02*
X104661334Y-91884010D01*
X104661334Y-91884010D02*
X104661334Y-92122105D01*
X104661334Y-92122105D02*
X104613715Y-92217343D01*
X104613715Y-92217343D02*
X104566096Y-92264963D01*
X104566096Y-92264963D02*
X104470858Y-92312582D01*
X104470858Y-92312582D02*
X104232763Y-92312582D01*
X104232763Y-92312582D02*
X104137525Y-92264963D01*
X104137525Y-92264963D02*
X104089906Y-92217343D01*
X80768477Y-89114963D02*
X80911334Y-89162582D01*
X80911334Y-89162582D02*
X81149429Y-89162582D01*
X81149429Y-89162582D02*
X81244667Y-89114963D01*
X81244667Y-89114963D02*
X81292286Y-89067343D01*
X81292286Y-89067343D02*
X81339905Y-88972105D01*
X81339905Y-88972105D02*
X81339905Y-88876867D01*
X81339905Y-88876867D02*
X81292286Y-88781629D01*
X81292286Y-88781629D02*
X81244667Y-88734010D01*
X81244667Y-88734010D02*
X81149429Y-88686391D01*
X81149429Y-88686391D02*
X80958953Y-88638772D01*
X80958953Y-88638772D02*
X80863715Y-88591153D01*
X80863715Y-88591153D02*
X80816096Y-88543534D01*
X80816096Y-88543534D02*
X80768477Y-88448296D01*
X80768477Y-88448296D02*
X80768477Y-88353058D01*
X80768477Y-88353058D02*
X80816096Y-88257820D01*
X80816096Y-88257820D02*
X80863715Y-88210201D01*
X80863715Y-88210201D02*
X80958953Y-88162582D01*
X80958953Y-88162582D02*
X81197048Y-88162582D01*
X81197048Y-88162582D02*
X81339905Y-88210201D01*
X81673239Y-88162582D02*
X81911334Y-89162582D01*
X81911334Y-89162582D02*
X82101810Y-88448296D01*
X82101810Y-88448296D02*
X82292286Y-89162582D01*
X82292286Y-89162582D02*
X82530382Y-88162582D01*
X83435143Y-89162582D02*
X82863715Y-89162582D01*
X83149429Y-89162582D02*
X83149429Y-88162582D01*
X83149429Y-88162582D02*
X83054191Y-88305439D01*
X83054191Y-88305439D02*
X82958953Y-88400677D01*
X82958953Y-88400677D02*
X82863715Y-88448296D01*
X84054191Y-88162582D02*
X84149429Y-88162582D01*
X84149429Y-88162582D02*
X84244667Y-88210201D01*
X84244667Y-88210201D02*
X84292286Y-88257820D01*
X84292286Y-88257820D02*
X84339905Y-88353058D01*
X84339905Y-88353058D02*
X84387524Y-88543534D01*
X84387524Y-88543534D02*
X84387524Y-88781629D01*
X84387524Y-88781629D02*
X84339905Y-88972105D01*
X84339905Y-88972105D02*
X84292286Y-89067343D01*
X84292286Y-89067343D02*
X84244667Y-89114963D01*
X84244667Y-89114963D02*
X84149429Y-89162582D01*
X84149429Y-89162582D02*
X84054191Y-89162582D01*
X84054191Y-89162582D02*
X83958953Y-89114963D01*
X83958953Y-89114963D02*
X83911334Y-89067343D01*
X83911334Y-89067343D02*
X83863715Y-88972105D01*
X83863715Y-88972105D02*
X83816096Y-88781629D01*
X83816096Y-88781629D02*
X83816096Y-88543534D01*
X83816096Y-88543534D02*
X83863715Y-88353058D01*
X83863715Y-88353058D02*
X83911334Y-88257820D01*
X83911334Y-88257820D02*
X83958953Y-88210201D01*
X83958953Y-88210201D02*
X84054191Y-88162582D01*
X41394668Y-92164963D02*
X41537525Y-92212582D01*
X41537525Y-92212582D02*
X41775620Y-92212582D01*
X41775620Y-92212582D02*
X41870858Y-92164963D01*
X41870858Y-92164963D02*
X41918477Y-92117343D01*
X41918477Y-92117343D02*
X41966096Y-92022105D01*
X41966096Y-92022105D02*
X41966096Y-91926867D01*
X41966096Y-91926867D02*
X41918477Y-91831629D01*
X41918477Y-91831629D02*
X41870858Y-91784010D01*
X41870858Y-91784010D02*
X41775620Y-91736391D01*
X41775620Y-91736391D02*
X41585144Y-91688772D01*
X41585144Y-91688772D02*
X41489906Y-91641153D01*
X41489906Y-91641153D02*
X41442287Y-91593534D01*
X41442287Y-91593534D02*
X41394668Y-91498296D01*
X41394668Y-91498296D02*
X41394668Y-91403058D01*
X41394668Y-91403058D02*
X41442287Y-91307820D01*
X41442287Y-91307820D02*
X41489906Y-91260201D01*
X41489906Y-91260201D02*
X41585144Y-91212582D01*
X41585144Y-91212582D02*
X41823239Y-91212582D01*
X41823239Y-91212582D02*
X41966096Y-91260201D01*
X42299430Y-91212582D02*
X42537525Y-92212582D01*
X42537525Y-92212582D02*
X42728001Y-91498296D01*
X42728001Y-91498296D02*
X42918477Y-92212582D01*
X42918477Y-92212582D02*
X43156573Y-91212582D01*
X44061334Y-92212582D02*
X43489906Y-92212582D01*
X43775620Y-92212582D02*
X43775620Y-91212582D01*
X43775620Y-91212582D02*
X43680382Y-91355439D01*
X43680382Y-91355439D02*
X43585144Y-91450677D01*
X43585144Y-91450677D02*
X43489906Y-91498296D01*
X113066667Y-102057200D02*
X113209524Y-102104819D01*
X113209524Y-102104819D02*
X113447619Y-102104819D01*
X113447619Y-102104819D02*
X113542857Y-102057200D01*
X113542857Y-102057200D02*
X113590476Y-102009580D01*
X113590476Y-102009580D02*
X113638095Y-101914342D01*
X113638095Y-101914342D02*
X113638095Y-101819104D01*
X113638095Y-101819104D02*
X113590476Y-101723866D01*
X113590476Y-101723866D02*
X113542857Y-101676247D01*
X113542857Y-101676247D02*
X113447619Y-101628628D01*
X113447619Y-101628628D02*
X113257143Y-101581009D01*
X113257143Y-101581009D02*
X113161905Y-101533390D01*
X113161905Y-101533390D02*
X113114286Y-101485771D01*
X113114286Y-101485771D02*
X113066667Y-101390533D01*
X113066667Y-101390533D02*
X113066667Y-101295295D01*
X113066667Y-101295295D02*
X113114286Y-101200057D01*
X113114286Y-101200057D02*
X113161905Y-101152438D01*
X113161905Y-101152438D02*
X113257143Y-101104819D01*
X113257143Y-101104819D02*
X113495238Y-101104819D01*
X113495238Y-101104819D02*
X113638095Y-101152438D01*
X113971429Y-101104819D02*
X114209524Y-102104819D01*
X114209524Y-102104819D02*
X114400000Y-101390533D01*
X114400000Y-101390533D02*
X114590476Y-102104819D01*
X114590476Y-102104819D02*
X114828572Y-101104819D01*
X115114286Y-101104819D02*
X115780952Y-101104819D01*
X115780952Y-101104819D02*
X115352381Y-102104819D01*
X61838095Y-65104819D02*
X61838095Y-65914342D01*
X61838095Y-65914342D02*
X61885714Y-66009580D01*
X61885714Y-66009580D02*
X61933333Y-66057200D01*
X61933333Y-66057200D02*
X62028571Y-66104819D01*
X62028571Y-66104819D02*
X62219047Y-66104819D01*
X62219047Y-66104819D02*
X62314285Y-66057200D01*
X62314285Y-66057200D02*
X62361904Y-66009580D01*
X62361904Y-66009580D02*
X62409523Y-65914342D01*
X62409523Y-65914342D02*
X62409523Y-65104819D01*
X62838095Y-65200057D02*
X62885714Y-65152438D01*
X62885714Y-65152438D02*
X62980952Y-65104819D01*
X62980952Y-65104819D02*
X63219047Y-65104819D01*
X63219047Y-65104819D02*
X63314285Y-65152438D01*
X63314285Y-65152438D02*
X63361904Y-65200057D01*
X63361904Y-65200057D02*
X63409523Y-65295295D01*
X63409523Y-65295295D02*
X63409523Y-65390533D01*
X63409523Y-65390533D02*
X63361904Y-65533390D01*
X63361904Y-65533390D02*
X62790476Y-66104819D01*
X62790476Y-66104819D02*
X63409523Y-66104819D01*
X101844668Y-112114963D02*
X101987525Y-112162582D01*
X101987525Y-112162582D02*
X102225620Y-112162582D01*
X102225620Y-112162582D02*
X102320858Y-112114963D01*
X102320858Y-112114963D02*
X102368477Y-112067343D01*
X102368477Y-112067343D02*
X102416096Y-111972105D01*
X102416096Y-111972105D02*
X102416096Y-111876867D01*
X102416096Y-111876867D02*
X102368477Y-111781629D01*
X102368477Y-111781629D02*
X102320858Y-111734010D01*
X102320858Y-111734010D02*
X102225620Y-111686391D01*
X102225620Y-111686391D02*
X102035144Y-111638772D01*
X102035144Y-111638772D02*
X101939906Y-111591153D01*
X101939906Y-111591153D02*
X101892287Y-111543534D01*
X101892287Y-111543534D02*
X101844668Y-111448296D01*
X101844668Y-111448296D02*
X101844668Y-111353058D01*
X101844668Y-111353058D02*
X101892287Y-111257820D01*
X101892287Y-111257820D02*
X101939906Y-111210201D01*
X101939906Y-111210201D02*
X102035144Y-111162582D01*
X102035144Y-111162582D02*
X102273239Y-111162582D01*
X102273239Y-111162582D02*
X102416096Y-111210201D01*
X102749430Y-111162582D02*
X102987525Y-112162582D01*
X102987525Y-112162582D02*
X103178001Y-111448296D01*
X103178001Y-111448296D02*
X103368477Y-112162582D01*
X103368477Y-112162582D02*
X103606573Y-111162582D01*
X104130382Y-111591153D02*
X104035144Y-111543534D01*
X104035144Y-111543534D02*
X103987525Y-111495915D01*
X103987525Y-111495915D02*
X103939906Y-111400677D01*
X103939906Y-111400677D02*
X103939906Y-111353058D01*
X103939906Y-111353058D02*
X103987525Y-111257820D01*
X103987525Y-111257820D02*
X104035144Y-111210201D01*
X104035144Y-111210201D02*
X104130382Y-111162582D01*
X104130382Y-111162582D02*
X104320858Y-111162582D01*
X104320858Y-111162582D02*
X104416096Y-111210201D01*
X104416096Y-111210201D02*
X104463715Y-111257820D01*
X104463715Y-111257820D02*
X104511334Y-111353058D01*
X104511334Y-111353058D02*
X104511334Y-111400677D01*
X104511334Y-111400677D02*
X104463715Y-111495915D01*
X104463715Y-111495915D02*
X104416096Y-111543534D01*
X104416096Y-111543534D02*
X104320858Y-111591153D01*
X104320858Y-111591153D02*
X104130382Y-111591153D01*
X104130382Y-111591153D02*
X104035144Y-111638772D01*
X104035144Y-111638772D02*
X103987525Y-111686391D01*
X103987525Y-111686391D02*
X103939906Y-111781629D01*
X103939906Y-111781629D02*
X103939906Y-111972105D01*
X103939906Y-111972105D02*
X103987525Y-112067343D01*
X103987525Y-112067343D02*
X104035144Y-112114963D01*
X104035144Y-112114963D02*
X104130382Y-112162582D01*
X104130382Y-112162582D02*
X104320858Y-112162582D01*
X104320858Y-112162582D02*
X104416096Y-112114963D01*
X104416096Y-112114963D02*
X104463715Y-112067343D01*
X104463715Y-112067343D02*
X104511334Y-111972105D01*
X104511334Y-111972105D02*
X104511334Y-111781629D01*
X104511334Y-111781629D02*
X104463715Y-111686391D01*
X104463715Y-111686391D02*
X104416096Y-111638772D01*
X104416096Y-111638772D02*
X104320858Y-111591153D01*
X31444668Y-102114963D02*
X31587525Y-102162582D01*
X31587525Y-102162582D02*
X31825620Y-102162582D01*
X31825620Y-102162582D02*
X31920858Y-102114963D01*
X31920858Y-102114963D02*
X31968477Y-102067343D01*
X31968477Y-102067343D02*
X32016096Y-101972105D01*
X32016096Y-101972105D02*
X32016096Y-101876867D01*
X32016096Y-101876867D02*
X31968477Y-101781629D01*
X31968477Y-101781629D02*
X31920858Y-101734010D01*
X31920858Y-101734010D02*
X31825620Y-101686391D01*
X31825620Y-101686391D02*
X31635144Y-101638772D01*
X31635144Y-101638772D02*
X31539906Y-101591153D01*
X31539906Y-101591153D02*
X31492287Y-101543534D01*
X31492287Y-101543534D02*
X31444668Y-101448296D01*
X31444668Y-101448296D02*
X31444668Y-101353058D01*
X31444668Y-101353058D02*
X31492287Y-101257820D01*
X31492287Y-101257820D02*
X31539906Y-101210201D01*
X31539906Y-101210201D02*
X31635144Y-101162582D01*
X31635144Y-101162582D02*
X31873239Y-101162582D01*
X31873239Y-101162582D02*
X32016096Y-101210201D01*
X32349430Y-101162582D02*
X32587525Y-102162582D01*
X32587525Y-102162582D02*
X32778001Y-101448296D01*
X32778001Y-101448296D02*
X32968477Y-102162582D01*
X32968477Y-102162582D02*
X33206573Y-101162582D01*
X33539906Y-101257820D02*
X33587525Y-101210201D01*
X33587525Y-101210201D02*
X33682763Y-101162582D01*
X33682763Y-101162582D02*
X33920858Y-101162582D01*
X33920858Y-101162582D02*
X34016096Y-101210201D01*
X34016096Y-101210201D02*
X34063715Y-101257820D01*
X34063715Y-101257820D02*
X34111334Y-101353058D01*
X34111334Y-101353058D02*
X34111334Y-101448296D01*
X34111334Y-101448296D02*
X34063715Y-101591153D01*
X34063715Y-101591153D02*
X33492287Y-102162582D01*
X33492287Y-102162582D02*
X34111334Y-102162582D01*
X51444668Y-102114963D02*
X51587525Y-102162582D01*
X51587525Y-102162582D02*
X51825620Y-102162582D01*
X51825620Y-102162582D02*
X51920858Y-102114963D01*
X51920858Y-102114963D02*
X51968477Y-102067343D01*
X51968477Y-102067343D02*
X52016096Y-101972105D01*
X52016096Y-101972105D02*
X52016096Y-101876867D01*
X52016096Y-101876867D02*
X51968477Y-101781629D01*
X51968477Y-101781629D02*
X51920858Y-101734010D01*
X51920858Y-101734010D02*
X51825620Y-101686391D01*
X51825620Y-101686391D02*
X51635144Y-101638772D01*
X51635144Y-101638772D02*
X51539906Y-101591153D01*
X51539906Y-101591153D02*
X51492287Y-101543534D01*
X51492287Y-101543534D02*
X51444668Y-101448296D01*
X51444668Y-101448296D02*
X51444668Y-101353058D01*
X51444668Y-101353058D02*
X51492287Y-101257820D01*
X51492287Y-101257820D02*
X51539906Y-101210201D01*
X51539906Y-101210201D02*
X51635144Y-101162582D01*
X51635144Y-101162582D02*
X51873239Y-101162582D01*
X51873239Y-101162582D02*
X52016096Y-101210201D01*
X52349430Y-101162582D02*
X52587525Y-102162582D01*
X52587525Y-102162582D02*
X52778001Y-101448296D01*
X52778001Y-101448296D02*
X52968477Y-102162582D01*
X52968477Y-102162582D02*
X53206573Y-101162582D01*
X53492287Y-101162582D02*
X54111334Y-101162582D01*
X54111334Y-101162582D02*
X53778001Y-101543534D01*
X53778001Y-101543534D02*
X53920858Y-101543534D01*
X53920858Y-101543534D02*
X54016096Y-101591153D01*
X54016096Y-101591153D02*
X54063715Y-101638772D01*
X54063715Y-101638772D02*
X54111334Y-101734010D01*
X54111334Y-101734010D02*
X54111334Y-101972105D01*
X54111334Y-101972105D02*
X54063715Y-102067343D01*
X54063715Y-102067343D02*
X54016096Y-102114963D01*
X54016096Y-102114963D02*
X53920858Y-102162582D01*
X53920858Y-102162582D02*
X53635144Y-102162582D01*
X53635144Y-102162582D02*
X53539906Y-102114963D01*
X53539906Y-102114963D02*
X53492287Y-102067343D01*
X62394668Y-89164963D02*
X62537525Y-89212582D01*
X62537525Y-89212582D02*
X62775620Y-89212582D01*
X62775620Y-89212582D02*
X62870858Y-89164963D01*
X62870858Y-89164963D02*
X62918477Y-89117343D01*
X62918477Y-89117343D02*
X62966096Y-89022105D01*
X62966096Y-89022105D02*
X62966096Y-88926867D01*
X62966096Y-88926867D02*
X62918477Y-88831629D01*
X62918477Y-88831629D02*
X62870858Y-88784010D01*
X62870858Y-88784010D02*
X62775620Y-88736391D01*
X62775620Y-88736391D02*
X62585144Y-88688772D01*
X62585144Y-88688772D02*
X62489906Y-88641153D01*
X62489906Y-88641153D02*
X62442287Y-88593534D01*
X62442287Y-88593534D02*
X62394668Y-88498296D01*
X62394668Y-88498296D02*
X62394668Y-88403058D01*
X62394668Y-88403058D02*
X62442287Y-88307820D01*
X62442287Y-88307820D02*
X62489906Y-88260201D01*
X62489906Y-88260201D02*
X62585144Y-88212582D01*
X62585144Y-88212582D02*
X62823239Y-88212582D01*
X62823239Y-88212582D02*
X62966096Y-88260201D01*
X63299430Y-88212582D02*
X63537525Y-89212582D01*
X63537525Y-89212582D02*
X63728001Y-88498296D01*
X63728001Y-88498296D02*
X63918477Y-89212582D01*
X63918477Y-89212582D02*
X64156573Y-88212582D01*
X64585144Y-89212582D02*
X64775620Y-89212582D01*
X64775620Y-89212582D02*
X64870858Y-89164963D01*
X64870858Y-89164963D02*
X64918477Y-89117343D01*
X64918477Y-89117343D02*
X65013715Y-88974486D01*
X65013715Y-88974486D02*
X65061334Y-88784010D01*
X65061334Y-88784010D02*
X65061334Y-88403058D01*
X65061334Y-88403058D02*
X65013715Y-88307820D01*
X65013715Y-88307820D02*
X64966096Y-88260201D01*
X64966096Y-88260201D02*
X64870858Y-88212582D01*
X64870858Y-88212582D02*
X64680382Y-88212582D01*
X64680382Y-88212582D02*
X64585144Y-88260201D01*
X64585144Y-88260201D02*
X64537525Y-88307820D01*
X64537525Y-88307820D02*
X64489906Y-88403058D01*
X64489906Y-88403058D02*
X64489906Y-88641153D01*
X64489906Y-88641153D02*
X64537525Y-88736391D01*
X64537525Y-88736391D02*
X64585144Y-88784010D01*
X64585144Y-88784010D02*
X64680382Y-88831629D01*
X64680382Y-88831629D02*
X64870858Y-88831629D01*
X64870858Y-88831629D02*
X64966096Y-88784010D01*
X64966096Y-88784010D02*
X65013715Y-88736391D01*
X65013715Y-88736391D02*
X65061334Y-88641153D01*
X41444668Y-112314963D02*
X41587525Y-112362582D01*
X41587525Y-112362582D02*
X41825620Y-112362582D01*
X41825620Y-112362582D02*
X41920858Y-112314963D01*
X41920858Y-112314963D02*
X41968477Y-112267343D01*
X41968477Y-112267343D02*
X42016096Y-112172105D01*
X42016096Y-112172105D02*
X42016096Y-112076867D01*
X42016096Y-112076867D02*
X41968477Y-111981629D01*
X41968477Y-111981629D02*
X41920858Y-111934010D01*
X41920858Y-111934010D02*
X41825620Y-111886391D01*
X41825620Y-111886391D02*
X41635144Y-111838772D01*
X41635144Y-111838772D02*
X41539906Y-111791153D01*
X41539906Y-111791153D02*
X41492287Y-111743534D01*
X41492287Y-111743534D02*
X41444668Y-111648296D01*
X41444668Y-111648296D02*
X41444668Y-111553058D01*
X41444668Y-111553058D02*
X41492287Y-111457820D01*
X41492287Y-111457820D02*
X41539906Y-111410201D01*
X41539906Y-111410201D02*
X41635144Y-111362582D01*
X41635144Y-111362582D02*
X41873239Y-111362582D01*
X41873239Y-111362582D02*
X42016096Y-111410201D01*
X42349430Y-111362582D02*
X42587525Y-112362582D01*
X42587525Y-112362582D02*
X42778001Y-111648296D01*
X42778001Y-111648296D02*
X42968477Y-112362582D01*
X42968477Y-112362582D02*
X43206573Y-111362582D01*
X44016096Y-111695915D02*
X44016096Y-112362582D01*
X43778001Y-111314963D02*
X43539906Y-112029248D01*
X43539906Y-112029248D02*
X44158953Y-112029248D01*
X109540476Y-77949437D02*
X109683333Y-77997056D01*
X109683333Y-77997056D02*
X109921428Y-77997056D01*
X109921428Y-77997056D02*
X110016666Y-77949437D01*
X110016666Y-77949437D02*
X110064285Y-77901817D01*
X110064285Y-77901817D02*
X110111904Y-77806579D01*
X110111904Y-77806579D02*
X110111904Y-77711341D01*
X110111904Y-77711341D02*
X110064285Y-77616103D01*
X110064285Y-77616103D02*
X110016666Y-77568484D01*
X110016666Y-77568484D02*
X109921428Y-77520865D01*
X109921428Y-77520865D02*
X109730952Y-77473246D01*
X109730952Y-77473246D02*
X109635714Y-77425627D01*
X109635714Y-77425627D02*
X109588095Y-77378008D01*
X109588095Y-77378008D02*
X109540476Y-77282770D01*
X109540476Y-77282770D02*
X109540476Y-77187532D01*
X109540476Y-77187532D02*
X109588095Y-77092294D01*
X109588095Y-77092294D02*
X109635714Y-77044675D01*
X109635714Y-77044675D02*
X109730952Y-76997056D01*
X109730952Y-76997056D02*
X109969047Y-76997056D01*
X109969047Y-76997056D02*
X110111904Y-77044675D01*
X110445238Y-76997056D02*
X110683333Y-77997056D01*
X110683333Y-77997056D02*
X110873809Y-77282770D01*
X110873809Y-77282770D02*
X111064285Y-77997056D01*
X111064285Y-77997056D02*
X111302381Y-76997056D01*
X112207142Y-77997056D02*
X111635714Y-77997056D01*
X111921428Y-77997056D02*
X111921428Y-76997056D01*
X111921428Y-76997056D02*
X111826190Y-77139913D01*
X111826190Y-77139913D02*
X111730952Y-77235151D01*
X111730952Y-77235151D02*
X111635714Y-77282770D01*
X112588095Y-77092294D02*
X112635714Y-77044675D01*
X112635714Y-77044675D02*
X112730952Y-76997056D01*
X112730952Y-76997056D02*
X112969047Y-76997056D01*
X112969047Y-76997056D02*
X113064285Y-77044675D01*
X113064285Y-77044675D02*
X113111904Y-77092294D01*
X113111904Y-77092294D02*
X113159523Y-77187532D01*
X113159523Y-77187532D02*
X113159523Y-77282770D01*
X113159523Y-77282770D02*
X113111904Y-77425627D01*
X113111904Y-77425627D02*
X112540476Y-77997056D01*
X112540476Y-77997056D02*
X113159523Y-77997056D01*
X90666666Y-63044819D02*
X90666666Y-63759104D01*
X90666666Y-63759104D02*
X90619047Y-63901961D01*
X90619047Y-63901961D02*
X90523809Y-63997200D01*
X90523809Y-63997200D02*
X90380952Y-64044819D01*
X90380952Y-64044819D02*
X90285714Y-64044819D01*
X91095238Y-63140057D02*
X91142857Y-63092438D01*
X91142857Y-63092438D02*
X91238095Y-63044819D01*
X91238095Y-63044819D02*
X91476190Y-63044819D01*
X91476190Y-63044819D02*
X91571428Y-63092438D01*
X91571428Y-63092438D02*
X91619047Y-63140057D01*
X91619047Y-63140057D02*
X91666666Y-63235295D01*
X91666666Y-63235295D02*
X91666666Y-63330533D01*
X91666666Y-63330533D02*
X91619047Y-63473390D01*
X91619047Y-63473390D02*
X91047619Y-64044819D01*
X91047619Y-64044819D02*
X91666666Y-64044819D01*
X116066666Y-63044819D02*
X116066666Y-63759104D01*
X116066666Y-63759104D02*
X116019047Y-63901961D01*
X116019047Y-63901961D02*
X115923809Y-63997200D01*
X115923809Y-63997200D02*
X115780952Y-64044819D01*
X115780952Y-64044819D02*
X115685714Y-64044819D01*
X117066666Y-64044819D02*
X116495238Y-64044819D01*
X116780952Y-64044819D02*
X116780952Y-63044819D01*
X116780952Y-63044819D02*
X116685714Y-63187676D01*
X116685714Y-63187676D02*
X116590476Y-63282914D01*
X116590476Y-63282914D02*
X116495238Y-63330533D01*
X28040476Y-78524437D02*
X28183333Y-78572056D01*
X28183333Y-78572056D02*
X28421428Y-78572056D01*
X28421428Y-78572056D02*
X28516666Y-78524437D01*
X28516666Y-78524437D02*
X28564285Y-78476817D01*
X28564285Y-78476817D02*
X28611904Y-78381579D01*
X28611904Y-78381579D02*
X28611904Y-78286341D01*
X28611904Y-78286341D02*
X28564285Y-78191103D01*
X28564285Y-78191103D02*
X28516666Y-78143484D01*
X28516666Y-78143484D02*
X28421428Y-78095865D01*
X28421428Y-78095865D02*
X28230952Y-78048246D01*
X28230952Y-78048246D02*
X28135714Y-78000627D01*
X28135714Y-78000627D02*
X28088095Y-77953008D01*
X28088095Y-77953008D02*
X28040476Y-77857770D01*
X28040476Y-77857770D02*
X28040476Y-77762532D01*
X28040476Y-77762532D02*
X28088095Y-77667294D01*
X28088095Y-77667294D02*
X28135714Y-77619675D01*
X28135714Y-77619675D02*
X28230952Y-77572056D01*
X28230952Y-77572056D02*
X28469047Y-77572056D01*
X28469047Y-77572056D02*
X28611904Y-77619675D01*
X28945238Y-77572056D02*
X29183333Y-78572056D01*
X29183333Y-78572056D02*
X29373809Y-77857770D01*
X29373809Y-77857770D02*
X29564285Y-78572056D01*
X29564285Y-78572056D02*
X29802381Y-77572056D01*
X30707142Y-78572056D02*
X30135714Y-78572056D01*
X30421428Y-78572056D02*
X30421428Y-77572056D01*
X30421428Y-77572056D02*
X30326190Y-77714913D01*
X30326190Y-77714913D02*
X30230952Y-77810151D01*
X30230952Y-77810151D02*
X30135714Y-77857770D01*
X31659523Y-78572056D02*
X31088095Y-78572056D01*
X31373809Y-78572056D02*
X31373809Y-77572056D01*
X31373809Y-77572056D02*
X31278571Y-77714913D01*
X31278571Y-77714913D02*
X31183333Y-77810151D01*
X31183333Y-77810151D02*
X31088095Y-77857770D01*
X21534819Y-25203333D02*
X22249104Y-25203333D01*
X22249104Y-25203333D02*
X22391961Y-25250952D01*
X22391961Y-25250952D02*
X22487200Y-25346190D01*
X22487200Y-25346190D02*
X22534819Y-25489047D01*
X22534819Y-25489047D02*
X22534819Y-25584285D01*
X21534819Y-24822380D02*
X21534819Y-24203333D01*
X21534819Y-24203333D02*
X21915771Y-24536666D01*
X21915771Y-24536666D02*
X21915771Y-24393809D01*
X21915771Y-24393809D02*
X21963390Y-24298571D01*
X21963390Y-24298571D02*
X22011009Y-24250952D01*
X22011009Y-24250952D02*
X22106247Y-24203333D01*
X22106247Y-24203333D02*
X22344342Y-24203333D01*
X22344342Y-24203333D02*
X22439580Y-24250952D01*
X22439580Y-24250952D02*
X22487200Y-24298571D01*
X22487200Y-24298571D02*
X22534819Y-24393809D01*
X22534819Y-24393809D02*
X22534819Y-24679523D01*
X22534819Y-24679523D02*
X22487200Y-24774761D01*
X22487200Y-24774761D02*
X22439580Y-24822380D01*
%TO.C,J4*%
D12*
X24458001Y-94460000D02*
X24458001Y-107270000D01*
X21698001Y-107270000D02*
X24458001Y-107270000D01*
X21698001Y-94460000D02*
X24458001Y-94460000D01*
X21698001Y-94460000D02*
X21698001Y-107270000D01*
X21698001Y-93190000D02*
X21698001Y-91810000D01*
X21698001Y-91810000D02*
X23078001Y-91810000D01*
%TO.C,SW6*%
X89428001Y-96650000D02*
X89428001Y-98150000D01*
X90678001Y-100650000D02*
X95178001Y-100650000D01*
X95178001Y-94150000D02*
X90678001Y-94150000D01*
X96428001Y-98150000D02*
X96428001Y-96650000D01*
%TO.C,SW5*%
X99828001Y-86857763D02*
X99828001Y-88357763D01*
X101078001Y-90857763D02*
X105578001Y-90857763D01*
X105578001Y-84357763D02*
X101078001Y-84357763D01*
X106828001Y-88357763D02*
X106828001Y-86857763D01*
%TO.C,SW10*%
X79078001Y-83707763D02*
X79078001Y-85207763D01*
X80328001Y-87707763D02*
X84828001Y-87707763D01*
X84828001Y-81207763D02*
X80328001Y-81207763D01*
X86078001Y-85207763D02*
X86078001Y-83707763D01*
%TO.C,SW1*%
X39228001Y-86757763D02*
X39228001Y-88257763D01*
X40478001Y-90757763D02*
X44978001Y-90757763D01*
X44978001Y-84257763D02*
X40478001Y-84257763D01*
X46228001Y-88257763D02*
X46228001Y-86757763D01*
%TO.C,SW7*%
X110900000Y-96650000D02*
X110900000Y-98150000D01*
X112150000Y-100650000D02*
X116650000Y-100650000D01*
X116650000Y-94150000D02*
X112150000Y-94150000D01*
X117900000Y-98150000D02*
X117900000Y-96650000D01*
%TO.C,U2*%
X66440000Y-64760000D02*
X65760000Y-64760000D01*
X66100000Y-64290000D01*
X66440000Y-64760000D01*
G36*
X66440000Y-64760000D02*
G01*
X65760000Y-64760000D01*
X66100000Y-64290000D01*
X66440000Y-64760000D01*
G37*
X59840000Y-54390000D02*
X65360000Y-54390000D01*
X59840000Y-54915000D02*
X59840000Y-54390000D01*
X59840000Y-64810000D02*
X59840000Y-64285000D01*
X65360000Y-54390000D02*
X65360000Y-54915000D01*
X65360000Y-64285000D02*
X65360000Y-64810000D01*
X65360000Y-64810000D02*
X59840000Y-64810000D01*
%TO.C,SW8*%
X99678001Y-106707763D02*
X99678001Y-108207763D01*
X100928001Y-110707763D02*
X105428001Y-110707763D01*
X105428001Y-104207763D02*
X100928001Y-104207763D01*
X106678001Y-108207763D02*
X106678001Y-106707763D01*
%TO.C,SW2*%
X29278001Y-96707763D02*
X29278001Y-98207763D01*
X30528001Y-100707763D02*
X35028001Y-100707763D01*
X35028001Y-94207763D02*
X30528001Y-94207763D01*
X36278001Y-98207763D02*
X36278001Y-96707763D01*
%TO.C,SW3*%
X49278001Y-96707763D02*
X49278001Y-98207763D01*
X50528001Y-100707763D02*
X55028001Y-100707763D01*
X55028001Y-94207763D02*
X50528001Y-94207763D01*
X56278001Y-98207763D02*
X56278001Y-96707763D01*
%TO.C,SW9*%
X60228001Y-83757763D02*
X60228001Y-85257763D01*
X61478001Y-87757763D02*
X65978001Y-87757763D01*
X65978001Y-81257763D02*
X61478001Y-81257763D01*
X67228001Y-85257763D02*
X67228001Y-83757763D01*
%TO.C,SW4*%
X39278001Y-106907763D02*
X39278001Y-108407763D01*
X40528001Y-110907763D02*
X45028001Y-110907763D01*
X45028001Y-104407763D02*
X40528001Y-104407763D01*
X46278001Y-108407763D02*
X46278001Y-106907763D01*
%TO.C,SW12*%
X107480000Y-72372237D02*
X107480000Y-76222237D01*
X107480000Y-78862237D02*
X107480000Y-79162237D01*
X108370000Y-79162237D02*
X107480000Y-79162237D01*
X108370000Y-79162237D02*
X108370000Y-78812237D01*
X108860000Y-76612237D02*
X113840000Y-76612237D01*
X114330000Y-79162237D02*
X114330000Y-78812237D01*
X115220000Y-72372237D02*
X107480000Y-72372237D01*
X115220000Y-76222237D02*
X115220000Y-72372237D01*
X115220000Y-78862237D02*
X115220000Y-79162237D01*
X115220000Y-79162237D02*
X114330000Y-79162237D01*
%TO.C,J2*%
X92330000Y-23930000D02*
X89670000Y-23930000D01*
X92330000Y-59550000D02*
X92330000Y-23930000D01*
X92330000Y-59550000D02*
X89670000Y-59550000D01*
X89670000Y-59550000D02*
X89670000Y-23930000D01*
X91000000Y-62150000D02*
X89670000Y-62150000D01*
X89670000Y-62150000D02*
X89670000Y-60820000D01*
%TO.C,J1*%
X117730000Y-23930000D02*
X115070000Y-23930000D01*
X117730000Y-59550000D02*
X117730000Y-23930000D01*
X117730000Y-59550000D02*
X115070000Y-59550000D01*
X115070000Y-59550000D02*
X115070000Y-23930000D01*
X116400000Y-62150000D02*
X115070000Y-62150000D01*
X115070000Y-62150000D02*
X115070000Y-60820000D01*
%TO.C,SW11*%
X25980000Y-72947237D02*
X25980000Y-76797237D01*
X25980000Y-79437237D02*
X25980000Y-79737237D01*
X26870000Y-79737237D02*
X25980000Y-79737237D01*
X26870000Y-79737237D02*
X26870000Y-79387237D01*
X27360000Y-77187237D02*
X32340000Y-77187237D01*
X32830000Y-79737237D02*
X32830000Y-79387237D01*
X33720000Y-72947237D02*
X25980000Y-72947237D01*
X33720000Y-76797237D02*
X33720000Y-72947237D01*
X33720000Y-79437237D02*
X33720000Y-79737237D01*
X33720000Y-79737237D02*
X32830000Y-79737237D01*
%TO.C,J3*%
X23080000Y-22220000D02*
X56320000Y-22220000D01*
X23080000Y-24870000D02*
X23080000Y-22220000D01*
X23080000Y-27520000D02*
X23080000Y-26140000D01*
X24460000Y-27520000D02*
X23080000Y-27520000D01*
X25730000Y-24870000D02*
X23080000Y-24870000D01*
X25730000Y-27520000D02*
X25730000Y-24870000D01*
X25730000Y-27520000D02*
X56320000Y-27520000D01*
X56320000Y-27520000D02*
X56320000Y-22220000D01*
%TD*%
M02*
